<?xml version="1.0" encoding="utf-8"?>
<!-- Generator: Adobe Illustrator 15.0.0, SVG Export Plug-In . SVG Version: 6.00 Build 0)  -->
<!DOCTYPE svg PUBLIC "-//W3C//DTD SVG 1.1//EN" "http://www.w3.org/Graphics/SVG/1.1/DTD/svg11.dtd">
<svg version="1.1"  xmlns="http://www.w3.org/2000/svg" xmlns:xlink="http://www.w3.org/1999/xlink" x="0px" y="0px"
	 width="48px" height="48px" viewBox="0 0 48 48" enable-background="new 0 0 48 48" xml:space="preserve">
<g>
	<polygon fill="#3F51B5" points="6,15 8,15 14,24 8,23 	"/>
	<polygon fill="#3F51B5" points="6,33 8,33 14,24 8,25 	"/>
</g>
<g>
	<polygon fill="#9FA8DA" points="18,6 22,6 33,21 23,21 	"/>
	<path fill="#9FA8DA" d="M37,27c-2,0-12,0-15,0c-7,0-14-2-14-2v-2c0,0,7-2,14-2c3,0,13.161,0,15,0c2,0,5,0.75,5,3S39,27,37,27z"/>
	<polygon fill="#9FA8DA" points="18,42 22,42 33,27 23,27 	"/>
</g>
<g>
	<polygon fill="#7986CB" points="18,6 20,6 25,21 23,21 	"/>
	<polygon fill="#7986CB" points="18,42 20,42 25,27 23,27 	"/>
</g>
</svg>
