<?xml version="1.0" encoding="utf-8"?>
<!-- Generator: Adobe Illustrator 18.1.1, SVG Export Plug-In . SVG Version: 6.00 Build 0)  -->
<svg version="1.1"  xmlns="http://www.w3.org/2000/svg" xmlns:xlink="http://www.w3.org/1999/xlink" x="0px" y="0px"
	 viewBox="0 0 48 48" enable-background="new 0 0 48 48" xml:space="preserve">
<g>
	<polygon fill="#2196F3" points="32,44 26,42 26.6,34 32,40 	"/>
	<polygon fill="#2196F3" points="42,34 27,26.6 26.8,19.6 26.6,15 42,30.2 	"/>
	<polygon fill="#2196F3" points="16,44 22,42 21.4,34 16,40 	"/>
	<polygon fill="#2196F3" points="6,34 21,26.6 21.2,19.6 21.4,15 6,30.2 	"/>
</g>
<path fill="#64B5F6" d="M24,4L24,4c-2.2,0-4,1.8-4,4v33c0,1.1,0.9,2,2,2h4c1.1,0,2-0.9,2-2V8C28,5.8,26.2,4,24,4z"/>
<rect x="23" y="34" fill="#2196F3" width="2" height="9"/>
</svg>
