<?xml version="1.0" encoding="utf-8"?>
<!-- Generator: Adobe Illustrator 15.0.0, SVG Export Plug-In . SVG Version: 6.00 Build 0)  -->
<!DOCTYPE svg PUBLIC "-//W3C//DTD SVG 1.1//EN" "http://www.w3.org/Graphics/SVG/1.1/DTD/svg11.dtd">
<svg version="1.1"  xmlns="http://www.w3.org/2000/svg" xmlns:xlink="http://www.w3.org/1999/xlink" x="0px" y="0px"
	 width="48px" height="48px" viewBox="0 0 48 48" enable-background="new 0 0 48 48" xml:space="preserve">
<rect x="4" y="37" fill="#546E7A" width="40" height="4"/>
<path fill="#7986CB" d="M31.548,14.377c0,0-10.481-7.164-12.472-7.35C17.084,6.843,15,7.653,15,7.653l8.305,8.971L31.548,14.377z"/>
<polygon fill="#3F51B5" points="2,12 8.239,20.991 13.937,16.828 5,11 "/>
<g>
	<path fill="#9FA8DA" d="M11.491,17.283c0,0,17.392-6.274,22.166-7.764c5.729-1.786,11.02,0.635,11.344,1.672
		c0.297,0.953-1.225,2.503-7.35,4.415c-6.125,1.911-18.346,6.573-18.346,6.573S10.516,24.939,3,21
		C8.32,18.467,11.491,17.283,11.491,17.283z"/>
	<path fill="#9FA8DA" d="M32.2,17.562c-0.246,1.392-5.712,11.815-7.351,12.963C23.211,31.672,21,32,21,32
		c2.541-10.339,2.58-10.331,2.926-12.307C24.171,18.3,32.446,16.17,32.2,17.562z"/>
</g>
<g>
	<path fill="#283593" d="M43.297,9.95c-0.773-0.342-1.781-0.65-2.932-0.849l0.489,1.598L43.297,9.95z"/>
	
		<rect x="37.649" y="9.329" transform="matrix(0.9562 -0.2929 0.2929 0.9562 -1.3306 11.7714)" fill="#283593" width="2.001" height="2.001"/>
	<circle fill="#283593" cx="20.566" cy="17.762" r="1"/>
	<circle fill="#283593" cx="24.344" cy="16.451" r="1"/>
	<path fill="#283593" d="M29.067,14.81c0.183,0.523-0.095,1.092-0.614,1.275c-0.522,0.179-1.092-0.096-1.275-0.619
		c-0.179-0.521,0.096-1.092,0.616-1.273C28.319,14.015,28.888,14.289,29.067,14.81z"/>
	<circle fill="#283593" cx="31.903" cy="13.827" r="1"/>
</g>
</svg>
