<?xml version="1.0"?>
<svg xmlns="http://www.w3.org/2000/svg" width="26" height="26" viewBox="0 0 26 26">
    <path d="M 4.28125 0 C 3.3208789 0.10053711 2.33625 0.84375 1.5625 1.625 C 0.3245 2.875 -0.71325 4.698 0.59375 6 C 5.463347 10.849218 7.2412857 10.283648 8.3125 9.4375 A 0.80008001 0.80008001 0 0 0 8.4375 9.5625 C 9.8021738 10.927174 11.019841 11.627637 12.1875 11.8125 C 13.355159 11.997363 14.386004 11.61882 15.25 11.125 C 16.977992 10.13736 18.253123 8.8125 20 8.8125 C 21.239317 8.8125 22.298462 9.176622 23.03125 9.8125 C 23.764038 10.448378 24.1875 11.331691 24.1875 12.5 C 24.1875 13.672373 23.687371 14.69352 23.21875 15.40625 C 22.882602 15.150106 22.454924 15 22 15 L 2 15 C 0.896 15 0 15.896 0 17 L 0 24 C 0 25.104 0.896 26 2 26 L 22 26 C 23.104 26 24 25.104 24 24 L 24 17.125 C 24.652489 16.349805 25.8125 14.664085 25.8125 12.5 C 25.8125 10.908309 25.127462 9.549122 24.0625 8.625 C 22.997538 7.700878 21.569683 7.1875 20 7.1875 C 17.480877 7.1875 15.848758 8.9433903 14.4375 9.75 C 13.731871 10.153305 13.151123 10.36298 12.4375 10.25 C 11.723877 10.13702 10.786326 9.6613262 9.5625 8.4375 A 0.80008001 0.80008001 0 0 0 9.4375 8.3125 C 10.294175 7.2516332 10.841068 5.5063053 5.9375 0.625 C 5.43275 0.122875 4.8574727 -0.060322266 4.28125 0 z M 4.78125 1.46875 C 4.856 1.468625 4.91225 1.5065 4.96875 1.5625 L 5.0625 1.625 C 5.1755 1.74 5.1775 1.91725 5.0625 2.03125 L 2.03125 5.09375 C 1.91925 5.20975 1.738 5.20775 1.625 5.09375 L 1.5625 5 C 1.4485 4.886 1.4505 4.70975 1.5625 4.59375 L 4.5625 1.5625 C 4.62 1.506 4.7065 1.468875 4.78125 1.46875 z M 5.75 2.4375 C 5.82475 2.437375 5.91175 2.47475 5.96875 2.53125 L 6.03125 2.625 C 6.14725 2.741 6.14425 2.91625 6.03125 3.03125 L 3.03125 6.0625 C 2.91625 6.1775 2.739 6.1785 2.625 6.0625 L 2.53125 6 C 2.41525 5.886 2.41725 5.6775 2.53125 5.5625 L 5.5625 2.53125 C 5.6195 2.47425 5.67525 2.437625 5.75 2.4375 z M 6.75 3.4375 C 6.824625 3.437625 6.8805 3.444 6.9375 3.5 L 7.03125 3.59375 C 7.14525 3.70775 7.14425 3.886 7.03125 4 L 4 7.0625 C 3.885 7.1775 3.70775 7.1765 3.59375 7.0625 L 3.53125 6.96875 C 3.41825 6.85575 3.41825 6.6775 3.53125 6.5625 L 6.53125 3.5 C 6.58875 3.4435 6.675375 3.437375 6.75 3.4375 z M 7.25 6.21875 C 7.5165 6.218125 7.76425 6.297 7.96875 6.5 C 8.37775 6.906 8.37375 7.592 7.96875 8 C 7.56175 8.41 6.908 8.406 6.5 8 C 6.092 7.594 6.092 6.94025 6.5 6.53125 C 6.7025 6.32675 6.9835 6.219375 7.25 6.21875 z M 2.40625 17 L 2.59375 17 C 2.82675 17 3 17.17325 3 17.40625 L 3 23.59375 C 3 23.82675 2.82675 24 2.59375 24 L 2.40625 24 C 2.17425 24 2 23.82675 2 23.59375 L 2 17.40625 C 2 17.17325 2.17425 17 2.40625 17 z M 4.40625 17 L 4.59375 17 C 4.82675 17 5 17.17325 5 17.40625 L 5 23.59375 C 5 23.82675 4.82675 24 4.59375 24 L 4.40625 24 C 4.17425 24 4 23.82675 4 23.59375 L 4 17.40625 C 4 17.17325 4.17425 17 4.40625 17 z M 6.40625 17 L 6.59375 17 C 6.82675 17 7 17.17325 7 17.40625 L 7 23.59375 C 7 23.82675 6.82675 24 6.59375 24 L 6.40625 24 C 6.17425 24 6 23.82675 6 23.59375 L 6 17.40625 C 6 17.17325 6.17425 17 6.40625 17 z M 8.40625 17 L 8.59375 17 C 8.82675 17 9 17.17325 9 17.40625 L 9 23.59375 C 9 23.82675 8.82675 24 8.59375 24 L 8.40625 24 C 8.17425 24 8 23.82675 8 23.59375 L 8 17.40625 C 8 17.17325 8.17425 17 8.40625 17 z M 10.40625 17 L 10.59375 17 C 10.82675 17 11 17.17325 11 17.40625 L 11 23.59375 C 11 23.82575 10.82675 24 10.59375 24 L 10.40625 24 C 10.17425 24 10 23.82675 10 23.59375 L 10 17.40625 C 10 17.17325 10.17425 17 10.40625 17 z M 13.40625 17 L 21.59375 17 C 21.82675 17 22 17.17425 22 17.40625 L 22 19.59375 C 22 19.82675 21.82675 20 21.59375 20 L 13.40625 20 C 13.17425 20 13 19.82675 13 19.59375 L 13 17.40625 C 13 17.17425 13.17425 17 13.40625 17 z M 14.5 21 C 15.328 21 16 21.672 16 22.5 C 16 23.328 15.328 24 14.5 24 C 13.672 24 13 23.328 13 22.5 C 13 21.672 13.672 21 14.5 21 z M 20.5 21 C 21.328 21 22 21.672 22 22.5 C 22 23.328 21.328 24 20.5 24 C 19.672 24 19 23.328 19 22.5 C 19 21.672 19.672 21 20.5 21 z"/>
</svg>
