<?xml version="1.0" encoding="utf-8"?>
<!-- Generator: Adobe Illustrator 15.0.0, SVG Export Plug-In . SVG Version: 6.00 Build 0)  -->
<!DOCTYPE svg PUBLIC "-//W3C//DTD SVG 1.1//EN" "http://www.w3.org/Graphics/SVG/1.1/DTD/svg11.dtd">
<svg version="1.1"  xmlns="http://www.w3.org/2000/svg" xmlns:xlink="http://www.w3.org/1999/xlink" x="0px" y="0px"
	 width="48px" height="48px" viewBox="0 0 48 48" enable-background="new 0 0 48 48" xml:space="preserve">
<g>
	<path fill="#546E7A" d="M44,40c0,1.104-0.896,2-2,2H6c-1.104,0-2-0.896-2-2V28c0-1.104,0.896-2,2-2h36c1.104,0,2,0.896,2,2V40z"/>
	<path fill="#546E7A" d="M6.43,9.471c-1.915,1.921-3.514,4.733-1.492,6.73c7.759,7.672,9.724,5.991,11.365,4.629
		c0.774-0.642,0.75-0.642,1.441-1.438c1.389-1.616,3.273-3.704-4.558-11.448C11.103,5.89,8.342,7.552,6.43,9.471z"/>
</g>
<g>
	<rect x="20" y="26" fill="#263238" width="14" height="16"/>
	<circle fill="#263238" cx="14.5" cy="17.5" r="1.5"/>
	<path fill="#263238" d="M42,37c0,1.656-1.343,3-3,3l0,0c-1.657,0-3-1.344-3-3v-6c0-1.656,1.343-3,3-3l0,0c1.657,0,3,1.344,3,3V37z"
		/>
</g>
<g>
	<g>
		<circle fill="#78909C" cx="39" cy="37" r="2"/>
	</g>
	<g>
		<circle fill="#78909C" cx="39" cy="31" r="2"/>
	</g>
</g>
<g>
	<path fill="#37474F" d="M17,37c0.552,0,1,0.447,1,1l0,0c0,0.553-0.448,1-1,1H7c-0.552,0-1-0.447-1-1l0,0c0-0.553,0.448-1,1-1H17z"
		/>
	<path fill="#37474F" d="M17,33c0.552,0,1,0.447,1,1l0,0c0,0.553-0.448,1-1,1H7c-0.552,0-1-0.447-1-1l0,0c0-0.553,0.448-1,1-1H17z"
		/>
	<path fill="#37474F" d="M17,29c0.552,0,1,0.447,1,1l0,0c0,0.553-0.448,1-1,1H7c-0.552,0-1-0.447-1-1l0,0c0-0.553,0.448-1,1-1H17z"
		/>
	
		<line fill="none" stroke="#37474F" stroke-width="2" stroke-linecap="round" stroke-linejoin="round" x1="7" y1="15" x2="12" y2="10"/>
	
		<line fill="none" stroke="#37474F" stroke-width="2" stroke-linecap="round" stroke-linejoin="round" x1="10" y1="16" x2="13" y2="13"/>
	<path fill="#37474F" d="M29.983,20.352C31.979,18.628,33.866,17,36,17c3.757,0,6,2.185,6,5.844c0,1.141-0.397,2.219-0.926,3.156H42
		c0.424,0,0.815,0.134,1.139,0.359C43.644,25.308,44,24.121,44,22.844C44,18.079,40.859,15,36,15c-2.878,0-5.138,1.951-7.324,3.837
		c-3.325,2.871-5.952,5.139-10.24,0.852l-0.524-0.494c-0.056,0.066-0.112,0.132-0.167,0.196c-0.615,0.708-0.667,0.79-1.214,1.249
		l0.513,0.483C22.621,26.702,26.703,23.182,29.983,20.352z"/>
</g>
<g>
	<rect x="22" y="29" fill="#FFC107" width="10" height="5"/>
	<path fill="#FFC107" d="M26,38c0,0.553-0.447,1-1,1h-2c-0.553,0-1-0.447-1-1v-1c0-0.553,0.447-1,1-1h2c0.553,0,1,0.447,1,1V38z"/>
</g>
<path fill="#FF3D00" d="M32,38c0,0.553-0.447,1-1,1h-2c-0.553,0-1-0.447-1-1v-1c0-0.553,0.447-1,1-1h2c0.553,0,1,0.447,1,1V38z"/>
<rect x="23" y="30" fill="#FF8F00" width="6" height="2"/>
</svg>
