<?xml version="1.0" encoding="iso-8859-1"?>
<!-- Generator: Adobe Illustrator 21.0.2, SVG Export Plug-In . SVG Version: 6.00 Build 0)  -->
<svg version="1.1"  xmlns="http://www.w3.org/2000/svg" xmlns:xlink="http://www.w3.org/1999/xlink" x="0px" y="0px"
	 viewBox="0 0 48 48" style="enable-background:new 0 0 48 48;" xml:space="preserve">
<line style="fill:none;stroke:#9FA8DA;stroke-width:2;stroke-miterlimit:10;" x1="6" y1="9" x2="42" y2="9"/>
<polygon style="fill:#3F51B5;" points="13.477,8.977 14.909,6 11.977,7.523 9,6.091 10.523,9.023 9.091,12 12.023,10.477 15,11.909 
	"/>
<polygon style="fill:#3F51B5;" points="30.477,8.977 31.909,6 28.977,7.523 26,6.091 27.523,9.023 26.091,12 29.023,10.477 
	32,11.909 "/>
<line style="fill:none;stroke:#9FA8DA;stroke-width:2;stroke-miterlimit:10;" x1="6" y1="29" x2="42" y2="29"/>
<polygon style="fill:#3F51B5;" points="13.477,28.977 14.909,26 11.977,27.523 9,26.091 10.523,29.023 9.091,32 12.023,30.477 
	15,31.909 "/>
<polygon style="fill:#3F51B5;" points="30.477,28.977 31.909,26 28.977,27.523 26,26.091 27.523,29.023 26.091,32 29.023,30.477 
	32,31.909 "/>
<line style="fill:none;stroke:#9FA8DA;stroke-width:2;stroke-miterlimit:10;" x1="6" y1="19" x2="42" y2="19"/>
<polygon style="fill:#3F51B5;" points="20.477,18.977 21.909,16 18.977,17.523 16,16.091 17.523,19.023 16.091,22 19.023,20.477 
	22,21.909 "/>
<polygon style="fill:#3F51B5;" points="37.477,18.977 38.909,16 35.977,17.523 33,16.091 34.523,19.023 33.091,22 36.023,20.477 
	39,21.909 "/>
<line style="fill:none;stroke:#9FA8DA;stroke-width:2;stroke-miterlimit:10;" x1="6" y1="39" x2="42" y2="39"/>
<polygon style="fill:#3F51B5;" points="20.477,38.977 21.909,36 18.977,37.523 16,36.091 17.523,39.023 16.091,42 19.023,40.477 
	22,41.909 "/>
<polygon style="fill:#3F51B5;" points="37.477,38.977 38.909,36 35.977,37.523 33,36.091 34.523,39.023 33.091,42 36.023,40.477 
	39,41.909 "/>
</svg>
