<?xml version="1.0" encoding="utf-8"?>
<!-- Generator: Adobe Illustrator 15.0.0, SVG Export Plug-In . SVG Version: 6.00 Build 0)  -->
<!DOCTYPE svg PUBLIC "-//W3C//DTD SVG 1.1//EN" "http://www.w3.org/Graphics/SVG/1.1/DTD/svg11.dtd">
<svg version="1.1"  xmlns="http://www.w3.org/2000/svg" xmlns:xlink="http://www.w3.org/1999/xlink" x="0px" y="0px"
	 width="48px" height="48px" viewBox="0 0 48 48" enable-background="new 0 0 48 48" xml:space="preserve">
<path fill="#795548" d="M15,36.002c13-6,12-26.001,12-26.001h2c0,0,2,22.001-8.89,29.784L15,36.002z"/>
<g>
	<path fill="#388E3C" d="M12,13c-0.022-1.81,0.703-3.625,1.874-5.051c1.173-1.419,2.959-2.523,4.939-2.84
		c1.979-0.335,3.977,0.126,5.548,1.013C25.942,7.021,27.202,8.282,28,9.89c-1.773-0.26-3.287-0.625-4.702-0.809
		c-1.411-0.195-2.665-0.215-3.835-0.025c-1.17,0.19-2.319,0.6-3.542,1.267C14.693,10.986,13.443,11.965,12,13z"/>
	<g>
		<path fill="#388E3C" d="M41,13l-3.489-1.77c-1.026-0.504-1.952-0.881-2.835-1.119c-0.884-0.24-1.76-0.371-2.84-0.369
			C30.753,9.73,29.526,9.9,28,10c0.529-1.433,1.573-2.561,2.967-3.281C32.35,6,34.143,5.794,35.736,6.256
			c1.604,0.439,2.932,1.434,3.836,2.613C40.465,10.064,41.045,11.457,41,13z"/>
	</g>
</g>
<g>
	<g>
		<path fill="#4CAF50" d="M28,10c-1.877,1.025-3.264,1.927-4.362,2.842c-1.096,0.913-1.846,1.79-2.584,2.797
			c-0.731,1.006-1.444,2.197-2.218,3.604C18.043,20.646,17.254,22.232,16,24c-1.245-1.775-1.757-3.747-1.764-5.805
			c0.015-2.041,0.604-4.229,1.971-6.093c1.334-1.873,3.495-3.261,5.707-3.634C24.118,8.101,26.359,8.545,28,10z"/>
	</g>
	<g>
		<path fill="#4CAF50" d="M38,25c-1.162-1.688-1.957-3.114-2.699-4.45c-0.725-1.331-1.373-2.517-2.005-3.606
			c-0.64-1.09-1.244-2.091-2.052-3.178C30.445,12.659,29.399,11.529,28,10c1.847-0.937,3.972-0.902,5.902-0.133
			c1.932,0.77,3.583,2.298,4.586,4.071c1.025,1.774,1.469,3.754,1.416,5.655C39.821,21.494,39.324,23.387,38,25z"/>
	</g>
</g>
<path fill="#2196F3" d="M43,37.001c0,0-1,2-4,2s-4-2-4-2s-1,2-4,2s-4-2-4-2s-1,2-4,2s-4-2-4-2s-1,2-4,2s-4-2-4-2s-1,2-4,2v4h4h32
	V37.001z"/>
<path fill="#FFC107" d="M5,43l27,0.001c0,0-9-8-27-9V43z"/>
<g>
	<path fill="#8BC34A" d="M28,10c-4,5-5,16-5,16"/>
	<path fill="#8BC34A" d="M28,10c0.115,1.865,0.158,3.221,0.072,4.587c-0.092,1.343-0.289,2.618-0.636,3.884
		c-0.341,1.266-0.831,2.514-1.509,3.765C25.23,23.488,24.386,24.73,23,26c-1.101-1.541-1.521-3.094-1.712-4.619
		c-0.165-1.525-0.042-3.037,0.362-4.497c0.402-1.458,1.084-2.872,2.093-4.132C24.763,11.523,26.128,10.352,28,10z"/>
</g>
</svg>
