<?xml version="1.0" encoding="utf-8"?>
<!-- Generator: Adobe Illustrator 15.0.0, SVG Export Plug-In . SVG Version: 6.00 Build 0)  -->
<!DOCTYPE svg PUBLIC "-//W3C//DTD SVG 1.1//EN" "http://www.w3.org/Graphics/SVG/1.1/DTD/svg11.dtd">
<svg version="1.1"  xmlns="http://www.w3.org/2000/svg" xmlns:xlink="http://www.w3.org/1999/xlink" x="0px" y="0px"
	 width="48px" height="48px" viewBox="0 0 48 48" enable-background="new 0 0 48 48" xml:space="preserve">
<g>
	<rect x="5" y="22" fill="#546E7A" width="2" height="4"/>
	<rect x="41" y="22" fill="#546E7A" width="2" height="4"/>
</g>
<path fill="#FFC107" d="M40,19H8v20c0,2.209,1.791,4,4,4h24c2.209,0,4-1.791,4-4V19z"/>
<path fill="#FFECB3" d="M36,31H12v-2c0,0,0-1,1-1s21,0,22,0s1,1,1,1V31z"/>
<g>
	<path fill="#37474F" d="M10,19v1c0,1.104,0.896,2,2,2h24c1.104,0,2-0.896,2-2v-1H10z"/>
	<path fill="#37474F" d="M28.619,19h-9.238C17.924,19.733,17,20.804,17,22c0,2.209,3.134,4,7,4s7-1.791,7-4
		C31,20.804,30.076,19.733,28.619,19z"/>
	<path fill="#37474F" d="M36,38c0,1.104-0.896,2-2,2H14c-1.104,0-2-0.896-2-2v-7h24V38z"/>
	<rect x="7" y="23" fill="#37474F" width="1" height="2"/>
	<rect x="40" y="23" fill="#37474F" width="1" height="2"/>
</g>
<g>
	<rect x="12" y="5" fill="#90CAF9" width="24" height="15"/>
	<ellipse fill="#90CAF9" cx="24" cy="20.285" rx="3" ry="1.715"/>
</g>
<g>
	<rect x="16" y="9" fill="#1976D2" width="16" height="2"/>
	<rect x="16" y="13" fill="#1976D2" width="12" height="2"/>
</g>
<g>
	<circle fill="#B0BEC5" cx="15" cy="34" r="1"/>
	<circle fill="#B0BEC5" cx="15" cy="37" r="1"/>
	<circle fill="#B0BEC5" cx="33" cy="34" r="1"/>
	<circle fill="#B0BEC5" cx="33" cy="37" r="1"/>
	<circle fill="#B0BEC5" cx="18" cy="34" r="1"/>
	<circle fill="#B0BEC5" cx="21" cy="34" r="1"/>
	<circle fill="#B0BEC5" cx="24" cy="34" r="1"/>
	<circle fill="#B0BEC5" cx="27" cy="34" r="1"/>
	<circle fill="#B0BEC5" cx="30" cy="34" r="1"/>
	<path fill="#B0BEC5" d="M31,37c0,0.553-0.447,1-1,1H18c-0.552,0-1-0.447-1-1l0,0c0-0.553,0.448-1,1-1h12C30.553,36,31,36.447,31,37
		L31,37z"/>
</g>
</svg>
