<?xml version="1.0" encoding="utf-8"?>
<!-- Generator: Adobe Illustrator 15.0.0, SVG Export Plug-In . SVG Version: 6.00 Build 0)  -->
<!DOCTYPE svg PUBLIC "-//W3C//DTD SVG 1.1//EN" "http://www.w3.org/Graphics/SVG/1.1/DTD/svg11.dtd">
<svg version="1.1"  xmlns="http://www.w3.org/2000/svg" xmlns:xlink="http://www.w3.org/1999/xlink" x="0px" y="0px"
	 width="48px" height="48px" viewBox="0 0 48 48" enable-background="new 0 0 48 48" xml:space="preserve">
<path fill="#4CAF50" d="M37,41v-7c0-4.971-3.029-8-8-8H19c-4.971,0-8,3.029-8,8v7H37z"/>
<path fill="#66BB6A" d="M11.83,30c-0.42,0.875-0.686,1.881-0.784,3h25.908c-0.099-1.119-0.364-2.125-0.784-3H11.83z"/>
<g>
	<path fill="#C5CAE9" d="M38,41c0,0.553-0.447,1-1,1H11c-0.553,0-1-0.447-1-1l0,0c0-0.553,0.447-1,1-1h26C37.553,40,38,40.447,38,41
		L38,41z"/>
	<rect x="21" y="16" fill="#C5CAE9" width="6" height="6"/>
	<polygon fill="#C5CAE9" points="30,12 18,12 19,8 29,8 	"/>
</g>
<g>
	<path fill="#455A64" d="M29,26v-3c0-0.553-0.447-1-1-1h-8c-0.553,0-1,0.447-1,1v3H29z"/>
	<path fill="#455A64" d="M36,21c0,0.553-0.447,1-1,1l-5-1v-4l5-1c0.553,0,1,0.447,1,1V21z"/>
</g>
<g>
	<rect x="30" y="18" fill="#607D8B" width="6" height="2"/>
	<rect x="21" y="22" fill="#607D8B" width="2" height="4"/>
	<rect x="25" y="22" fill="#607D8B" width="2" height="4"/>
</g>
<g>
	<circle fill="#5C6BC0" cx="21" cy="10" r="1"/>
	<circle fill="#5C6BC0" cx="24" cy="10" r="1"/>
	<circle fill="#5C6BC0" cx="27" cy="10" r="1"/>
</g>
<g>
	<rect x="23" y="12" fill="#9FA8DA" width="2" height="4"/>
	<rect x="27" y="18" fill="#9FA8DA" width="3" height="2"/>
	<path fill="none" stroke="#9FA8DA" stroke-width="2" d="M30,6h7c1.657,0,3,1.344,3,3v2c0,1.656-1.343,3-3,3H24"/>
	<path fill="none" stroke="#9FA8DA" stroke-width="2" d="M18,6h-7C9.343,6,8,7.344,8,9v2c0,1.656,1.343,3,3,3h12"/>
</g>
</svg>
