<?xml version="1.0"?>
<svg xmlns="http://www.w3.org/2000/svg" width="50" height="50" viewBox="0 0 50 50">
    <path d="M 17 5 C 15.683 5 14.893 6.274 14.125 7.5 C 13.816 7.993 13.235 8.905 13 9 L 3 9 C 1.346 9 0 10.346 0 12 L 0 39 C 0 40.654 1.346 42 3 42 L 47 42 C 48.654 42 50 40.654 50 39 L 50 12 C 50 10.346 48.654 9 47 9 L 37.03125 9 C 36.75225 8.899 36.185 7.994 35.875 7.5 C 35.106 6.275 34.317 5 33 5 L 17 5 z M 25 11 C 32.168 11 38 16.832 38 24 C 38 31.168 32.168 37 25 37 C 17.832 37 12 31.168 12 24 C 12 16.832 17.832 11 25 11 z M 25 13 C 18.935 13 14 17.935 14 24 C 14 30.065 18.935 35 25 35 C 31.065 35 36 30.065 36 24 C 36 17.935 31.065 13 25 13 z M 8 14 L 9 14 C 10.104 14 11 14.896 11 16 C 11 17.104 10.104 18 9 18 L 8 18 C 6.896 18 6 17.104 6 16 C 6 14.896 6.896 14 8 14 z M 25 15 C 29.963 15 34 19.038 34 24 C 34 28.963 29.963 33 25 33 C 20.038 33 16 28.963 16 24 C 16 19.038 20.038 15 25 15 z M 25 17 C 21.14 17 18 20.14 18 24 C 18 27.859 21.14 31 25 31 C 28.859 31 32 27.859 32 24 C 32 20.14 28.859 17 25 17 z"/>
</svg>
