<?xml version="1.0" encoding="utf-8"?>
<!-- Generator: Adobe Illustrator 15.0.0, SVG Export Plug-In . SVG Version: 6.00 Build 0)  -->
<!DOCTYPE svg PUBLIC "-//W3C//DTD SVG 1.1//EN" "http://www.w3.org/Graphics/SVG/1.1/DTD/svg11.dtd">
<svg version="1.1"  xmlns="http://www.w3.org/2000/svg" xmlns:xlink="http://www.w3.org/1999/xlink" x="0px" y="0px"
	 width="48px" height="48px" viewBox="0 0 48 48" enable-background="new 0 0 48 48" xml:space="preserve">
<rect x="9.584" y="36.514" transform="matrix(0.968 0.251 -0.251 0.968 10.4185 -4.6726)" fill="#5D4037" width="27.893" height="3.999"/>
<line fill="none" stroke="#8D6E63" stroke-width="4" x1="10.03" y1="42.014" x2="37.03" y2="35.014"/>
<g>
	<polygon fill="#3E2723" points="19.545,35.415 11.577,37.48 15.563,38.514 23.53,36.448 	"/>
	<polygon fill="#3E2723" points="35.483,39.547 31.498,38.514 23.53,40.579 27.516,41.612 	"/>
</g>
<path fill="#FF3D00" d="M34.037,25.949c-0.001-0.123-0.01-0.232-0.014-0.35c0.001-0.051,0.007-0.1,0.007-0.15
	c0-2.482-0.866-4.759-2.306-6.556c-0.104-0.322-0.213-0.663-0.156-1.038C32,15,32.655,11.588,29.037,9c0.356,2.363,0,4.949-2,4.949
	s-0.086-3.355-2-6.406c-1-1.594-3-3.594-6.037-3.543c4.068,2.387,2.324,9.981,1.037,10.949c-2.022,1.525-2-2.949-5-2.949
	c1.202,0.564,0.618,4.494-0.084,5.981c-0.456,0.971-1.396,2.93-1.764,5.706c-0.097,0.574-0.159,1.16-0.159,1.762
	c0,0.072,0.01,0.14,0.012,0.211c-0.001,0.099-0.012,0.188-0.012,0.289c0,0.017,0.021,0.03,0.031,0.046
	c0.319,5.48,5.356,8.954,10.969,8.954c5.628,0,9.738-3.492,9.978-8.999C34.018,25.95,34.037,25.949,34.037,25.949z"/>
<path fill="#FDD835" d="M25.996,22.937c0.555,1.717,0.475,3-1,3c-2.063,0-2.508-1.297-2.035-2.232
	c2.109-4.128,1.646-4.731,0.035-6.768c0.947,4.565-4.007,5.054-4.007,11.054c0,2.762,2.238,5,5,5c2.762,0,5-2.238,5-5
	C29.117,26.748,28.393,24.417,25.996,22.937z"/>
</svg>
