<?xml version="1.0" encoding="utf-8"?>
<!-- Generator: Adobe Illustrator 15.0.0, SVG Export Plug-In . SVG Version: 6.00 Build 0)  -->
<!DOCTYPE svg PUBLIC "-//W3C//DTD SVG 1.1//EN" "http://www.w3.org/Graphics/SVG/1.1/DTD/svg11.dtd">
<svg version="1.1"  xmlns="http://www.w3.org/2000/svg" xmlns:xlink="http://www.w3.org/1999/xlink" x="0px" y="0px"
	 width="48px" height="48px" viewBox="0 0 48 48" enable-background="new 0 0 48 48" xml:space="preserve">
<path fill="#F57C00" d="M13,42c0,0,8-35.998,11-35.999S36,42,36,42H13z"/>
<path fill="#D84315" d="M6,42c0,0,8-28.998,10-28.999s6,14,6,14s1-4,3-4S29,31,29,31s4-13,6-13s8,24,8,24H6z"/>
<path fill="#3E2723" d="M17,42c0-5.523,3.686-10,7-10c3.313,0,7,4.477,7,10H17z"/>
</svg>
