<?xml version="1.0" encoding="utf-8"?>
<!-- Generator: Adobe Illustrator 19.1.1, SVG Export Plug-In . SVG Version: 6.00 Build 0)  -->
<svg version="1.1"  xmlns="http://www.w3.org/2000/svg" xmlns:xlink="http://www.w3.org/1999/xlink" x="0px" y="0px"
	 viewBox="0 0 48 48" enable-background="new 0 0 48 48" xml:space="preserve">
<rect x="20" y="4.1" transform="matrix(0.7071 0.7071 -0.7071 0.7071 24.8284 -7.9411)" fill="#8BC34A" width="4" height="43.8"/>
<path fill="#607D8B" d="M42,23c0.6,0,1,0.4,1,1s-0.4,1-1,1c-0.6,0-1-0.4-1-1S41.4,23,42,23 M39,23c-0.6,0-1,0.4-1,1s0.4,1,1,1
	c0.6,0,1-0.4,1-1S39.6,23,39,23 M36,23c-0.6,0-1,0.4-1,1s0.4,1,1,1c0.6,0,1-0.4,1-1S36.6,23,36,23 M24,23c-0.6,0-1,0.4-1,1
	s0.4,1,1,1c0.6,0,1-0.4,1-1S24.6,23,24,23 M21,23c-0.6,0-1,0.4-1,1s0.4,1,1,1c0.6,0,1-0.4,1-1S21.6,23,21,23 M18,23
	c-0.6,0-1,0.4-1,1s0.4,1,1,1c0.6,0,1-0.4,1-1S18.6,23,18,23 M15,23c-0.6,0-1,0.4-1,1s0.4,1,1,1c0.6,0,1-0.4,1-1S15.6,23,15,23
	 M12,23c-0.6,0-1,0.4-1,1s0.4,1,1,1c0.6,0,1-0.4,1-1S12.6,23,12,23 M9,23c-0.6,0-1,0.4-1,1s0.4,1,1,1c0.6,0,1-0.4,1-1S9.6,23,9,23
	 M6,23c-0.6,0-1,0.4-1,1s0.4,1,1,1c0.6,0,1-0.4,1-1S6.6,23,6,23 M33,23c-0.6,0-1,0.4-1,1s0.4,1,1,1c0.6,0,1-0.4,1-1S33.6,23,33,23
	 M30,23c-0.6,0-1,0.4-1,1s0.4,1,1,1c0.6,0,1-0.4,1-1S30.6,23,30,23 M27,23c-0.6,0-1,0.4-1,1s0.4,1,1,1c0.6,0,1-0.4,1-1
	S27.6,23,27,23"/>
<path fill="#FF3D00" d="M40.6,16h-6.3c-1.3,0-2.4-1.1-2.4-2.4V7.4C32,6.1,33.1,5,34.4,5h6.3C41.9,5,43,6.1,43,7.4v6.3
	C43,14.9,41.9,16,40.6,16z"/>
<polygon fill="#FFFFFF" points="41,8.4 39.6,7 37.5,9.1 35.4,7 34,8.4 36.1,10.5 34,12.6 35.4,14 37.5,11.9 39.6,14 41,12.6 
	38.9,10.5 "/>
</svg>
