<?xml version="1.0" encoding="utf-8"?>
<!-- Generator: Adobe Illustrator 15.0.0, SVG Export Plug-In . SVG Version: 6.00 Build 0)  -->
<!DOCTYPE svg PUBLIC "-//W3C//DTD SVG 1.1//EN" "http://www.w3.org/Graphics/SVG/1.1/DTD/svg11.dtd">
<svg version="1.1"  xmlns="http://www.w3.org/2000/svg" xmlns:xlink="http://www.w3.org/1999/xlink" x="0px" y="0px"
	 width="48px" height="48px" viewBox="0 0 48 48" enable-background="new 0 0 48 48" xml:space="preserve">
<path fill="#BBDEFB" d="M6,10c0-2.209,1.791-4,4-4h28c2.209,0,4,1.791,4,4v28c0,2.209-1.791,4-4,4H10c-2.209,0-4-1.791-4-4V10z"/>
<g>
	<rect x="23" y="10" fill="#2196F3" width="2" height="28"/>
	<polyline fill="none" stroke="#2196F3" stroke-width="2" points="28,12 24.101,16 20,12 	"/>
	<polyline fill="none" stroke="#2196F3" stroke-width="2" points="20.051,36 23.95,32 28.051,36 	"/>
	<polyline fill="none" stroke="#2196F3" stroke-width="2" points="36.462,21.733 31.082,20.23 32.625,14.713 	"/>
	<polyline fill="none" stroke="#2196F3" stroke-width="2" points="11.589,26.267 16.969,27.77 15.425,33.287 	"/>
	<polyline fill="none" stroke="#2196F3" stroke-width="2" points="16.33,14 17.362,19.489 11.731,20.547 	"/>
	<polyline fill="none" stroke="#2196F3" stroke-width="2" points="31.402,33.547 30.369,28.059 36,27 	"/>
	
		<rect x="23.073" y="9.942" transform="matrix(0.5459 -0.8379 0.8379 0.5459 -9.1274 31.0425)" fill="#2196F3" width="2" height="28"/>
	
		<rect x="23.073" y="9.942" transform="matrix(0.5459 -0.8379 0.8379 0.5459 -9.1274 31.0425)" fill="#2196F3" width="2" height="28"/>
	
		<rect x="23.28" y="9.681" transform="matrix(-0.4864 -0.8737 0.8737 -0.4864 15.4007 56.4138)" fill="#2196F3" width="2" height="28"/>
</g>
</svg>
