<?xml version="1.0" encoding="utf-8"?>
<!-- Generator: Adobe Illustrator 15.0.0, SVG Export Plug-In . SVG Version: 6.00 Build 0)  -->
<!DOCTYPE svg PUBLIC "-//W3C//DTD SVG 1.1//EN" "http://www.w3.org/Graphics/SVG/1.1/DTD/svg11.dtd">
<svg version="1.1"  xmlns="http://www.w3.org/2000/svg" xmlns:xlink="http://www.w3.org/1999/xlink" x="0px" y="0px"
	 width="48px" height="48px" viewBox="0 0 48 48" enable-background="new 0 0 48 48" xml:space="preserve">
<g>
	<g>
		<path fill="#689F38" d="M33.96,40.971l0.124-1.123c0.057-0.402,0.105-0.807,0.182-1.188c0.131-0.771,0.321-1.532,0.523-2.282
			c0.432-1.495,0.995-2.938,1.693-4.299c0.693-1.362,1.512-2.647,2.434-3.837C39.841,27.057,40.854,25.943,42,25
			c-0.969,1.121-1.764,2.367-2.455,3.65c-0.688,1.287-1.248,2.629-1.676,3.998c-0.432,1.369-0.717,2.77-0.873,4.168
			c-0.064,0.703-0.121,1.399-0.118,2.1c-0.01,0.354,0.009,0.688,0.019,1.021l0.063,1.092L33.96,40.971z"/>
	</g>
	<g>
		<path fill="#689F38" d="M27.807,37.871c0.184-0.779,0.326-1.656,0.432-2.498c0.104-0.852,0.171-1.71,0.174-2.566
			c0.003-0.854-0.055-1.713-0.239-2.545C27.982,29.438,27.668,28.607,27,28c0.816,0.395,1.427,1.18,1.872,1.99
			c0.448,0.822,0.769,1.709,1.024,2.604c0.254,0.896,0.442,1.809,0.59,2.727c0.146,0.927,0.257,1.822,0.308,2.81L27.807,37.871z"/>
	</g>
</g>
<g>
	<path fill="#558B2F" d="M34.98,41.744c0.321-1.051,0.686-1.992,1.097-2.957c0.411-0.953,0.87-1.887,1.399-2.784
		c0.529-0.896,1.131-1.76,1.867-2.507C40.07,32.759,40.991,32.121,42,32c-0.941,0.373-1.584,1.143-2.063,1.957
		c-0.481,0.824-0.817,1.729-1.088,2.648c-0.268,0.922-0.463,1.867-0.613,2.817c-0.146,0.941-0.26,1.931-0.297,2.832L34.98,41.744z"
		/>
</g>
<g>
	<g>
		<path fill="#8BC34A" d="M31.962,41.082c-0.026-2.301,0.2-4.656,0.69-6.908c0.49-2.261,1.24-4.447,2.209-6.512
			c0.97-2.064,2.158-4.008,3.521-5.801C39.75,20.075,41.27,18.406,43,17c-1.559,1.589-2.863,3.396-3.997,5.281
			c-1.126,1.891-2.054,3.885-2.75,5.943c-0.696,2.057-1.163,4.176-1.379,6.307c-0.215,2.137-0.183,4.251,0.084,6.387L31.962,41.082z
			"/>
	</g>
	<path fill="#8BC34A" d="M40.207,9.335c-0.367-0.413-0.998-0.449-1.411-0.083c-6.913,6.145-8.172,19.25-8.349,25.852
		c0.012,0.071,0.027,0.144,0.039,0.215c0.146,0.929,0.257,1.822,0.308,2.811l-0.36-0.031c0.01,0.519,0.022,0.855,0.027,0.95
		C30.486,39.583,30.93,40,31.459,40c0.018,0,0.032,0,0.048-0.001c0.552-0.026,0.979-0.495,0.952-1.047
		c-0.01-0.205-0.871-20.617,7.665-28.205C40.537,10.38,40.574,9.749,40.207,9.335z"/>
</g>
<path fill="#42A5F5" d="M5,5c0,0,11,5,11,12S6,25,6,32c0,6,10,11,10,11h27c0,0-19-6-19-12c0-5,3-9,3-13C27,15,24,5,5,5z"/>
<g>
	<path fill="none" stroke="#90CAF9" stroke-width="2" stroke-linecap="round" d="M11,30c0,0-3,4,6,9"/>
	<path fill="none" stroke="#90CAF9" stroke-width="2" stroke-linecap="round" d="M22,19c-2,4-6,8-4,12"/>
	<path fill="none" stroke="#90CAF9" stroke-width="2" stroke-linecap="round" d="M22,37c0,0,2,2,5,3"/>
</g>
<path fill="#795548" d="M34.041,21c-0.218,0-0.438-0.035-0.656-0.107c-1.066-0.355-1.639-1.49-1.275-2.537
	c0.859-2.485,1.922-4.662,3.154-6.469c0.627-0.917,1.896-1.163,2.83-0.55c0.938,0.615,1.188,1.858,0.563,2.775
	c-1.035,1.517-1.938,3.377-2.684,5.528C35.686,20.475,34.891,21,34.041,21z"/>
</svg>
