<?xml version="1.0" encoding="utf-8"?>
<!-- Generator: Adobe Illustrator 18.1.1, SVG Export Plug-In . SVG Version: 6.00 Build 0)  -->
<svg version="1.0"  xmlns="http://www.w3.org/2000/svg" xmlns:xlink="http://www.w3.org/1999/xlink" x="0px" y="0px"
	 viewBox="0 0 48 48" enable-background="new 0 0 48 48" xml:space="preserve">
<g>
	<rect x="40" y="34" fill="#F44336" width="4" height="10"/>
	<rect x="34" y="29" fill="#F44336" width="4" height="15"/>
	<rect x="28" y="33" fill="#F44336" width="4" height="11"/>
	<rect x="22" y="25" fill="#F44336" width="4" height="19"/>
	<rect x="16" y="28" fill="#F44336" width="4" height="16"/>
	<rect x="10" y="24" fill="#F44336" width="4" height="20"/>
	<rect x="4" y="19" fill="#F44336" width="4" height="25"/>
</g>
<g>
	<polygon fill="#D32F2F" points="34,13.2 30,17.2 20,7.2 15,12.2 7.4,4.6 4.6,7.4 15,17.8 20,12.8 30,22.8 34,18.8 40.1,24.9 
		42.9,22.1 	"/>
	<polygon fill="#D32F2F" points="44,26 35,26 44,17 	"/>
</g>
</svg>
