<?xml version="1.0" encoding="iso-8859-1"?>
<!-- Generator: Adobe Illustrator 19.2.0, SVG Export Plug-In . SVG Version: 6.00 Build 0)  -->
<svg version="1.1"  xmlns="http://www.w3.org/2000/svg" xmlns:xlink="http://www.w3.org/1999/xlink" x="0px" y="0px"
	 viewBox="0 0 48 48" enable-background="new 0 0 48 48" xml:space="preserve">
<path fill="#B0BEC5" d="M37,42H5V32h32c2.8,0,5,2.2,5,5l0,0C42,39.8,39.8,42,37,42z"/>
<path fill="#37474F" d="M10,34c-1.7,0-3,1.3-3,3s1.3,3,3,3s3-1.3,3-3S11.7,34,10,34z M10,38c-0.6,0-1-0.4-1-1s0.4-1,1-1s1,0.4,1,1
	S10.6,38,10,38z"/>
<path fill="#37474F" d="M19,34c-1.7,0-3,1.3-3,3s1.3,3,3,3s3-1.3,3-3S20.7,34,19,34z M19,38c-0.6,0-1-0.4-1-1s0.4-1,1-1s1,0.4,1,1
	S19.6,38,19,38z"/>
<path fill="#37474F" d="M37,34c-1.7,0-3,1.3-3,3s1.3,3,3,3s3-1.3,3-3S38.7,34,37,34z M37,38c-0.6,0-1-0.4-1-1s0.4-1,1-1s1,0.4,1,1
	S37.6,38,37,38z"/>
<path fill="#37474F" d="M28,34c-1.7,0-3,1.3-3,3s1.3,3,3,3s3-1.3,3-3S29.7,34,28,34z M28,38c-0.6,0-1-0.4-1-1s0.4-1,1-1s1,0.4,1,1
	S28.6,38,28,38z"/>
<path fill="#FF9800" d="M35,31H11c-1.1,0-2-0.9-2-2V7c0-1.1,0.9-2,2-2h24c1.1,0,2,0.9,2,2v22C37,30.1,36.1,31,35,31z"/>
<path fill="#8A5100" d="M26.5,13h-7c-0.8,0-1.5-0.7-1.5-1.5l0,0c0-0.8,0.7-1.5,1.5-1.5h7c0.8,0,1.5,0.7,1.5,1.5l0,0
	C28,12.3,27.3,13,26.5,13z"/>
<path fill="#607D8B" d="M37,31H5v2h32c2.2,0,4,1.8,4,4s-1.8,4-4,4H5v2h32c3.3,0,6-2.7,6-6S40.3,31,37,31z"/>
</svg>
