<?xml version="1.0" encoding="utf-8"?>
<!-- Generator: Adobe Illustrator 15.0.0, SVG Export Plug-In . SVG Version: 6.00 Build 0)  -->
<!DOCTYPE svg PUBLIC "-//W3C//DTD SVG 1.1//EN" "http://www.w3.org/Graphics/SVG/1.1/DTD/svg11.dtd">
<svg version="1.1"  xmlns="http://www.w3.org/2000/svg" xmlns:xlink="http://www.w3.org/1999/xlink" x="0px" y="0px"
	 width="48px" height="48px" viewBox="0 0 48 48" enable-background="new 0 0 48 48" xml:space="preserve">
<path fill="#673AB7" d="M7.128,20C7.051,20.657,7,21.322,7,22c0,9.389,7.611,17,17,17s17-7.611,17-17c0-0.678-0.051-1.343-0.128-2
	H7.128z"/>
<path fill="#42257A" d="M24,23c-4.418,0-8,3.582-8,8v5.998C18.385,38.272,21.107,39,24,39c2.894,0,5.615-0.728,8-2.002V31
	C32,26.582,28.418,23,24,23z"/>
<path fill="#B0BEC5" d="M3,9c0,7.998,2,12,2,12h38c0,0,2-4,2-12H3z"/>
<path fill="#78909C" d="M44.715,14c0.074-0.625,0.137-1.29,0.185-1.998H3.101C3.148,12.71,3.211,13.375,3.285,14H44.715z"/>
<circle fill="#B388FF" cx="24" cy="31" r="4"/>
<path fill="none" stroke="#CEB8FF" stroke-width="2" stroke-linecap="round" d="M22.586,29.586c0.781-0.781,2.048-0.78,2.828,0"/>
</svg>
