<?xml version="1.0" encoding="utf-8"?>
<!-- Generator: Adobe Illustrator 15.0.0, SVG Export Plug-In . SVG Version: 6.00 Build 0)  -->
<!DOCTYPE svg PUBLIC "-//W3C//DTD SVG 1.1//EN" "http://www.w3.org/Graphics/SVG/1.1/DTD/svg11.dtd">
<svg version="1.1"  xmlns="http://www.w3.org/2000/svg" xmlns:xlink="http://www.w3.org/1999/xlink" x="0px" y="0px"
	 width="48px" height="48px" viewBox="0 0 48 48" enable-background="new 0 0 48 48" xml:space="preserve">
<g>
	<path fill="none" stroke="#FFB74D" stroke-width="4" stroke-linecap="square" stroke-linejoin="round" stroke-miterlimit="10" d="
		M26.997,7c0,0-5.663,7.51-5.663,11.336c0,3.822,5.663,7.505,5.663,11.328C26.997,33.49,21.334,41,21.334,41"/>
	<path fill="none" stroke="#FFB74D" stroke-width="4" stroke-linecap="square" stroke-linejoin="round" stroke-miterlimit="10" d="
		M38.334,7c0,0-5.668,7.51-5.668,11.336c0,3.822,5.668,7.505,5.668,11.328C38.334,33.49,32.666,41,32.666,41"/>
	<path fill="none" stroke="#FFB74D" stroke-width="4" stroke-linecap="square" stroke-linejoin="round" stroke-miterlimit="10" d="
		M15.666,7c0,0-5.668,7.51-5.668,11.336c0,3.822,5.668,7.505,5.668,11.328C15.666,33.49,9.998,41,9.998,41"/>
</g>
</svg>
