<?xml version="1.0" encoding="utf-8"?>
<!-- Generator: Adobe Illustrator 19.1.1, SVG Export Plug-In . SVG Version: 6.00 Build 0)  -->
<svg version="1.1"  xmlns="http://www.w3.org/2000/svg" xmlns:xlink="http://www.w3.org/1999/xlink" x="0px" y="0px"
	 viewBox="0 0 48 48" enable-background="new 0 0 48 48" xml:space="preserve">
<path fill="#BCAAA4" d="M9,8.5C9,9.3,8.3,10,7.5,10h-3C3.7,10,3,9.3,3,8.5l0,0C3,7.7,3.7,7,4.5,7h3C8.3,7,9,7.7,9,8.5L9,8.5z
	 M17,8.5C17,7.7,16.3,7,15.5,7h-3C11.7,7,11,7.7,11,8.5l0,0c0,0.8,0.7,1.5,1.5,1.5h3C16.3,10,17,9.3,17,8.5L17,8.5z M25,8.5
	C25,7.7,24.3,7,23.5,7h-3C19.7,7,19,7.7,19,8.5l0,0c0,0.8,0.7,1.5,1.5,1.5h3C24.3,10,25,9.3,25,8.5L25,8.5z M33,8.5
	C33,7.7,32.3,7,31.5,7h-3C27.7,7,27,7.7,27,8.5l0,0c0,0.8,0.7,1.5,1.5,1.5h3C32.3,10,33,9.3,33,8.5L33,8.5z M41,8.5
	C41,7.7,40.3,7,39.5,7h-3C35.7,7,35,7.7,35,8.5l0,0c0,0.8,0.7,1.5,1.5,1.5h3C40.3,10,41,9.3,41,8.5L41,8.5z"/>
<path fill="#A1887F" d="M13,14.5c0,0.8-0.7,1.5-1.5,1.5h-3C7.7,16,7,15.3,7,14.5l0,0C7,13.7,7.7,13,8.5,13h3
	C12.3,13,13,13.7,13,14.5L13,14.5z M21,14.5c0-0.8-0.7-1.5-1.5-1.5h-3c-0.8,0-1.5,0.7-1.5,1.5l0,0c0,0.8,0.7,1.5,1.5,1.5h3
	C20.3,16,21,15.3,21,14.5L21,14.5z M29,14.5c0-0.8-0.7-1.5-1.5-1.5h-3c-0.8,0-1.5,0.7-1.5,1.5l0,0c0,0.8,0.7,1.5,1.5,1.5h3
	C28.3,16,29,15.3,29,14.5L29,14.5z M37,14.5c0-0.8-0.7-1.5-1.5-1.5h-3c-0.8,0-1.5,0.7-1.5,1.5l0,0c0,0.8,0.7,1.5,1.5,1.5h3
	C36.3,16,37,15.3,37,14.5L37,14.5z M45,14.5c0-0.8-0.7-1.5-1.5-1.5h-3c-0.8,0-1.5,0.7-1.5,1.5l0,0c0,0.8,0.7,1.5,1.5,1.5h3
	C44.3,16,45,15.3,45,14.5L45,14.5z"/>
<path fill="#8D6E63" d="M9,20.5C9,21.3,8.3,22,7.5,22h-3C3.7,22,3,21.3,3,20.5l0,0C3,19.7,3.7,19,4.5,19h3C8.3,19,9,19.7,9,20.5
	L9,20.5z M17,20.5c0-0.8-0.7-1.5-1.5-1.5h-3c-0.8,0-1.5,0.7-1.5,1.5l0,0c0,0.8,0.7,1.5,1.5,1.5h3C16.3,22,17,21.3,17,20.5L17,20.5z
	 M25,20.5c0-0.8-0.7-1.5-1.5-1.5h-3c-0.8,0-1.5,0.7-1.5,1.5l0,0c0,0.8,0.7,1.5,1.5,1.5h3C24.3,22,25,21.3,25,20.5L25,20.5z M33,20.5
	c0-0.8-0.7-1.5-1.5-1.5h-3c-0.8,0-1.5,0.7-1.5,1.5l0,0c0,0.8,0.7,1.5,1.5,1.5h3C32.3,22,33,21.3,33,20.5L33,20.5z M41,20.5
	c0-0.8-0.7-1.5-1.5-1.5h-3c-0.8,0-1.5,0.7-1.5,1.5l0,0c0,0.8,0.7,1.5,1.5,1.5h3C40.3,22,41,21.3,41,20.5L41,20.5z"/>
<path fill="#6D4C41" d="M13,26.5c0,0.8-0.7,1.5-1.5,1.5h-3C7.7,28,7,27.3,7,26.5l0,0C7,25.7,7.7,25,8.5,25h3
	C12.3,25,13,25.7,13,26.5L13,26.5z M21,26.5c0-0.8-0.7-1.5-1.5-1.5h-3c-0.8,0-1.5,0.7-1.5,1.5l0,0c0,0.8,0.7,1.5,1.5,1.5h3
	C20.3,28,21,27.3,21,26.5L21,26.5z M29,26.5c0-0.8-0.7-1.5-1.5-1.5h-3c-0.8,0-1.5,0.7-1.5,1.5l0,0c0,0.8,0.7,1.5,1.5,1.5h3
	C28.3,28,29,27.3,29,26.5L29,26.5z M37,26.5c0-0.8-0.7-1.5-1.5-1.5h-3c-0.8,0-1.5,0.7-1.5,1.5l0,0c0,0.8,0.7,1.5,1.5,1.5h3
	C36.3,28,37,27.3,37,26.5L37,26.5z M45,26.5c0-0.8-0.7-1.5-1.5-1.5h-3c-0.8,0-1.5,0.7-1.5,1.5l0,0c0,0.8,0.7,1.5,1.5,1.5h3
	C44.3,28,45,27.3,45,26.5L45,26.5z"/>
<path fill="#5D4037" d="M9,32.5C9,33.3,8.3,34,7.5,34h-3C3.7,34,3,33.3,3,32.5l0,0C3,31.7,3.7,31,4.5,31h3C8.3,31,9,31.7,9,32.5
	L9,32.5z M17,32.5c0-0.8-0.7-1.5-1.5-1.5h-3c-0.8,0-1.5,0.7-1.5,1.5l0,0c0,0.8,0.7,1.5,1.5,1.5h3C16.3,34,17,33.3,17,32.5L17,32.5z
	 M25,32.5c0-0.8-0.7-1.5-1.5-1.5h-3c-0.8,0-1.5,0.7-1.5,1.5l0,0c0,0.8,0.7,1.5,1.5,1.5h3C24.3,34,25,33.3,25,32.5L25,32.5z M33,32.5
	c0-0.8-0.7-1.5-1.5-1.5h-3c-0.8,0-1.5,0.7-1.5,1.5l0,0c0,0.8,0.7,1.5,1.5,1.5h3C32.3,34,33,33.3,33,32.5L33,32.5z M41,32.5
	c0-0.8-0.7-1.5-1.5-1.5h-3c-0.8,0-1.5,0.7-1.5,1.5l0,0c0,0.8,0.7,1.5,1.5,1.5h3C40.3,34,41,33.3,41,32.5L41,32.5z"/>
<path fill="#4E342E" d="M13,38.5c0,0.8-0.7,1.5-1.5,1.5h-3C7.7,40,7,39.3,7,38.5l0,0C7,37.7,7.7,37,8.5,37h3
	C12.3,37,13,37.7,13,38.5L13,38.5z M21,38.5c0-0.8-0.7-1.5-1.5-1.5h-3c-0.8,0-1.5,0.7-1.5,1.5l0,0c0,0.8,0.7,1.5,1.5,1.5h3
	C20.3,40,21,39.3,21,38.5L21,38.5z M29,38.5c0-0.8-0.7-1.5-1.5-1.5h-3c-0.8,0-1.5,0.7-1.5,1.5l0,0c0,0.8,0.7,1.5,1.5,1.5h3
	C28.3,40,29,39.3,29,38.5L29,38.5z M37,38.5c0-0.8-0.7-1.5-1.5-1.5h-3c-0.8,0-1.5,0.7-1.5,1.5l0,0c0,0.8,0.7,1.5,1.5,1.5h3
	C36.3,40,37,39.3,37,38.5L37,38.5z M45,38.5c0-0.8-0.7-1.5-1.5-1.5h-3c-0.8,0-1.5,0.7-1.5,1.5l0,0c0,0.8,0.7,1.5,1.5,1.5h3
	C44.3,40,45,39.3,45,38.5L45,38.5z"/>
</svg>
