<?xml version="1.0" encoding="utf-8"?>
<!-- Generator: Adobe Illustrator 15.0.0, SVG Export Plug-In . SVG Version: 6.00 Build 0)  -->
<!DOCTYPE svg PUBLIC "-//W3C//DTD SVG 1.1//EN" "http://www.w3.org/Graphics/SVG/1.1/DTD/svg11.dtd">
<svg version="1.1"  xmlns="http://www.w3.org/2000/svg" xmlns:xlink="http://www.w3.org/1999/xlink" x="0px" y="0px"
	 width="48px" height="48px" viewBox="0 0 48 48" enable-background="new 0 0 48 48" xml:space="preserve">
<path fill="#455A64" d="M43,9H5c-1.104,0-2,0.896-2,2v14h42V11C45,9.896,44.104,9,43,9z"/>
<rect x="7" y="13" fill="#CDDC39" width="18" height="8"/>
<g>
	<rect x="9" y="14" fill="#33691E" width="2" height="6"/>
	<rect x="18" y="14" fill="#33691E" width="2" height="6"/>
	<rect x="15" y="16" fill="#33691E" width="2" height="4"/>
	<rect x="12" y="18" fill="#33691E" width="2" height="2"/>
	<rect x="21" y="17" fill="#33691E" width="2" height="3"/>
</g>
<g>
	<path fill="#CFD8DC" d="M3,38c0,1.104,0.896,2,2,2h38c1.104,0,2-0.896,2-2V25H3V38z"/>
	<circle fill="#CFD8DC" cx="32" cy="17" r="2"/>
	<circle fill="#CFD8DC" cx="39" cy="17" r="2"/>
</g>
<g>
	<rect x="8" y="25" fill="#263238" width="4" height="10"/>
	<rect x="14" y="25" fill="#263238" width="4" height="10"/>
	<rect x="20" y="25" fill="#263238" width="4" height="10"/>
	<rect x="30" y="25" fill="#263238" width="4" height="10"/>
	<rect x="36" y="25" fill="#263238" width="4" height="10"/>
</g>
</svg>
