<?xml version="1.0" encoding="utf-8"?>
<!-- Generator: Adobe Illustrator 20.1.0, SVG Export Plug-In . SVG Version: 6.00 Build 0)  -->
<svg version="1.1"  xmlns="http://www.w3.org/2000/svg" xmlns:xlink="http://www.w3.org/1999/xlink" x="0px" y="0px"
	 viewBox="0 0 48 48" enable-background="new 0 0 48 48" xml:space="preserve">
<polyline fill="none" stroke="#616161" stroke-linecap="round" stroke-linejoin="bevel" stroke-miterlimit="10" points="4.8,36.4 
	4.9,33.9 9.9,33.3 "/>
<g>
	<path fill="#F57F17" d="M2.9,45.8L2.9,45.8c-1.1-0.8,0.2-2.1,1-3.1L38.8,3l0.7,0.6L5.6,44.3C4.8,45.3,4,46.6,2.9,45.8z"/>
</g>
<path fill="#616161" stroke="#78909C" stroke-linejoin="bevel" stroke-miterlimit="10" d="M10.9,33.2c0.1,1.1-0.8,2.1-1.9,2.1
	c-1.1,0-2.1-0.8-2.1-2c-0.1-1.1,0.8-2.1,1.9-2.1S10.8,32.1,10.9,33.2z"/>
<path fill="none" stroke="#78909C" stroke-linecap="round" stroke-linejoin="round" stroke-miterlimit="10" d="M32.1,34.8
	c0,0-0.1,2.3-0.1,2.9c0.8-0.3,1.8,0.2,2,1s-0.2,1.8-1,2c-0.8,0.3-1.8-0.2-2-1"/>
<path fill="none" stroke="#78909C" stroke-linecap="round" stroke-linejoin="round" stroke-miterlimit="10" d="M7.5,31.7L38.1,2.5
	c2.5-1.9,8.1,2.5,6.6,9.3c-2,9-13.9,6.8-12.6,20"/>
<line fill="none" stroke="#616161" stroke-linecap="round" stroke-linejoin="bevel" stroke-miterlimit="10" x1="37.1" y1="2.7" x2="38.2" y2="3.8"/>
<line fill="none" stroke="#616161" stroke-linecap="round" stroke-linejoin="bevel" stroke-miterlimit="10" x1="11.9" y1="27.1" x2="14.9" y2="30.2"/>
<line fill="none" stroke="#616161" stroke-linecap="round" stroke-linejoin="bevel" stroke-miterlimit="10" x1="24.8" y1="14.3" x2="27" y2="16.5"/>
<path fill="#BDBDBD" d="M32.1,35.8c1.1,0,2-1.1,2-2.6h-4.1C30.1,34.7,31,35.8,32.1,35.8z"/>
<path fill="#FF3D00" d="M32.1,30.7c-1.1,0-2,1.1-2,2.6h4.1C34.1,31.9,33.2,30.7,32.1,30.7z"/>
</svg>
