<?xml version="1.0" encoding="iso-8859-1"?>
<!-- Generator: Adobe Illustrator 19.1.1, SVG Export Plug-In . SVG Version: 6.00 Build 0)  -->
<svg version="1.1"  xmlns="http://www.w3.org/2000/svg" xmlns:xlink="http://www.w3.org/1999/xlink" x="0px" y="0px"
	 viewBox="0 0 48 48" style="enable-background:new 0 0 48 48;" xml:space="preserve">
<line style="fill:none;stroke:#455A64;stroke-width:2;stroke-linecap:round;" x1="24" y1="4" x2="24" y2="47"/>
<g>
	<path style="fill:#546E7A;" d="M26,2l-2,45L22,2c-0.049-1.105,0.807-2.04,1.911-2.089c1.105-0.049,2.04,0.807,2.089,1.911
		C26.003,1.881,26.002,1.943,26,2z"/>
</g>
<path style="fill:#E0DDDC;" d="M13,21c-0.001,0.06-0.005,0.113-0.005,0.176C12.995,28.455,19,40,24,40s11.005-11.545,11.005-18.824
	c0-0.063-0.004-0.115-0.005-0.176H13z"/>
<path style="fill:#546E7A;" d="M12.995,21.176c0,0.582,0.042,1.195,0.116,1.824h21.777c0.074-0.629,0.116-1.242,0.116-1.824
	c0-1.098-0.098-2.156-0.27-3.176H13.265C13.093,19.02,12.995,20.078,12.995,21.176z"/>
<path style="fill:#FF754C;" d="M34.735,18C33.765,12.26,30.098,8,24,8s-9.765,4.26-10.735,10H34.735z"/>
</svg>
