<?xml version="1.0" encoding="utf-8"?>
<!-- Generator: Adobe Illustrator 15.0.0, SVG Export Plug-In . SVG Version: 6.00 Build 0)  -->
<!DOCTYPE svg PUBLIC "-//W3C//DTD SVG 1.1//EN" "http://www.w3.org/Graphics/SVG/1.1/DTD/svg11.dtd">
<svg version="1.1"  xmlns="http://www.w3.org/2000/svg" xmlns:xlink="http://www.w3.org/1999/xlink" x="0px" y="0px"
	 width="48px" height="48px" viewBox="0 0 48 48" enable-background="new 0 0 48 48" xml:space="preserve">
<g>
	<path fill="#FFC107" d="M42.292,18.436c-7.193,7.194-15.074,10.157-18.979,6.252c-3.906-3.905-0.942-11.786,6.252-18.979
		L42.292,18.436z"/>
	
		<rect x="14.664" y="15.335" transform="matrix(0.7071 0.7072 -0.7072 0.7071 25.7978 -5.6054)" fill="#FFC107" width="10.001" height="26"/>
</g>
<g>
	<path fill="#546E7A" d="M12.763,43.691c-0.391,0.391-1.023,0.391-1.414,0L4.277,36.62c-0.391-0.391-0.391-1.023,0-1.414
		l2.928-2.929c0.392-0.391,1.023-0.391,1.414,0l7.071,7.072c0.392,0.391,0.392,1.022,0,1.414L12.763,43.691z"/>
	<path fill="#546E7A" d="M40.436,21.707c-0.391,0.391-1.023,0.391-1.414,0L26.293,8.979c-0.391-0.391-0.391-1.023,0-1.414
		l3.271-3.271c0.391-0.392,1.023-0.392,1.414,0l12.728,12.728c0.392,0.391,0.392,1.023,0,1.414L40.436,21.707z"/>
</g>
<g>
	
		<rect x="8.986" y="34.901" transform="matrix(0.7071 0.7071 -0.7071 0.7071 29.7798 4.0622)" fill="#37474F" width="2" height="6.154"/>
	
		<rect x="11.815" y="37.73" transform="matrix(0.7071 0.7071 -0.7071 0.7071 32.6081 2.8905)" fill="#37474F" width="2" height="6.153"/>
	
		<rect x="6.158" y="32.073" transform="matrix(0.7071 0.7071 -0.7071 0.7071 26.9508 5.2338)" fill="#37474F" width="2" height="6.153"/>
	
		<rect x="34" y="9.687" transform="matrix(0.7071 0.7071 -0.7071 0.7071 19.4433 -20.9413)" fill="#37474F" width="2" height="6.626"/>
	
		<rect x="36.829" y="12.515" transform="matrix(0.7071 0.7071 -0.7071 0.7071 22.2719 -22.1129)" fill="#37474F" width="2" height="6.626"/>
	
		<rect x="39.656" y="15.344" transform="matrix(0.7069 0.7074 -0.7074 0.7069 25.1149 -23.2896)" fill="#37474F" width="2" height="6.626"/>
	
		<rect x="28.343" y="4.03" transform="matrix(0.7074 0.7069 -0.7069 0.7074 13.778 -18.5927)" fill="#37474F" width="2" height="6.626"/>
	
		<rect x="31.171" y="6.859" transform="matrix(0.7071 0.7071 -0.7071 0.7071 16.615 -19.7695)" fill="#37474F" width="2" height="6.625"/>
</g>
<path fill="#C98C06" d="M28.132,19.868c-1.156-1.157-3.039-1.157-4.195,0l-5.068,5.069c-1.157,1.156-1.157,3.038,0,4.194
	c1.156,1.157,3.038,1.157,4.194,0l5.069-5.069C29.289,22.906,29.289,21.025,28.132,19.868L28.132,19.868z"/>
<path fill="#263238" d="M25.347,25.426c-0.767,0.766-2.007,0.766-2.772,0l0,0c-0.766-0.766-0.766-2.006,0-2.772l2.079-2.081
	c0.767-0.764,2.009-0.764,2.774,0l0,0c0.764,0.766,0.764,2.008,0,2.774L25.347,25.426z"/>
</svg>
