<?xml version="1.0" encoding="utf-8"?>
<!-- Generator: Adobe Illustrator 15.0.0, SVG Export Plug-In . SVG Version: 6.00 Build 0)  -->
<!DOCTYPE svg PUBLIC "-//W3C//DTD SVG 1.1//EN" "http://www.w3.org/Graphics/SVG/1.1/DTD/svg11.dtd">
<svg version="1.1"  xmlns="http://www.w3.org/2000/svg" xmlns:xlink="http://www.w3.org/1999/xlink" x="0px" y="0px"
	 width="48px" height="48px" viewBox="0 0 48 48" enable-background="new 0 0 48 48" xml:space="preserve">
<path fill="#1565C0" d="M37,43c0,0-2.417-2-5.5-2S26,43,26,43c-1-1.999-5-3.999-5-3.999c0-11,6-22,6-27h9c0,5,6,16,6,27
	C42,39.001,38,40.999,37,43z"/>
<path fill="#37474F" d="M36,17.5c0,2.485-1.515,6.5-4,6.5h-1c-2.485,0-4-4.015-4-6.5v-8C27,7.015,29.015,5,31.5,5l0,0
	C33.985,5,36,7.015,36,9.5V17.5z"/>
<path d="M31.5,7C32.879,7,34,8.121,34,9.5v4c0,1.379-1.121,2.5-2.5,2.5S29,14.879,29,13.5v-4C29,8.121,30.121,7,31.5,7"/>
<g>
	<path fill="#0D47A1" d="M26.334,26.167c-2.01-0.144-3.03,10.958-3.274,14.041C24.201,40.963,25.49,41.98,26,43
		C26,43,28.998,26.357,26.334,26.167z"/>
	<path fill="#0D47A1" d="M36.5,26.167c-2.569,0.184,0.126,15.661,0.322,16.766c0.063,0.023,0.099,0.036,0.125,0.046l0.073-0.013
		c0.497-0.962,1.675-1.919,2.763-2.652C39.554,37.379,38.533,26.021,36.5,26.167z"/>
</g>
<path fill="#42A5F5" d="M22,43c0,0-2.417-2-5.5-2S11,43,11,43c-1-1.999-5-3.999-5-3.999c0-11,6-22,6-27h9c0,5,6,16,6,27
	C27,39.001,23,40.999,22,43z"/>
<path fill="#455A64" d="M21,17.5c0,2.485-1.515,6.5-4,6.5h-1c-2.485,0-4-4.015-4-6.5v-8C12,7.015,14.015,5,16.5,5l0,0
	C18.985,5,21,7.015,21,9.5V17.5z"/>
<path fill="#263238" d="M16.5,7C17.879,7,19,8.121,19,9.5v4c0,1.379-1.121,2.5-2.5,2.5S14,14.879,14,13.5v-4
	C14,8.121,15.121,7,16.5,7"/>
<g>
	<path fill="#1E88E5" d="M11.334,26.167c-2.01-0.144-3.03,10.958-3.274,14.041C9.201,40.963,10.49,41.98,11,43
		C11,43,13.998,26.357,11.334,26.167z"/>
	<path fill="#1E88E5" d="M21.5,26.167c-2.569,0.184,0.126,15.661,0.322,16.766c0.063,0.023,0.099,0.036,0.125,0.046l0.073-0.013
		c0.497-0.962,1.675-1.919,2.763-2.652C24.554,37.379,23.533,26.021,21.5,26.167z"/>
</g>
</svg>
