<?xml version="1.0" encoding="utf-8"?>
<!-- Generator: Adobe Illustrator 15.0.0, SVG Export Plug-In . SVG Version: 6.00 Build 0)  -->
<!DOCTYPE svg PUBLIC "-//W3C//DTD SVG 1.1//EN" "http://www.w3.org/Graphics/SVG/1.1/DTD/svg11.dtd">
<svg version="1.1"  xmlns="http://www.w3.org/2000/svg" xmlns:xlink="http://www.w3.org/1999/xlink" x="0px" y="0px"
	 width="48px" height="48px" viewBox="0 0 48 48" enable-background="new 0 0 48 48" xml:space="preserve">
<path fill="#673AB7" d="M6,10c0-2.209,1.791-4,4-4h28c2.209,0,4,1.791,4,4v28c0,2.209-1.791,4-4,4H10c-2.209,0-4-1.791-4-4V10z"/>
<g>
	<path fill="#FFF59D" d="M29.336,13.82C31.58,15.834,33,18.748,33,22c0,6.074-4.926,11-11,11c-3.252,0-6.166-1.42-8.179-3.664
		C15.561,33.817,19.904,37,25,37c6.627,0,12-5.373,12-12C37,19.904,33.817,15.561,29.336,13.82z"/>
	<polygon fill="#FFF59D" points="21,19 20,14 21,9 22,14 	"/>
	<polygon fill="#FFF59D" points="25.271,11.4 21.521,14.854 16.729,16.6 20.48,13.146 	"/>
	<polygon fill="#FFF59D" points="25.139,16.807 20.439,14.828 16.863,11.194 21.562,13.174 	"/>
	<polygon fill="#FFF59D" points="12.99,26 12,22 12.99,18 14,22 	"/>
	<polygon fill="#FFF59D" points="9.641,24.172 12.455,21.162 16.348,19.811 13.545,22.838 	"/>
	<polygon fill="#FFF59D" points="9.53,20.01 13.494,21.132 16.479,23.973 12.504,22.868 	"/>
</g>
<path fill="#BA68C8" d="M41,40c0-1.104-0.896-2-2-2H29c-1.104,0-2-0.896-2-2s0.896-2,2-2h5c1.104,0,2-0.896,2-2s-0.896-2-2-2h-6h-9
	c-1.104,0-2-0.896-2-2s0.896-2,2-2h2c1.104,0,2-0.896,2-2s-0.896-2-2-2H6v16c0,2.209,1.791,4,4,4h28
	c1.094,0,2.084-0.441,2.806-1.152C40.927,40.59,41,40.305,41,40z"/>
<g>
	<polygon fill="#D2A4DD" points="12.312,23.26 12.99,26 13.697,23.199 13.029,23.014 	"/>
	<polygon fill="#D2A4DD" points="11.602,22.001 11.638,22.036 9.641,24.172 12.312,23.26 13.697,23.199 16.479,23.973 
		14.407,22.001 	"/>
	<path fill="#D2A4DD" d="M25,37c0.74,0,1.463-0.077,2.166-0.205C27.061,36.551,27,36.283,27,36c0-1.104,0.896-2,2-2h3.918
		c1.051-0.926,1.946-2.023,2.622-3.262C35.174,30.291,34.623,30,34,30h-4.467c-1.969,1.855-4.615,3-7.533,3
		c-3.252,0-6.166-1.42-8.179-3.664C15.561,33.817,19.904,37,25,37z"/>
</g>
</svg>
