<?xml version="1.0" encoding="utf-8"?>
<!-- Generator: Adobe Illustrator 15.0.0, SVG Export Plug-In . SVG Version: 6.00 Build 0)  -->
<!DOCTYPE svg PUBLIC "-//W3C//DTD SVG 1.1//EN" "http://www.w3.org/Graphics/SVG/1.1/DTD/svg11.dtd">
<svg version="1.1"  xmlns="http://www.w3.org/2000/svg" xmlns:xlink="http://www.w3.org/1999/xlink" x="0px" y="0px"
	 width="48px" height="48px" viewBox="0 0 48 48" enable-background="new 0 0 48 48" xml:space="preserve">
<g>
	<path fill="#63590F" d="M30,44c-2.757,0-5-2.329-5-5.192v-4.615C25,31.329,27.243,29,30,29s5,2.329,5,5.192v4.615
		C35,41.671,32.757,44,30,44z M30,32c-1.103,0-2,0.983-2,2.192v4.615C28,40.017,28.897,41,30,41s2-0.983,2-2.192v-4.615
		C32,32.983,31.103,32,30,32z"/>
	<path fill="#63590F" d="M17,44c-2.757,0-5-2.329-5-5.192v-4.615C12,31.329,14.243,29,17,29s5,2.329,5,5.192v4.615
		C22,41.671,19.757,44,17,44z M17,32c-1.103,0-2,0.983-2,2.192v4.615C15,40.017,15.897,41,17,41s2-0.983,2-2.192v-4.615
		C19,32.983,18.103,32,17,32z"/>
	<path fill="#63590F" d="M24,36c0,0-1,1-7,1s-7-1-7-1L9,5c0,0,2-2,8-2s8,2,8,2L24,36z"/>
	<path fill="#63590F" d="M37,36c0,0-1,1-7,1s-7-1-7-1L22,5c0,0,2-2,8-2s8,2,8,2L37,36z"/>
</g>
<g>
	<path fill="#827717" d="M17,3c-1.612,0-2.927,0.146-4,0.357v33.443C13.991,36.917,15.286,37,17,37c6,0,7-1,7-1l1-31C25,5,23,3,17,3
		z"/>
	<path fill="#827717" d="M30,3c-1.958,0-3.482,0.214-4.658,0.501c0.246-0.06,0.507-0.117,0.785-0.169
		c0.134,0.107,0.23,0.197,0.287,0.254l0.613,0.612l-0.028,0.866l-1,31l-0.023,0.733C26.97,36.916,28.272,37,30,37c6,0,7-1,7-1l1-31
		C38,5,36,3,30,3z"/>
</g>
<g>
	<circle fill="#FFD600" cx="16.5" cy="7.5" r="1.5"/>
	<circle fill="#FFD600" cx="16.5" cy="13.5" r="1.5"/>
	<circle fill="#FFD600" cx="16.5" cy="19.5" r="1.5"/>
	<circle fill="#FFD600" cx="16.5" cy="25.5" r="1.5"/>
	<circle fill="#FFD600" cx="16.5" cy="31.5" r="1.5"/>
</g>
</svg>
