<?xml version="1.0" encoding="utf-8"?>
<!-- Generator: Adobe Illustrator 15.0.0, SVG Export Plug-In . SVG Version: 6.00 Build 0)  -->
<!DOCTYPE svg PUBLIC "-//W3C//DTD SVG 1.1//EN" "http://www.w3.org/Graphics/SVG/1.1/DTD/svg11.dtd">
<svg version="1.1"  xmlns="http://www.w3.org/2000/svg" xmlns:xlink="http://www.w3.org/1999/xlink" x="0px" y="0px"
	 width="48px" height="48px" viewBox="0 0 48 48" enable-background="new 0 0 48 48" xml:space="preserve">
<path fill="#2196F3" d="M45.047,24c0,11.691-9.525,21-21,21c-11.474,0-21-9.309-21-21s9.309-21,21-21
	C35.738,3,45.047,12.309,45.047,24"/>
<g>
	<path fill="#CDDC39" d="M25.277,32.726c-0.449-0.163-1.748-1.671-1.896-1.808s-0.812-0.318-1.12-0.259s-1.749,0.96-2.154,1.033
		s-0.754-0.263-0.947-0.774s-0.527-2.582-0.258-3.102s3.106-2.498,3.703-2.498s1.021,1.777,1.637,1.894s0.342-1.573,1.12-1.549
		c0.777,0.024,1.463,2.583,1.463,2.583s0.848,1.289,0.776,1.725s-0.965,2.262-1.206,2.497
		C26.156,32.703,25.727,32.889,25.277,32.726z"/>
	<path fill="#CDDC39" d="M31.559,34.005c-0.316,0-0.627-0.148-0.82-0.427c-0.316-0.451-0.208-1.07,0.24-1.389
		c-0.075-0.091-0.166-0.19-0.248-0.27c-0.398-0.382-0.414-1.014-0.033-1.413c0.381-0.397,1.013-0.414,1.412-0.036
		c0.479,0.455,1.039,1.145,0.992,1.85c-0.053,0.803-0.757,1.354-0.972,1.504C31.955,33.946,31.756,34.005,31.559,34.005z"/>
	<path fill="#CDDC39" d="M28.316,37.179c-0.262,0-0.523-0.103-0.719-0.306c-0.384-0.397-0.373-1.03,0.025-1.414l1.886-1.819
		c0.397-0.385,1.03-0.373,1.414,0.025c0.384,0.397,0.372,1.03-0.025,1.414l-1.886,1.819C28.816,37.086,28.566,37.179,28.316,37.179z
		"/>
	<path fill="#CDDC39" d="M7.417,28.862c-0.02-0.575,0.895-2.695,0.558-2.948s-0.601,0.315-0.827,0.15s-1.461-1.647-1.573-1.921
		s-0.429-1.311-0.094-1.375s1.853,1.877,2.136,2.039s0.529,0.025,0.827-0.151s0.681-1.302,0.467-1.524s-2.078-0.882-1.908-1.164
		s1.895,0.104,1.895,0.104s0.998-0.009,1.457,0.215s0.999,1.589,1.368,1.908s1.13,0.785,1.274,0.531s-0.352-0.996-0.345-1.31
		s0.764-1.666,1.136-1.767s0.982,0.538,1.247,0.939s1.172,2.141,1.559,2.123s0.613-1.566,0.43-1.912S16,22,16.008,21.467
		s0.742,0.096,1.109-0.094s1.091-2.103,0.89-2.7s-0.861-0.881-0.86-1.24s1.769-0.87,2.206-1.248s0.646-1.372,0.479-1.728
		s-0.791-0.645-0.797-1.257s2.465-2.096,2.76-1.928s-0.087,2.27,0.358,2.374s0.388-1.834,0.627-2.433s2.344-1.506,2.37-1.891
		s-1.234-0.615-1.884-0.57s-1.579,0.56-1.73,0.521s-0.39-0.211-0.534-0.259s-1.835,0.131-2.203,0.246s-1.132,0.697-1.493,0.66
		s-0.202-0.463-0.397-0.495s-0.887,0.449-1.418,0.438s-1.053-0.76-1.904-0.899c-0.325-0.053-1.006,0.155-1.723,0.432
		C7.674,12.885,5,18.135,5,24c0,3.454,0.941,6.687,2.559,9.48c0.105-0.148,0.19-0.303,0.222-0.448
		C7.895,32.502,7.438,29.438,7.417,28.862z"/>
	<path fill="#CDDC39" d="M42.414,19.404c-0.228-0.911-0.505-1.802-0.859-2.656c-0.692-0.007-1.518-0.022-1.594-0.056
		c-0.132-0.058-0.883-0.349-0.754-0.809c0.12-0.431,1.302-0.368,1.662-0.588c-0.892-1.721-2.028-3.294-3.381-4.659
		c-0.256,0.32-0.573,0.65-0.817,0.688c-0.485,0.075-2.28-0.778-2.58-0.834s-1.231,0.353-1.696,0.344
		c-0.464-0.009-1.207-0.866-1.467-1c-0.259-0.134-1.209-0.194-1.454-0.059s-0.646,0.958-0.511,1.398
		c0.134,0.44,0.537,0.903,0.492,1.135s-0.986,0.69-1.038,1.121s1.942-0.728,2.47-0.732c0.528-0.005,0.941,0.005,1.139,0.241
		c0.196,0.236,1.678,2.701,1.827,3.368s-0.009,1.911,0.157,2.381s0.958,1.395,0.958,1.395l1.674,3.193c0,0,1.155,1.396,1.649,1.315
		s-1.416-2.67-1.346-3.171c0.069-0.501,0.961-0.749,1.509-0.393s1.546,2.378,1.914,2.055s-0.274-1.864-0.064-2.223
		C40.438,20.631,41.596,19.901,42.414,19.404z"/>
	<path fill="#CDDC39" d="M42.667,27.091c-0.192-0.269-1.104-2.06-1.273-2.126s-1.487,0.285-1.743,0.624
		c-0.257,0.339-0.166,0.833-0.404,0.985c-0.239,0.152-0.746-0.184-0.97,0.286s0.146,2.233,0.337,2.557s0.605,0.521,0.703,0.943
		c0.097,0.423-0.474,1.242-0.474,1.242l-2.656,3.732c0,0-0.468,0.962-0.461,1.453s0.399,0.743,0.645,0.652s0.503-1.097,0.503-1.097
		s0.83-1.094,1.344-1.417c0.513-0.323,0.986-0.442,1.391-0.583c0.094-0.032,0.262-0.127,0.459-0.247
		c1.312-2.079,2.226-4.424,2.649-6.94C42.699,27.135,42.68,27.108,42.667,27.091z"/>
</g>
</svg>
