<?xml version="1.0" encoding="utf-8"?>
<!-- Generator: Adobe Illustrator 15.0.0, SVG Export Plug-In . SVG Version: 6.00 Build 0)  -->
<!DOCTYPE svg PUBLIC "-//W3C//DTD SVG 1.1//EN" "http://www.w3.org/Graphics/SVG/1.1/DTD/svg11.dtd">
<svg version="1.1"  xmlns="http://www.w3.org/2000/svg" xmlns:xlink="http://www.w3.org/1999/xlink" x="0px" y="0px"
	 width="48px" height="48px" viewBox="0 0 48 48" enable-background="new 0 0 48 48" xml:space="preserve">
<path fill="#5D4037" d="M26,33.499h-2c0,6-6,7-6,7v2h14v-2C32,40.499,26,39.499,26,33.499z"/>
<circle fill="#90CAF9" cx="24.535" cy="17.963" r="11"/>
<line fill="none" stroke="#8D6E63" stroke-width="2" stroke-miterlimit="10" x1="11.572" y1="5" x2="39.316" y2="32.745"/>
<g>
	<circle fill="none" stroke="#1E88E5" stroke-width="2" cx="24.535" cy="17.963" r="11"/>
	
		<ellipse transform="matrix(-0.7071 -0.7071 0.7071 -0.7071 29.1811 48.0148)" fill="none" stroke="#1E88E5" stroke-width="2" stroke-miterlimit="10" cx="24.535" cy="17.963" rx="11" ry="5.499"/>
	
		<line fill="none" stroke="#1E88E5" stroke-width="2" stroke-linecap="round" stroke-linejoin="round" stroke-miterlimit="10" x1="27.129" y1="7.594" x2="14.165" y2="20.557"/>
	
		<line fill="none" stroke="#1E88E5" stroke-width="2" stroke-linecap="round" stroke-linejoin="round" stroke-miterlimit="10" x1="34.906" y1="15.371" x2="21.943" y2="28.336"/>
	<line fill="none" stroke="#1E88E5" stroke-width="2" stroke-miterlimit="10" x1="16.757" y1="25.742" x2="32.313" y2="10.185"/>
	<line fill="none" stroke="#1E88E5" stroke-width="2" stroke-miterlimit="10" x1="16.757" y1="10.185" x2="32.313" y2="25.742"/>
</g>
<g>
	<path fill="none" stroke="#795548" stroke-width="3" d="M16.566,5.253c-0.937,0.588-1.822,1.289-2.637,2.104
		c-5.858,5.86-5.858,15.356,0,21.214c5.857,5.857,15.354,5.858,21.212,0l0.718-0.681"/>
	<rect x="18" y="40.499" fill="#795548" width="14" height="2"/>
</g>
</svg>
