<?xml version="1.0" encoding="iso-8859-1"?>
<!-- Generator: Adobe Illustrator 19.1.1, SVG Export Plug-In . SVG Version: 6.00 Build 0)  -->
<svg version="1.1"  xmlns="http://www.w3.org/2000/svg" xmlns:xlink="http://www.w3.org/1999/xlink" x="0px" y="0px"
	 viewBox="0 0 48 48" style="enable-background:new 0 0 48 48;" xml:space="preserve">
<line style="fill:none;stroke:#546E7A;stroke-width:2;" x1="23" y1="13" x2="26" y2="26"/>
<line style="fill:none;stroke:#546E7A;stroke-width:2;" x1="14" y1="12" x2="11" y2="31"/>
<path style="fill:#FFB74D;" d="M18.5,17c1.933,0,3.5,1.566,3.5,3.5S20.433,24,18.5,24c-1.934,0-3.5-1.566-3.5-3.5S16.566,17,18.5,17
	"/>
<path style="fill:#BA68C8;" d="M32.001,31.816c-0.314,0-0.104,0.289-0.418,0.184l-9.531-3.154c-1.572-0.523-2.422-2.223-1.897-3.795
	c0.523-1.57,2.224-2.422,3.794-1.896l7.01,2.22c1.572,0.524,2.422,2.223,1.897,3.795C32.436,30.428,33.258,31.816,32.001,31.816z"/>
<path style="fill:#2D4C5C;" d="M42.074,34.313l-9.084-5.781c0.144-1.37-0.671-2.704-2.032-3.157l-2.399,5.625l1.786,0.591
	l9.581,6.097C40.259,37.899,40.631,38,40.998,38c0.661,0,1.308-0.328,1.689-0.927C43.28,36.142,43.006,34.906,42.074,34.313z"/>
<path style="fill:#BA68C8;" d="M17.5,32h-6c-0.828,0-1.5-0.672-1.5-1.5s0.672-1.5,1.5-1.5h5.298l3.968-5
	c0.531-0.637,2.059-1.182,2.694-0.652c0.637,0.531,1.416,2.496,0.886,3.133l-5.693,4.98C18.367,31.803,17.945,32,17.5,32z"/>
<path style="fill:#5EC08F;" d="M5,11c-0.813-0.25-1-1-1-1s0-1,2-1s34.34,0,36,0c2,0,2,2,2,2l-4,4l4,6c0,2-2,2-2,2S5.813,11.25,5,11z
	"/>
<line style="fill:none;stroke:#41A571;stroke-width:2;stroke-linecap:round;stroke-miterlimit:10;" x1="5" y1="10" x2="38.373" y2="14.768"/>
<path style="fill:#41A571;" d="M44,11c0,0,0-2-2-2c-0.15,0-0.559,0-1.167,0L35,14.285l5.917,8.363C41.602,22.871,42,23,42,23
	s2,0,2-2l-4-6L44,11z"/>
</svg>
