<?xml version="1.0" encoding="utf-8"?>
<!-- Generator: Adobe Illustrator 15.0.0, SVG Export Plug-In . SVG Version: 6.00 Build 0)  -->
<!DOCTYPE svg PUBLIC "-//W3C//DTD SVG 1.1//EN" "http://www.w3.org/Graphics/SVG/1.1/DTD/svg11.dtd">
<svg version="1.1"  xmlns="http://www.w3.org/2000/svg" xmlns:xlink="http://www.w3.org/1999/xlink" x="0px" y="0px"
	 width="48px" height="48px" viewBox="0 0 48 48" enable-background="new 0 0 48 48" xml:space="preserve">
<polygon fill="#BBDEFB" points="24,45 13,40 13,33 24,38 "/>
<polygon fill="#2196F3" points="24,45 35,40 35,33 24,38 "/>
<polygon fill="#90CAF9" points="13,33 24,27.999 35,33 24,38 "/>
<path fill="#DD2C00" d="M34,17c0,5.522-4.478,10-10,10s-10-4.478-10-10s9-9.999,8-14.999C24,2.001,34,9.001,34,17z"/>
<path fill="#FF5722" d="M30,19.999C30,15,24,10,24,10c0,4-6,6-6,9.999c0,3.313,2.687,6,6,6S30,23.313,30,19.999z"/>
<path fill="#FFC107" d="M21,22.001c0-2,3-3,3-5c0,0,3,2,3,5c0,1.657-1.343,3-3,3S21,23.658,21,22.001z"/>
</svg>
