<?xml version="1.0" encoding="utf-8"?>
<!-- Generator: Adobe Illustrator 15.0.0, SVG Export Plug-In . SVG Version: 6.00 Build 0)  -->
<!DOCTYPE svg PUBLIC "-//W3C//DTD SVG 1.1//EN" "http://www.w3.org/Graphics/SVG/1.1/DTD/svg11.dtd">
<svg version="1.1"  xmlns="http://www.w3.org/2000/svg" xmlns:xlink="http://www.w3.org/1999/xlink" x="0px" y="0px"
	 width="48px" height="48px" viewBox="0 0 48 48" enable-background="new 0 0 48 48" xml:space="preserve">
<path fill="#90CAF9" d="M6,10.001C10,10,10,34,12,34s3-22,6-22s5,30,7,30s4-29,7-29s3,12,5,12s2-14.999,5-14.999
	C40,10,10,10,6,10.001z"/>
<rect x="6" y="6" fill="#DD2C00" width="36" height="4"/>
<g>
	<path fill="#2196F3" d="M25,10.002V42c2,0,4-29,7-29v-2.999C29.806,10.001,27.417,10.001,25,10.002z"/>
	<path fill="#2196F3" d="M42,10.001c-0.512,0-2.369,0-5,0V25C39,25,39,10.001,42,10.001z"/>
	<path fill="#2196F3" d="M18,10.002c-2.719,0-5.305,0-6,0V34c2,0,3-22,6-22V10.002z"/>
</g>
</svg>
