<?xml version="1.0" encoding="utf-8"?>
<!-- Generator: Adobe Illustrator 18.1.1, SVG Export Plug-In . SVG Version: 6.00 Build 0)  -->
<svg version="1.0"  xmlns="http://www.w3.org/2000/svg" xmlns:xlink="http://www.w3.org/1999/xlink" x="0px" y="0px"
	 viewBox="0 0 48 48" enable-background="new 0 0 48 48" xml:space="preserve">
<g>
	<rect x="40" y="21" fill="#4CAF50" width="4" height="23"/>
	<rect x="34" y="28" fill="#4CAF50" width="4" height="16"/>
	<rect x="28" y="23" fill="#4CAF50" width="4" height="21"/>
	<rect x="22" y="29" fill="#4CAF50" width="4" height="15"/>
	<rect x="16" y="32" fill="#4CAF50" width="4" height="12"/>
	<rect x="10" y="30" fill="#4CAF50" width="4" height="14"/>
	<rect x="4" y="34" fill="#4CAF50" width="4" height="10"/>
</g>
<g>
	<polygon fill="#388E3C" points="40.1,9.1 34,15.2 30,11.2 20,21.2 15,16.2 4.6,26.6 7.4,29.4 15,21.8 20,26.8 30,16.8 34,20.8 
		42.9,11.9 	"/>
	<polygon fill="#388E3C" points="44,8 35,8 44,17 	"/>
</g>
</svg>
