<?xml version="1.0" encoding="utf-8"?>
<!-- Generator: Adobe Illustrator 15.0.0, SVG Export Plug-In . SVG Version: 6.00 Build 0)  -->
<!DOCTYPE svg PUBLIC "-//W3C//DTD SVG 1.1//EN" "http://www.w3.org/Graphics/SVG/1.1/DTD/svg11.dtd">
<svg version="1.1"  xmlns="http://www.w3.org/2000/svg" xmlns:xlink="http://www.w3.org/1999/xlink" x="0px" y="0px"
	 width="48px" height="48px" viewBox="0 0 48 48" enable-background="new 0 0 48 48" xml:space="preserve">
<path fill="#455A64" d="M42,12c0,1.104-0.896,2-2,2H8c-1.104,0-2-0.896-2-2V8c0-1.104,0.896-2,2-2h32c1.104,0,2,0.896,2,2V12z"/>
<path fill="#64B5F6" d="M10,10v28c0,2.209,1.791,4,4,4h20c2.209,0,4-1.791,4-4V10H10z"/>
<rect x="27" y="10" fill="#37474F" width="6" height="32"/>
<rect x="20" y="10" fill="#E3F2FD" width="5" height="30"/>
</svg>
