<?xml version="1.0" encoding="utf-8"?>
<!-- Generator: Adobe Illustrator 19.1.1, SVG Export Plug-In . SVG Version: 6.00 Build 0)  -->
<svg version="1.1"  xmlns="http://www.w3.org/2000/svg" xmlns:xlink="http://www.w3.org/1999/xlink" x="0px" y="0px"
	 viewBox="0 0 48 48" enable-background="new 0 0 48 48" xml:space="preserve">
<path fill="#FF3D00" d="M6,24c0-9.9,8.1-18,18-18v18H6z"/>
<path fill="#FFD54F" d="M42,24c0-9.9-8.1-18-18-18v18l12.3,13.1c0,0,0,0,0,0C39.8,33.9,42,29.2,42,24z"/>
<path fill="#FFAB00" d="M24,24H6c0,4.7,1.9,9.1,4.9,12.3c3.3,3.5,8,5.7,13.1,5.7c4.7,0,9-1.9,12.3-4.9c0,0,0,0,0,0L24,24z"/>
</svg>
