<?xml version="1.0" encoding="utf-8"?>
<!-- Generator: Adobe Illustrator 19.1.1, SVG Export Plug-In . SVG Version: 6.00 Build 0)  -->
<svg version="1.1"  xmlns="http://www.w3.org/2000/svg" xmlns:xlink="http://www.w3.org/1999/xlink" x="0px" y="0px"
	 viewBox="0 0 48 48" enable-background="new 0 0 48 48" xml:space="preserve">
<path fill="#C5CAE9" d="M24,43C13.5,43,5,34.5,5,24S13.5,5,24,5s19,8.5,19,19S34.5,43,24,43z"/>
<circle fill="none" stroke="#000000" stroke-width="2" stroke-miterlimit="10" cx="24" cy="24" r="4.1"/>
<circle fill="#3949AB" cx="24" cy="24" r="15"/>
<path fill="#303F9F" d="M24,11c7.2,0,13,5.8,13,13s-5.8,13-13,13s-13-5.8-13-13S16.8,11,24,11 M24,9C15.7,9,9,15.7,9,24
	s6.7,15,15,15s15-6.7,15-15S32.3,9,24,9L24,9z"/>
<path fill="#9FA8DA" d="M32,11.3c-0.2,0.1-3.5,1.9-6.7,9.7L24,20.7c0-8.4,2.4-11.3,2.5-11.5C28.5,9.5,30.3,10.2,32,11.3z M38.7,20.6
	c-0.4-2-1.3-3.8-2.4-5.4c-0.2,0-3.9,0.4-9.9,6.4l0.7,1.1C34.9,19.5,38.5,20.6,38.7,20.6z M20.7,24l0.3-1.3c-7.8-3.2-9.6-6.5-9.7-6.7
	c-1,1.6-1.8,3.5-2.1,5.5C9.3,21.6,12.3,24,20.7,24z M27.3,24l-0.3,1.3c7.8,3.2,9.6,6.5,9.7,6.7c1-1.6,1.8-3.5,2.1-5.5
	C38.7,26.4,35.7,24,27.3,24z M21.6,26.4l-0.7-1.1c-7.8,3.2-11.4,2.1-11.6,2.1c0.4,2,1.3,3.8,2.4,5.4C11.9,32.7,15.7,32.3,21.6,26.4z
	 M32.7,36.3c0-0.2-0.4-3.9-6.4-9.9l-1.1,0.7c3.2,7.8,2.1,11.4,2.1,11.6C29.3,38.2,31.1,37.4,32.7,36.3z M15.3,11.7
	c0,0.2,0.4,3.9,6.4,9.9l1.1-0.7c-3.2-7.8-2.1-11.4-2.1-11.6C18.7,9.8,16.9,10.6,15.3,11.7z M21.5,38.8c0.1-0.2,2.5-3.1,2.5-11.5
	l-1.3-0.3c-3.2,7.8-6.5,9.6-6.7,9.7C17.7,37.8,19.5,38.5,21.5,38.8z"/>
<circle fill="#263238" cx="24" cy="24" r="4"/>
<path fill="#7986CB" d="M15.3,11.8c1.6-1.1,3.4-2,5.3-2.4c-0.1,0.2-0.2,0.9-0.2,2.1c-1.7,0.5-3.2,1.3-4.5,2.3
	C15.4,12.7,15.3,12,15.3,11.8z M25.5,11.1c1.7,0.2,3.4,0.7,4.8,1.5c0.9-0.9,1.5-1.3,1.6-1.4c-1.6-1-3.5-1.7-5.5-2.1
	C26.3,9.4,25.9,10,25.5,11.1z M36.2,15.3c-0.2,0-0.9,0.1-2,0.6c1.1,1.3,1.8,2.8,2.3,4.5c1.2,0,1.9,0.1,2.1,0.2
	C38.2,18.7,37.3,16.9,36.2,15.3z M9.2,21.5c0.2,0.1,0.7,0.5,1.9,1c0.2-1.7,0.7-3.4,1.5-4.8c-0.9-0.9-1.3-1.5-1.4-1.6
	C10.3,17.7,9.5,19.6,9.2,21.5z M38.8,26.5c-0.2-0.1-0.7-0.5-1.9-1c-0.2,1.7-0.7,3.4-1.5,4.8c0.9,0.9,1.3,1.5,1.4,1.6
	C37.7,30.3,38.5,28.4,38.8,26.5z M32.1,34.2c-1.3,1.1-2.8,1.8-4.5,2.3c0,1.2-0.1,1.9-0.2,2.1c2-0.5,3.8-1.3,5.3-2.4
	C32.7,36,32.6,35.3,32.1,34.2z M11.8,32.7c0.2,0,0.9-0.1,2-0.6c-1.1-1.3-1.8-2.8-2.3-4.5c-1.2,0-1.9-0.1-2.1-0.2
	C9.8,29.3,10.7,31.1,11.8,32.7z M22.5,36.9c-1.7-0.2-3.4-0.7-4.8-1.5c-0.9,0.9-1.5,1.3-1.6,1.4c1.6,1,3.5,1.7,5.5,2.1
	C21.7,38.6,22.1,38,22.5,36.9z"/>
</svg>
