<?xml version="1.0" encoding="iso-8859-1"?>
<!-- Generator: Adobe Illustrator 19.2.0, SVG Export Plug-In . SVG Version: 6.00 Build 0)  -->
<svg version="1.1"  xmlns="http://www.w3.org/2000/svg" xmlns:xlink="http://www.w3.org/1999/xlink" x="0px" y="0px"
	 viewBox="0 0 48 48" enable-background="new 0 0 48 48" xml:space="preserve">
<g>
	<rect x="14" y="35" fill="#E64A19" width="20" height="4"/>
	<rect x="14" y="27" fill="#E64A19" width="20" height="4"/>
	<rect x="14" y="19" fill="#E64A19" width="20" height="4"/>
	<rect x="14" y="11" fill="#E64A19" width="20" height="4"/>
</g>
<g>
	<rect x="10" y="35" fill="#BF360C" width="4" height="4"/>
	<rect x="10" y="27" fill="#BF360C" width="4" height="4"/>
	<rect x="10" y="19" fill="#BF360C" width="4" height="4"/>
	<rect x="10" y="11" fill="#BF360C" width="4" height="4"/>
</g>
<g>
	<path fill="#FF5722" d="M8,9v34h4V9c0-1.1,0.9-2,2-2h2V3h-2C10.7,3,8,5.7,8,9z"/>
	<path fill="#FF5722" d="M38,3c-3.3,0-6,2.7-6,6v34h4V9c0-1.1,0.9-2,2-2h2V3H38z"/>
</g>
</svg>
