<?xml version="1.0" encoding="iso-8859-1"?>
<!-- Generator: Adobe Illustrator 19.2.0, SVG Export Plug-In . SVG Version: 6.00 Build 0)  -->
<svg version="1.1"  xmlns="http://www.w3.org/2000/svg" xmlns:xlink="http://www.w3.org/1999/xlink" x="0px" y="0px"
	 viewBox="0 0 48 48" enable-background="new 0 0 48 48" xml:space="preserve">
<path fill="#FF9800" d="M34,44h4V4h-4V44z"/>
<path fill="#FF9800" d="M26,44h4V4h-4V44z"/>
<path fill="#FF9800" d="M18,44h4V4h-4V44z"/>
<path fill="#FF9800" d="M10,44h4V4h-4V44z"/>
<path fill="#607D8B" d="M39,9H9c-2.2,0-4,1.8-4,4v22c0,2.2,1.8,4,4,4h30c2.2,0,4-1.8,4-4V13C43,10.8,41.2,9,39,9z"/>
<g>
	<path fill="#FFEB3B" d="M12.5,28h4.2v2H10V18h2.4v10H12.5z"/>
	<path fill="#FFEB3B" d="M26.9,26c-0.1,1.4-0.6,4.1-4.1,4.1c-3.8,0-4.2-3.5-4.2-5.1v-2c0-0.8,0.1-5.1,4.2-5.1c3.6,0,4,2.9,4.1,4.2
		h-2.4c-0.1-0.9,0-2.2-1.7-2.2c-2,0-1.8,2.4-1.8,3.1v2c-0.1,3.1,1.2,3.1,1.8,3.1c1.9,0,1.7-1.8,1.7-2.1H26.9z"/>
	<path fill="#FFEB3B" d="M30.2,30V18h3.2c4.4,0,4.6,4.2,4.6,5.1V25c0,0.9-0.2,5-4.6,5H30.2z M32.6,20v8h0.7c1.1,0,2.2-0.2,2.2-3
		v-1.9c0-1.1,0-3-2.2-3h-0.7V20z"/>
</g>
</svg>
