<?xml version="1.0" encoding="utf-8"?>
<!-- Generator: Adobe Illustrator 19.1.1, SVG Export Plug-In . SVG Version: 6.00 Build 0)  -->
<svg version="1.1"  xmlns="http://www.w3.org/2000/svg" xmlns:xlink="http://www.w3.org/1999/xlink" x="0px" y="0px"
	 viewBox="0 0 48 48" enable-background="new 0 0 48 48" xml:space="preserve">
<path fill="#8BC34A" d="M14.4,41H4v-4h9.5L41,7l3,2.7L15.9,40.3C15.5,40.8,14.9,41,14.4,41z"/>
<path fill="#607D8B" d="M42,23c0.6,0,1,0.4,1,1s-0.4,1-1,1s-1-0.4-1-1S41.4,23,42,23 M39,23c-0.6,0-1,0.4-1,1s0.4,1,1,1s1-0.4,1-1
	S39.6,23,39,23 M36,23c-0.6,0-1,0.4-1,1s0.4,1,1,1s1-0.4,1-1S36.6,23,36,23 M24,23c-0.6,0-1,0.4-1,1s0.4,1,1,1s1-0.4,1-1
	S24.6,23,24,23 M21,23c-0.6,0-1,0.4-1,1s0.4,1,1,1s1-0.4,1-1S21.6,23,21,23 M18,23c-0.6,0-1,0.4-1,1s0.4,1,1,1s1-0.4,1-1
	S18.6,23,18,23 M15,23c-0.6,0-1,0.4-1,1s0.4,1,1,1s1-0.4,1-1S15.6,23,15,23 M12,23c-0.6,0-1,0.4-1,1s0.4,1,1,1s1-0.4,1-1
	S12.6,23,12,23 M9,23c-0.6,0-1,0.4-1,1s0.4,1,1,1s1-0.4,1-1S9.6,23,9,23 M6,23c-0.6,0-1,0.4-1,1s0.4,1,1,1s1-0.4,1-1S6.6,23,6,23
	 M33,23c-0.6,0-1,0.4-1,1s0.4,1,1,1s1-0.4,1-1S33.6,23,33,23 M30,23c-0.6,0-1,0.4-1,1s0.4,1,1,1s1-0.4,1-1S30.6,23,30,23 M27,23
	c-0.6,0-1,0.4-1,1s0.4,1,1,1s1-0.4,1-1S27.6,23,27,23"/>
</svg>
