<?xml version="1.0" encoding="utf-8"?>
<!-- Generator: Adobe Illustrator 19.1.1, SVG Export Plug-In . SVG Version: 6.00 Build 0)  -->
<svg version="1.1"  xmlns="http://www.w3.org/2000/svg" xmlns:xlink="http://www.w3.org/1999/xlink" x="0px" y="0px"
	 viewBox="0 0 48 48" enable-background="new 0 0 48 48" xml:space="preserve">
<g>
	<path fill="#9FA8DA" d="M38,7c-5.1,0-9,7.3-9,17c0,6.6,1.8,12.1,4.6,14.9l2.4-3.3c-1.6-2-3-6.1-3-11.7c0-7.9,3-13,5-13s5,5.1,5,13
		c0,1.1,0.9,2,2,2s2-0.9,2-2C47,14.3,43.1,7,38,7z"/>
	<path fill="#9FA8DA" d="M31,41c-5.1,0-9-7.3-9-17s3.9-17,9-17s9,7.3,9,17S36.1,41,31,41z M31,11c-2,0-5,5.1-5,13s3,13,5,13
		s5-5.1,5-13S33,11,31,11z"/>
	<path fill="#9FA8DA" d="M24,41c-5.1,0-9-7.3-9-17s3.9-17,9-17s9,7.3,9,17S29.1,41,24,41z M24,11c-2,0-5,5.1-5,13s3,13,5,13
		c2,0,5-5.1,5-13S26,11,24,11z"/>
	<path fill="#9FA8DA" d="M17,41c-5.1,0-9-7.3-9-17s3.9-17,9-17s9,7.3,9,17S22.1,41,17,41z M17,11c-2,0-5,5.1-5,13s3,13,5,13
		s5-5.1,5-13S19,11,17,11z"/>
	<path fill="#9FA8DA" d="M10,41c-5.1,0-9-7.3-9-17S4.9,7,10,7s9,7.3,9,17S15.1,41,10,41z M10,11c-2,0-5,5.1-5,13s3,13,5,13
		s5-5.1,5-13S12,11,10,11z"/>
</g>
<path fill="#7986CB" d="M20.5,8.3c0.6-0.5,1.2-0.8,1.9-1c1.3,1.2,2.4,2.8,3.3,4.7c-0.6-0.6-1.2-1-1.7-1c-0.3,0-0.6,0.1-0.9,0.3
	C22.3,10,21.5,9,20.5,8.3z M23.1,36.7c-0.7,1.3-1.6,2.3-2.6,3c0.6,0.5,1.2,0.8,1.9,1c1.3-1.2,2.4-2.8,3.3-4.7c-0.6,0.6-1.2,1-1.7,1
	C23.7,37,23.4,36.9,23.1,36.7z M30.1,36.7c-0.7,1.3-1.6,2.3-2.6,3c0.6,0.5,1.2,0.8,1.9,1c1.3-1.2,2.4-2.8,3.3-4.7
	c-0.6,0.6-1.2,1-1.7,1C30.7,37,30.4,36.9,30.1,36.7z M17,34.9c0.3,0.6,0.6,1.2,0.9,1.8c0.9-0.6,1.8-1.9,2.6-3.8
	C19.6,30.7,19,27.6,19,24C19,28.2,18.3,32,17,34.9z M24,34.9c0.3,0.6,0.6,1.2,0.9,1.8c0.9-0.6,1.8-1.9,2.6-3.8
	C26.6,30.7,26,27.7,26,24C26,28.3,25.3,32,24,34.9z M17.9,11.3c-0.3,0.6-0.6,1.2-0.9,1.8c1.3,2.9,2,6.7,2,10.9
	c0-3.6,0.6-6.7,1.5-8.9C19.7,13.2,18.8,11.9,17.9,11.3z M16.1,11.3c0.3-0.2,0.6-0.3,0.9-0.3c0.5,0,1.1,0.4,1.7,1
	c-0.9-2-2-3.6-3.3-4.7c-0.7,0.2-1.3,0.6-1.9,1C14.5,9,15.3,10,16.1,11.3z M16.1,36.7c-0.7,1.3-1.6,2.3-2.6,3c0.6,0.5,1.2,0.8,1.9,1
	c1.3-1.2,2.4-2.8,3.3-4.7c-0.6,0.6-1.2,1-1.7,1C16.7,37,16.4,36.9,16.1,36.7z M12,24c0-3.6,0.6-6.7,1.5-8.9
	c-0.8-1.9-1.7-3.2-2.6-3.8C9.1,14.4,8,18.8,8,24s1.1,9.6,2.9,12.7c0.9-0.6,1.8-1.9,2.6-3.8C12.6,30.7,12,27.6,12,24z M26,24
	c0-3.6,0.6-6.7,1.5-8.9c-0.8-1.9-1.7-3.2-2.6-3.8c-0.3,0.6-0.6,1.1-0.9,1.8C25.3,16,26,19.8,26,24z M30.1,11.3
	c0.3-0.2,0.6-0.3,0.9-0.3c0.5,0,1.1,0.4,1.7,1c-0.9-2-2-3.6-3.3-4.7c-0.7,0.2-1.3,0.6-1.9,1C28.5,9,29.3,10,30.1,11.3z M33,24
	c0-3.6,0.6-6.7,1.5-8.9c-0.8-1.9-1.7-3.2-2.6-3.8c-0.3,0.6-0.6,1.1-0.9,1.8C32.3,16,33,19.8,33,24z M37.1,11.3
	c0.3-0.2,0.6-0.3,0.9-0.3c0.5,0,1.1,0.4,1.7,1c-0.9-2-2-3.6-3.3-4.7c-0.7,0.2-1.3,0.6-1.9,1C35.5,9,36.3,10,37.1,11.3z M33,24
	c0,4.2-0.7,8-2,10.9c0.3,0.6,0.6,1.2,0.9,1.8c0.9-0.6,1.8-1.9,2.6-3.8C33.6,30.7,33,27.6,33,24z"/>
</svg>
