<?xml version="1.0" encoding="iso-8859-1"?>
<!-- Generator: Adobe Illustrator 19.1.1, SVG Export Plug-In . SVG Version: 6.00 Build 0)  -->
<svg version="1.1"  xmlns="http://www.w3.org/2000/svg" xmlns:xlink="http://www.w3.org/1999/xlink" x="0px" y="0px"
	 viewBox="0 0 48 48" style="enable-background:new 0 0 48 48;" xml:space="preserve">
<path style="fill:#455A64;" d="M40,42H8c-2.206,0-4-1.794-4-4V10c0-2.206,1.794-4,4-4h32c2.206,0,4,1.794,4,4v28
	C44,40.206,42.206,42,40,42z"/>
<g>
	<rect x="13" y="32" style="fill:#FDD835;" width="4" height="8"/>
	<rect x="19" y="32" style="fill:#FDD835;" width="4" height="8"/>
	<rect x="25" y="32" style="fill:#FDD835;" width="4" height="8"/>
	<rect x="31" y="32" style="fill:#FDD835;" width="4" height="8"/>
</g>
<g>
	<circle style="fill:#FFB300;" cx="15" cy="38" r="1"/>
	<circle style="fill:#FFB300;" cx="21" cy="38" r="1"/>
	<circle style="fill:#FFB300;" cx="27" cy="38" r="1"/>
	<circle style="fill:#FFB300;" cx="33" cy="38" r="1"/>
</g>
<path style="fill:#ECEFF1;" d="M40.652,21.322C41.475,20.904,42,20.067,42,19.144V10c0-1.105-0.895-2-2-2H24H8c-1.105,0-2,0.895-2,2
	v9.144c0,0.924,0.525,1.76,1.348,2.178C8.326,21.818,9,22.834,9,24c0,1.166-0.674,2.182-1.652,2.678C6.525,27.096,6,27.933,6,28.856
	V38c0,1.105,0.895,2,2,2h2v-5c0-1.1,0.9-2,2-2h12h12c1.1,0,2,0.9,2,2v5h2c1.105,0,2-0.895,2-2v-9.144
	c0-0.924-0.525-1.76-1.348-2.178C39.674,26.182,39,25.166,39,24C39,22.834,39.674,21.818,40.652,21.322z"/>
<rect x="10" y="12" style="fill:#64DD17;" width="27" height="7"/>
<circle style="fill:#37474F;" cx="32" cy="25" r="4"/>
<circle style="fill:#FF1744;" cx="21" cy="23" r="1"/>
<circle style="fill:#FF1744;" cx="25" cy="23" r="1"/>
<circle style="fill:#8BC34A;" cx="17" cy="23" r="1"/>
<path style="fill:#90A4AE;" d="M6,23c0.552,0,1,0.448,1,1s-0.448,1-1,1s-1-0.448-1-1S5.448,23,6,23z M41,24c0,0.552,0.448,1,1,1
	s1-0.448,1-1s-0.448-1-1-1S41,23.448,41,24z"/>
<g>
	<rect x="12" y="14" style="fill:#689F38;" width="2" height="3"/>
	<rect x="16" y="14" style="fill:#689F38;" width="2" height="3"/>
	<rect x="20" y="14" style="fill:#689F38;" width="2" height="3"/>
</g>
</svg>
