<?xml version="1.0" encoding="utf-8"?>
<!-- Generator: Adobe Illustrator 15.0.0, SVG Export Plug-In . SVG Version: 6.00 Build 0)  -->
<!DOCTYPE svg PUBLIC "-//W3C//DTD SVG 1.1//EN" "http://www.w3.org/Graphics/SVG/1.1/DTD/svg11.dtd">
<svg version="1.1"  xmlns="http://www.w3.org/2000/svg" xmlns:xlink="http://www.w3.org/1999/xlink" x="0px" y="0px"
	 width="48px" height="48px" viewBox="0 0 48 48" enable-background="new 0 0 48 48" xml:space="preserve">
<polygon fill="#BBDEFB" points="6,34 42,34 43,31.998 43,13 41,15 7,15 5,13 5,31.998 "/>
<g>
	<path fill="#90CAF9" d="M43,32h-2c0,1.104-0.897,2-2,2c-1.104,0-2-0.896-2-2h-2c0,1.104-0.897,2-2,2c-1.104,0-2-0.896-2-2h-2
		c0,1.104-0.897,2-2,2c-1.104,0-2-0.896-2-2h-2c0,1.104-0.897,2-2,2c-1.104,0-2-0.896-2-2h-2c0,1.104-0.897,2-2,2
		c-1.104,0-2-0.896-2-2h-2c0,1.104-0.897,2-2,2c-1.104,0-2-0.896-2-2H5c0,0,0,4,4,4c1.2,0,2.266-0.542,3-1.382
		C12.734,35.458,13.8,36,15,36s2.266-0.542,3-1.382C18.734,35.458,19.8,36,21,36s2.266-0.542,3-1.382C24.734,35.458,25.8,36,27,36
		s2.266-0.542,3-1.382C30.734,35.458,31.8,36,33,36s2.266-0.542,3-1.382C36.734,35.458,37.8,36,39,36C43,36,43,32,43,32z"/>
	<path fill="#90CAF9" d="M43,23h-2c0,1.104-0.897,2-2,2c-1.104,0-2-0.896-2-2h-2c0,1.104-0.897,2-2,2c-1.104,0-2-0.896-2-2h-2
		c0,1.104-0.897,2-2,2c-1.104,0-2-0.896-2-2h-2c0,1.104-0.897,2-2,2c-1.104,0-2-0.896-2-2h-2c0,1.104-0.897,2-2,2
		c-1.104,0-2-0.896-2-2h-2c0,1.104-0.897,2-2,2c-1.104,0-2-0.896-2-2H5c0,0,0,4,4,4c1.2,0,2.266-0.542,3-1.382
		C12.734,26.458,13.8,27,15,27s2.266-0.542,3-1.382C18.734,26.458,19.8,27,21,27s2.266-0.542,3-1.382C24.734,26.458,25.8,27,27,27
		s2.266-0.542,3-1.382C30.734,26.458,31.8,27,33,27s2.266-0.542,3-1.382C36.734,26.458,37.8,27,39,27C43,27,43,23,43,23z"/>
	<path fill="#90CAF9" d="M43,13h-2c0,1.104-0.897,2-2,2c-1.104,0-2-0.896-2-2h-2c0,1.104-0.897,2-2,2c-1.104,0-2-0.896-2-2h-2
		c0,1.104-0.897,2-2,2c-1.104,0-2-0.896-2-2h-2c0,1.104-0.897,2-2,2c-1.104,0-2-0.896-2-2h-2c0,1.104-0.897,2-2,2
		c-1.104,0-2-0.896-2-2h-2c0,1.104-0.897,2-2,2c-1.104,0-2-0.896-2-2H5c0,0,0,4,4,4c1.2,0,2.266-0.542,3-1.382
		C12.734,16.458,13.8,17,15,17s2.266-0.542,3-1.382C18.734,16.458,19.8,17,21,17s2.266-0.542,3-1.382C24.734,16.458,25.8,17,27,17
		s2.266-0.542,3-1.382C30.734,16.458,31.8,17,33,17s2.266-0.542,3-1.382C36.734,16.458,37.8,17,39,17C43,17,43,13,43,13z"/>
</g>
<g>
	<path fill="#1E88E5" d="M33,14c0,2.761-2.238,5-5,5s-5-2.239-5-5s5-10,5-10S33,11.239,33,14z"/>
	<path fill="#1E88E5" d="M23,39c0,2.761-2.239,5-5,5s-5-2.239-5-5s5-10,5-10S23,36.239,23,39z"/>
</g>
</svg>
