<?xml version="1.0" encoding="utf-8"?>
<!-- Generator: Adobe Illustrator 15.0.0, SVG Export Plug-In . SVG Version: 6.00 Build 0)  -->
<!DOCTYPE svg PUBLIC "-//W3C//DTD SVG 1.1//EN" "http://www.w3.org/Graphics/SVG/1.1/DTD/svg11.dtd">
<svg version="1.1"  xmlns="http://www.w3.org/2000/svg" xmlns:xlink="http://www.w3.org/1999/xlink" x="0px" y="0px"
	 width="48px" height="48px" viewBox="0 0 48 48" enable-background="new 0 0 48 48" xml:space="preserve">
<g>
	<path fill="none" stroke="#1565C0" stroke-width="2" d="M34,13c0,0-27-2-27,15"/>
	<circle fill="none" stroke="#1565C0" stroke-width="2" cx="16.5" cy="27.5" r="9.5"/>
	<circle fill="none" stroke="#1565C0" stroke-width="2" cx="20.5" cy="27.5" r="9.5"/>
	<path fill="#1565C0" d="M40,35.916C37.124,37.604,31.399,40,22,40C8.211,40,8.002,28.488,8,27.998L7,28H6c0,0.14,0.183,14,16,14
		c8.85,0,14.638-2.033,18-3.791c0.701-0.308,1.371-0.772,2-1.311v-2.67C41.443,34.834,40.795,35.418,40,35.916z"/>
	<polygon fill="#1565C0" points="42,10 35,6 34.008,7.736 37.969,10 	"/>
</g>
<g>
	<g>
		<rect x="33" y="10" fill="#2196F3" width="9" height="6"/>
	</g>
	<path fill="#2196F3" d="M10.044,28.368C10.015,28.083,10,27.793,10,27.5s0.015-0.583,0.044-0.868
		c0.417-5.053,4.42-9.103,9.456-9.581C19.17,17.02,18.837,17,18.5,17C12.71,17,8,21.71,8,27.5C8,33.29,12.71,38,18.5,38
		c0.337,0,0.67-0.02,1-0.051C14.464,37.471,10.46,33.422,10.044,28.368z"/>
	<path fill="#2196F3" d="M20.5,19c-0.339,0-0.671,0.025-1,0.064c4.217,0.498,7.5,4.088,7.5,8.436c0,4.348-3.283,7.938-7.5,8.436
		c0.329,0.039,0.661,0.064,1,0.064c4.394,0,8.02-3.352,8.456-7.632C28.979,28.081,29,27.793,29,27.5s-0.021-0.581-0.044-0.868
		C28.52,22.351,24.894,19,20.5,19z"/>
</g>
</svg>
