<?xml version="1.0"?>
<svg xmlns="http://www.w3.org/2000/svg" viewBox="0 0 24 24">
    <path d="M 8 2 C 8 2 3.5605 1.689 2.3125 6.5 C 1.2894051 10.445787 3.0772944 13.302229 4 14.4375 L 4 22 L 5 22 L 5 14.125 L 7.28125 9.78125 L 12.96875 11.125 L 11.65625 20 L 10 20 L 10 22 L 21 22 L 21 20 L 20.09375 20 L 21.375 12.875 C 21.676716 12.7492 21.919124 12.499067 22 12.15625 C 22.134 11.58825 21.78575 11.04025 21.21875 10.90625 L 7.9375 7.75 L 8 7.5625 L 8 2 z M 14.9375 11.59375 L 15.1875 11.625 L 16.46875 20 L 13.6875 20 L 14.9375 11.59375 z M 17.28125 12.125 L 20.34375 12.84375 L 19.0625 20 L 18.5 20 L 17.28125 12.125 z"/>
</svg>
