<?xml version="1.0" encoding="utf-8"?>
<!-- Generator: Adobe Illustrator 15.0.0, SVG Export Plug-In . SVG Version: 6.00 Build 0)  -->
<!DOCTYPE svg PUBLIC "-//W3C//DTD SVG 1.1//EN" "http://www.w3.org/Graphics/SVG/1.1/DTD/svg11.dtd">
<svg version="1.1"  xmlns="http://www.w3.org/2000/svg" xmlns:xlink="http://www.w3.org/1999/xlink" x="0px" y="0px"
	 width="48px" height="48px" viewBox="0 0 48 48" enable-background="new 0 0 48 48" xml:space="preserve">
<g>
	<polyline fill="none" stroke="#9FA8DA" stroke-width="2" points="18,24 22,8 26,8 30,24 	"/>
	<rect x="6" y="25" fill="#9FA8DA" width="36" height="3"/>
	<rect x="23" y="4" fill="#9FA8DA" width="2" height="16"/>
</g>
<g>
	<rect x="13" y="28" fill="#455A64" width="4" height="8"/>
	<rect x="31" y="28" fill="#455A64" width="4" height="8"/>
</g>
<polygon fill="#81D4FA" points="6,41 42,41 43,38.998 43,33 41,35 7,35 5,33 5,38.998 "/>
<g>
	<path fill="#1976D2" d="M43,39h-2c0,1.104-0.897,2-2,2c-1.104,0-2-0.896-2-2h-2c0,1.104-0.897,2-2,2c-1.104,0-2-0.896-2-2h-2
		c0,1.104-0.897,2-2,2c-1.104,0-2-0.896-2-2h-2c0,1.104-0.897,2-2,2c-1.104,0-2-0.896-2-2h-2c0,1.104-0.897,2-2,2
		c-1.104,0-2-0.896-2-2h-2c0,1.104-0.897,2-2,2c-1.104,0-2-0.896-2-2H5c0,0,0,4,4,4c1.2,0,2.266-0.542,3-1.382
		C12.734,42.458,13.8,43,15,43s2.266-0.542,3-1.382C18.734,42.458,19.8,43,21,43s2.266-0.542,3-1.382C24.734,42.458,25.8,43,27,43
		s2.266-0.542,3-1.382C30.734,42.458,31.8,43,33,43s2.266-0.542,3-1.382C36.734,42.458,37.8,43,39,43C43,43,43,39,43,39z"/>
	<path fill="#1976D2" d="M43,33h-2c0,1.104-0.897,2-2,2c-1.104,0-2-0.896-2-2h-2c0,1.104-0.897,2-2,2c-1.104,0-2-0.896-2-2h-2
		c0,1.104-0.897,2-2,2c-1.104,0-2-0.896-2-2h-2c0,1.104-0.897,2-2,2c-1.104,0-2-0.896-2-2h-2c0,1.104-0.897,2-2,2
		c-1.104,0-2-0.896-2-2h-2c0,1.104-0.897,2-2,2c-1.104,0-2-0.896-2-2H5c0,0,0,4,4,4c1.2,0,2.266-0.542,3-1.382
		C12.734,36.458,13.8,37,15,37s2.266-0.542,3-1.382C18.734,36.458,19.8,37,21,37s2.266-0.542,3-1.382C24.734,36.458,25.8,37,27,37
		s2.266-0.542,3-1.382C30.734,36.458,31.8,37,33,37s2.266-0.542,3-1.382C36.734,36.458,37.8,37,39,37C43,37,43,33,43,33z"/>
</g>
<rect x="9" y="20" fill="#C5CAE9" width="30" height="5"/>
<g>
	<rect x="11" y="22" fill="#7986CB" width="2" height="2"/>
	<rect x="15" y="22" fill="#7986CB" width="2" height="2"/>
	<rect x="21" y="22" fill="#7986CB" width="2" height="2"/>
	<rect x="25" y="22" fill="#7986CB" width="2" height="2"/>
	<rect x="31" y="22" fill="#7986CB" width="2" height="2"/>
	<rect x="35" y="22" fill="#7986CB" width="2" height="2"/>
	<rect x="22" y="4" fill="#7986CB" width="4" height="2"/>
</g>
</svg>
