<?xml version="1.0" encoding="utf-8"?>
<!-- Generator: Adobe Illustrator 15.0.0, SVG Export Plug-In . SVG Version: 6.00 Build 0)  -->
<!DOCTYPE svg PUBLIC "-//W3C//DTD SVG 1.1//EN" "http://www.w3.org/Graphics/SVG/1.1/DTD/svg11.dtd">
<svg version="1.1"  xmlns="http://www.w3.org/2000/svg" xmlns:xlink="http://www.w3.org/1999/xlink" x="0px" y="0px"
	 width="48px" height="48px" viewBox="0 0 48 48" enable-background="new 0 0 48 48" xml:space="preserve">
<rect x="6" y="16" fill="#9FA8DA" width="36" height="26"/>
<polygon fill="#C5CAE9" points="6,16 24,6 42,16 "/>
<g>
	<rect x="6" y="12" fill="#7986CB" width="36" height="2"/>
	<rect x="6" y="28" fill="#7986CB" width="36" height="2"/>
	<rect x="40" y="12" fill="#7986CB" width="2" height="4"/>
	<rect x="6" y="12" fill="#7986CB" width="2" height="4"/>
	<rect x="14" y="12" fill="#7986CB" width="2" height="4"/>
	<rect x="23" y="12" fill="#7986CB" width="2" height="4"/>
</g>
<g>
	<rect x="29" y="26" fill="#455A64" width="8" height="2"/>
	<rect x="29" y="22" fill="#455A64" width="8" height="2"/>
	<rect x="29" y="18" fill="#455A64" width="8" height="2"/>
	<rect x="29" y="30" fill="#455A64" width="8" height="2"/>
	<rect x="29" y="34" fill="#455A64" width="8" height="2"/>
	<rect x="29" y="38" fill="#455A64" width="8" height="2"/>
	<rect x="35" y="12" fill="#455A64" width="2" height="30"/>
	<rect x="29" y="12" fill="#455A64" width="2" height="30"/>
</g>
</svg>
