<?xml version="1.0" encoding="iso-8859-1"?>
<!-- Generator: Adobe Illustrator 19.1.1, SVG Export Plug-In . SVG Version: 6.00 Build 0)  -->
<svg version="1.1"  xmlns="http://www.w3.org/2000/svg" xmlns:xlink="http://www.w3.org/1999/xlink" x="0px" y="0px"
	 viewBox="0 0 48 48" style="enable-background:new 0 0 48 48;" xml:space="preserve">
<line style="fill:none;stroke:#455A64;stroke-width:2;" x1="25" y1="38" x2="39.312" y2="32.833"/>
<line style="fill:none;stroke:#455A64;stroke-width:2;" x1="6.187" y1="11.828" x2="9" y2="29"/>
<path style="fill:#FFB74D;" d="M16.5,30c1.933,0,3.5,1.566,3.5,3.5S18.433,37,16.5,37c-1.933,0-3.5-1.566-3.5-3.5S14.567,30,16.5,30
	"/>
<path style="fill:#BA68C8;" d="M20.5,42h-3.915c-0.272,0-0.539-0.074-0.772-0.215l-5.731-3.438c-0.245-0.146-0.442-0.359-0.57-0.615
	l-2.354-3.56C7.055,33.963,7,33.732,7,33.5v-5C7,27.672,7.672,27,8.5,27s1.5,0.672,1.5,1.5v4.645L12,36l5,3h3.146l3.684-1.842
	c0.741-0.369,1.642-0.07,2.013,0.67c0.37,0.742,0.07,1.643-0.671,2.014l-4,2C20.963,41.945,20.732,42,20.5,42z"/>
<path style="fill:#BA68C8;" d="M15.257,44.223c-0.482,0.773-1.499,1.01-2.274,0.527l-4.204-2.617
	c-0.774-0.48-1.012-1.496-0.529-2.273l1.615-2.59c0.481-0.773,0.75-0.676,1.525-0.193l4.204,2.615
	c0.774,0.484,1.759,1.164,1.279,1.938L15.257,44.223z"/>
<path style="fill:#FF754C;" d="M5,11c0.76-1.285,1.655-2.16,2.628-3.043C8.6,7.045,9.646,6.309,10.741,5.648
	c2.194-1.281,4.595-2.065,7.091-2.434c4.981-0.744,10.395,0.465,14.891,3.32c4.505,2.836,7.958,7.25,9.396,12.082
	c0.728,2.418,1.029,4.904,0.812,7.402c-0.125,1.254-0.338,2.494-0.728,3.742c-0.359,1.238-0.91,2.49-1.658,3.736L39,34
	c0,0-0.702-2.994-1.899-5.219c-0.847-1.645-1.8-3.226-2.887-4.7c-2.152-2.953-4.767-5.558-7.862-7.443
	c-3.036-1.973-6.511-3.225-10.101-3.914c-1.795-0.356-3.631-0.547-5.474-0.598c-1.836-0.082-3.716,0.03-5.512,0.295L5,11z"/>
<g>
	<g>
		<path style="fill:#E64A19;" d="M37.624,10.715l-7.636,8.654c0.496,0.445,0.977,0.908,1.441,1.389L38.9,12.29
			C38.5,11.75,38.074,11.223,37.624,10.715z"/>
		<path style="fill:#E64A19;" d="M42.931,26.02c0.02-0.24,0.015-0.479,0.026-0.719l-5.912,3.379
			c0.018,0.035,0.038,0.066,0.056,0.101c0.294,0.545,0.558,1.136,0.788,1.719l4.8-2.742C42.793,27.18,42.873,26.602,42.931,26.02z"
			/>
		<path style="fill:#E64A19;" d="M32.723,6.535c-0.366-0.234-0.746-0.438-1.124-0.648l-6.444,10.025
			c0.406,0.23,0.806,0.473,1.197,0.727c0.171,0.104,0.335,0.219,0.503,0.326l6.447-10.029C33.107,6.805,32.922,6.66,32.723,6.535z"
			/>
		<path style="fill:#E64A19;" d="M42.119,18.617c-0.177-0.596-0.386-1.184-0.622-1.762l-7.53,6.902
			c0.082,0.109,0.167,0.215,0.247,0.324c0.318,0.432,0.602,0.891,0.898,1.338l7.085-6.494C42.168,18.822,42.15,18.719,42.119,18.617
			z"/>
		<path style="fill:#E64A19;" d="M20.004,13.68c0.638,0.203,1.266,0.43,1.885,0.676l4.288-10.637
			c-0.659-0.172-1.321-0.313-1.988-0.42L20.004,13.68z"/>
		<path style="fill:#E64A19;" d="M17.832,3.215c-0.593,0.088-1.179,0.203-1.759,0.338l-1.287,8.922
			c0.491,0.072,0.979,0.154,1.465,0.25c0.169,0.033,0.337,0.072,0.505,0.107l1.392-9.648C18.043,3.197,17.936,3.199,17.832,3.215z"
			/>
		<path style="fill:#E64A19;" d="M11.062,5.482c-0.105,0.058-0.217,0.106-0.321,0.166c-0.575,0.346-1.135,0.715-1.679,1.117v5.346
			c0.573-0.01,1.147-0.01,1.715,0.015c0.096,0.002,0.19,0.01,0.285,0.014V5.482z"/>
	</g>
</g>
</svg>
