<?xml version="1.0" encoding="utf-8"?>
<!-- Generator: Adobe Illustrator 19.1.1, SVG Export Plug-In . SVG Version: 6.00 Build 0)  -->
<svg version="1.1"  xmlns="http://www.w3.org/2000/svg" xmlns:xlink="http://www.w3.org/1999/xlink" x="0px" y="0px"
	 viewBox="0 0 48 48" enable-background="new 0 0 48 48" xml:space="preserve">
<path fill="none" stroke="#7986CB" stroke-width="2" stroke-linecap="round" stroke-linejoin="round" stroke-miterlimit="10" d="
	M34,24H14 M24,11l-1,13h2L24,11z"/>
<path fill="#9FA8DA" d="M18,30v2c0,0.3-0.1,0.5-0.3,0.7C17.5,32.9,17.3,33,17,33c0,0,0,0,0,0c-0.3,0-8.5-0.3-16.4-4.1
	c-0.5-0.2-0.7-0.7-0.5-1.2s0.6-0.8,1.1-0.7c0.1,0,10.3,2,15.8,2C17.6,29,18,29.4,18,30z M47.9,27.7c-0.2-0.5-0.6-0.8-1.1-0.7
	c-0.1,0-10.3,2-15.8,2c-0.6,0-1,0.4-1,1v2c0,0.3,0.1,0.5,0.3,0.7c0.2,0.2,0.4,0.3,0.7,0.3c0,0,0,0,0,0c0.3,0,8.5-0.3,16.4-4.1
	C47.9,28.7,48.1,28.2,47.9,27.7z"/>
<path fill="#0D47A1" d="M27,36H21c-2.2,0-4-1.8-4-4v-3c0-1.6,1.4-3,3-3h8c1.6,0,3,1.4,3,3v3C31,34.2,29.2,36,27,36z"/>
<path fill="#C5CAE9" d="M13,33.5c0,1.9-1.6,3.5-3.5,3.5S6,35.4,6,33.5S7.6,30,9.5,30S13,31.6,13,33.5z M24,22c-3.9,0-7,3.1-7,7
	s5.3,7,7,7s7-3.1,7-7S27.9,22,24,22z M35,33.5c0,1.9,1.6,3.5,3.5,3.5s3.5-1.6,3.5-3.5S40.4,30,38.5,30S35,31.6,35,33.5z"/>
<path fill="#263238" d="M38.5,31c1.4,0,2.5,1.1,2.5,2.5S39.9,36,38.5,36S36,34.9,36,33.5S37.1,31,38.5,31z M9.5,31
	C8.1,31,7,32.1,7,33.5S8.1,36,9.5,36s2.5-1.1,2.5-2.5S10.9,31,9.5,31z"/>
<path fill="#37474F" d="M25,25h1.7c0.8,0,1.5,0.4,1.9,1.2L29,27h-4V25z M23,25h-1.7c-0.8,0-1.5,0.4-1.9,1.2L19,27h4V25z"/>
<path fill="#1565C0" d="M30.9,28.2C29.1,29.2,26,31,24,31s-5.1-1.8-6.9-2.8c0,0.3-0.1,0.6-0.1,0.8c0,3.9,4.4,7,7,7s7-3.1,7-7
	C31,28.7,31,28.4,30.9,28.2z"/>
</svg>
