<?xml version="1.0" encoding="utf-8"?>
<!-- Generator: Adobe Illustrator 15.0.0, SVG Export Plug-In . SVG Version: 6.00 Build 0)  -->
<!DOCTYPE svg PUBLIC "-//W3C//DTD SVG 1.1//EN" "http://www.w3.org/Graphics/SVG/1.1/DTD/svg11.dtd">
<svg version="1.1"  xmlns="http://www.w3.org/2000/svg" xmlns:xlink="http://www.w3.org/1999/xlink" x="0px" y="0px"
	 width="48px" height="48px" viewBox="0 0 48 48" enable-background="new 0 0 48 48" xml:space="preserve">
<g >
	<path  fill="#2196F3" d="M24,26.1c-8.8,0-16-3.6-16-8c0,1.1,0,8.9,0,10c0,4.4,7.2,8,16,8s16-3.6,16-8
		c0-1.1,0-8.899,0-10C40,22.5,32.8,26.1,24,26.1z"/>
	<path  fill="#2196F3" d="M24,8.1c-1.7,0-3-0.7-3-1.5c0,0.4,0,11.6,0,12c0,0.8,1.3,1.5,3,1.5s3-0.7,3-1.5
		c0-0.4,0-11.6,0-12C27,7.4,25.7,8.1,24,8.1z"/>
</g>
<g >
	<ellipse  fill="#90CAF9" cx="24" cy="6.6" rx="3" ry="1.5"/>
	<path  fill="#90CAF9" d="M27,10.2c0,3.4,0,8.1,0,8.4c0,0.8-1.3,1.5-3,1.5s-3-0.7-3-1.5c0-0.2,0-4.9,0-8.4
		c-7.4,0.7-13,3.9-13,7.9c0,4.4,7.2,8,16,8s16-3.6,16-8C40,14.2,34.4,10.9,27,10.2z"/>
</g>
<g >
	<rect  x="22" y="30.1" fill="#FF9800" width="4" height="11"/>
	<polygon  fill="#FF9800" points="38.4,37.4 34.4,37.4 29.8,30.1 33.4,29.1 	"/>
	<path  fill="#FF9800" d="M24,39.1c-2.2,0-4,1.301-4,3c0,1.7,1.8,3,4,3s4-1.3,4-3C28,40.4,26.2,39.1,24,39.1z
		 M24,43.1c-1.2,0-2-0.6-2-1c0-0.399,0.8-1,2-1s2,0.601,2,1C26,42.5,25.2,43.1,24,43.1z"/>
	<path  fill="#FF9800" d="M37,36.1c-2.2,0-4,1.301-4,3c0,1.7,1.8,3,4,3s4-1.3,4-3C41,37.4,39.2,36.1,37,36.1z
		 M37,40.1c-1.2,0-2-0.6-2-1c0-0.399,0.8-1,2-1s2,0.601,2,1C39,39.5,38.2,40.1,37,40.1z"/>
	<polygon  fill="#FF9800" points="9.6,37.4 13.6,37.4 18.2,30.1 14.6,29.1 	"/>
	<path  fill="#FF9800" d="M7,39.1c0,1.7,1.8,3,4,3s4-1.3,4-3c0-1.699-1.8-3-4-3S7,37.4,7,39.1z M9,39.1
		c0-0.399,0.8-1,2-1s2,0.601,2,1c0,0.4-0.8,1-2,1S9,39.4,9,39.1z"/>
</g>
</svg>
