<?xml version="1.0" encoding="iso-8859-1"?>
<!-- Generator: Adobe Illustrator 19.2.0, SVG Export Plug-In . SVG Version: 6.00 Build 0)  -->
<svg version="1.1"  xmlns="http://www.w3.org/2000/svg" xmlns:xlink="http://www.w3.org/1999/xlink" x="0px" y="0px"
	 viewBox="0 0 48 48" enable-background="new 0 0 48 48" xml:space="preserve">
<g>
	<rect x="38" y="6" fill="#FF5722" width="4" height="36"/>
	<rect x="22" y="6" fill="#FF5722" width="4" height="36"/>
	<rect x="6" y="6" fill="#FF5722" width="4" height="36"/>
</g>
<g>
	<rect x="12" y="34" fill="#E64A19" width="10" height="4"/>
	<rect x="12" y="26" fill="#E64A19" width="10" height="4"/>
	<rect x="12" y="18" fill="#E64A19" width="10" height="4"/>
	<rect x="12" y="10" fill="#E64A19" width="10" height="4"/>
	<g>
		<rect x="28" y="34" fill="#E64A19" width="10" height="4"/>
		<rect x="28" y="26" fill="#E64A19" width="10" height="4"/>
		<rect x="28" y="18" fill="#E64A19" width="10" height="4"/>
		<rect x="28" y="10" fill="#E64A19" width="10" height="4"/>
	</g>
</g>
<g>
	<rect x="10" y="34" fill="#BF360C" width="2" height="4"/>
	<rect x="10" y="26" fill="#BF360C" width="2" height="4"/>
	<rect x="10" y="18" fill="#BF360C" width="2" height="4"/>
	<rect x="10" y="10" fill="#BF360C" width="2" height="4"/>
	<g>
		<rect x="26" y="34" fill="#BF360C" width="2" height="4"/>
		<rect x="26" y="26" fill="#BF360C" width="2" height="4"/>
		<rect x="26" y="18" fill="#BF360C" width="2" height="4"/>
		<rect x="26" y="10" fill="#BF360C" width="2" height="4"/>
	</g>
</g>
</svg>
