<?xml version="1.0" encoding="utf-8"?>
<!-- Generator: Adobe Illustrator 15.0.0, SVG Export Plug-In . SVG Version: 6.00 Build 0)  -->
<!DOCTYPE svg PUBLIC "-//W3C//DTD SVG 1.1//EN" "http://www.w3.org/Graphics/SVG/1.1/DTD/svg11.dtd">
<svg version="1.1"  xmlns="http://www.w3.org/2000/svg" xmlns:xlink="http://www.w3.org/1999/xlink" x="0px" y="0px"
	 width="48px" height="48px" viewBox="0 0 48 48" enable-background="new 0 0 48 48" xml:space="preserve">
<path fill="#FF3D00" d="M17,24c0,0.553-0.447,1-1,1h-2c-0.553,0-1-0.447-1-1v-2c0-0.553,0.447-1,1-1h2c0.553,0,1,0.447,1,1V24z"/>
<g>
	<path fill="#455A64" d="M28,18.5c0,0.828,0.672,1.5,1.5,1.5l0,0c0.828,0,1.5-0.672,1.5-1.5V3.468c0-0.828-0.672-1.5-1.5-1.5l0,0
		c-0.828,0-1.5,0.672-1.5,1.5V18.5z"/>
	<path fill="#455A64" d="M33,44c0,1.104-1.896,2-3,2H18c-1.104,0-3-0.896-3-2c0,0-1-2.999-1-15c0-5,0-10,0-10c0-1.563,2-2,2-2
		s4-1,8-1s8,1,8,1s2,0.406,2,2c0,0,0,5,0,10C34,41,33,44,33,44z"/>
</g>
<path fill="#78909C" d="M31,19c0,0-3.75-1-7-1c-1.046,0-2.142,0.104-3.15,0.245C20.945,18.478,21,18.732,21,19c0,1.105-0.895,2-2,2
	s-2-0.895-2-2c0,0-1,0.281-1,1c0,0.999,0,8,0,8c0,4.418,3.582,8,8,8s8-3.582,8-8c0,0,0-6.999,0-8C32,19.219,31,19,31,19z"/>
<g>
	<path fill="#37474F" d="M24,16c0.334,0,0.668,0.009,1,0.022V13c0-0.553-0.447-1-1-1h-2c-0.553,0-1,0.447-1,1v3.163
		C21.956,16.066,22.978,16,24,16z"/>
	<path fill="#37474F" d="M32,17v-2c0-0.553-0.447-1-1-1h-3c-0.553,0-1,0.447-1,1v1.163C29.783,16.446,32,17,32,17z"/>
	<path fill="#37474F" d="M14,29c0-1.015,0-2.027,0-3c-0.553,0-1,0.447-1,1v4c0,0.553,0.447,1,1,1h0.025
		C14.01,31.062,14,30.079,14,29z"/>
	<path fill="#37474F" d="M19,16.42V14c0-0.553-0.447-1-1-1h-2c-0.553,0-1,0.447-1,1v3.414C15.5,17.109,16,17,16,17
		S17.228,16.694,19,16.42z"/>
	<path fill="#37474F" d="M30,23c0,0.553-0.447,1-1,1H19c-0.553,0-1-0.447-1-1l0,0c0-0.553,0.447-1,1-1h10C29.553,22,30,22.447,30,23
		L30,23z"/>
	<path fill="#37474F" d="M30,27c0,0.553-0.447,1-1,1H19c-0.553,0-1-0.447-1-1l0,0c0-0.553,0.447-1,1-1h10C29.553,26,30,26.447,30,27
		L30,27z"/>
	<path fill="#37474F" d="M29,31c0,0.553-0.447,1-1,1h-8c-0.553,0-1-0.447-1-1l0,0c0-0.553,0.447-1,1-1h8C28.553,30,29,30.447,29,31
		L29,31z"/>
</g>
<circle fill="#FFEB3B" cx="19" cy="19" r="1"/>
<path fill="#263238" d="M27,39c0,0.553-0.447,1-1,1h-4c-0.553,0-1-0.447-1-1l0,0c0-0.553,0.447-1,1-1h4C26.553,38,27,38.447,27,39
	L27,39z"/>
</svg>
