<?xml version="1.0" encoding="utf-8"?>
<!-- Generator: Adobe Illustrator 15.0.0, SVG Export Plug-In . SVG Version: 6.00 Build 0)  -->
<!DOCTYPE svg PUBLIC "-//W3C//DTD SVG 1.1//EN" "http://www.w3.org/Graphics/SVG/1.1/DTD/svg11.dtd">
<svg version="1.1"  xmlns="http://www.w3.org/2000/svg" xmlns:xlink="http://www.w3.org/1999/xlink" x="0px" y="0px"
	 width="48px" height="48px" viewBox="0 0 48 48" enable-background="new 0 0 48 48" xml:space="preserve">
<g >
	<rect  x="35" y="22" fill="#FF9800" width="2" height="17"/>
	<rect  x="11" y="22" fill="#FF9800" width="2" height="17"/>
	<path  fill="#FF9800" d="M21,22v17h6V22H21z M24,37.5c-0.8,0-1.5-0.7-1.5-1.5s0.7-1.5,1.5-1.5s1.5,0.7,1.5,1.5
		S24.8,37.5,24,37.5z"/>
</g>
<path  fill="#3F51B5" d="M39,24H9c-2.2,0-4-1.8-4-4v-8c0-2.2,1.8-4,4-4h30c2.2,0,4,1.8,4,4v8C43,22.2,41.2,24,39,24
	z"/>
</svg>
