<?xml version="1.0" encoding="utf-8"?>
<!-- Generator: Adobe Illustrator 15.0.0, SVG Export Plug-In . SVG Version: 6.00 Build 0)  -->
<!DOCTYPE svg PUBLIC "-//W3C//DTD SVG 1.1//EN" "http://www.w3.org/Graphics/SVG/1.1/DTD/svg11.dtd">
<svg version="1.1"  xmlns="http://www.w3.org/2000/svg" xmlns:xlink="http://www.w3.org/1999/xlink" x="0px" y="0px"
	 width="48px" height="48px" viewBox="0 0 48 48" enable-background="new 0 0 48 48" xml:space="preserve">
<rect  x="22.124" y="-2.357" transform="matrix(0.7071 0.7071 -0.7071 0.7071 24.0167 -9.9955)" fill="#FF9800" width="3.9" height="52.699"/>
<path  fill="#009688" d="M29.5,6.7l-5.1,5.1l-1.8,4.7l-6,6l-4.7,1.8L6.8,29.4c-1.1,1.1-0.9,3.1,0.2,4.5l7.1,7.1
	c1.1,1.1,3.3,1.3,4.5,0.2l5.1-5.101l1.8-4.699l6-6l4.7-1.8l5.1-5.1c1.101-1.1,0.9-3.1-0.2-4.5c0,0-5.8-5.8-7.1-7.1
	C32.6,5.8,30.6,5.6,29.5,6.7z"/>
<path  fill="#26A69A" d="M24.3,11.9l-1.8,4.7l8.9,8.9l4.699-1.8L24.3,11.9z"/>
<path  fill="#00897B" d="M23.7,36.1l1.8-4.699l-8.9-8.9l-4.7,1.8L23.7,36.1z"/>
</svg>
