<?xml version="1.0" encoding="iso-8859-1"?>
<!-- Generator: Adobe Illustrator 19.2.0, SVG Export Plug-In . SVG Version: 6.00 Build 0)  -->
<svg version="1.1"  xmlns="http://www.w3.org/2000/svg" xmlns:xlink="http://www.w3.org/1999/xlink" x="0px" y="0px"
	 viewBox="0 0 48 48" enable-background="new 0 0 48 48" xml:space="preserve">
<path fill="#03A9F4" d="M23,15c-4.4,0-8,3.6-8,8s3.6,8,8,8s8-3.6,8-8S27.4,15,23,15z M23,29c-3.3,0-6-2.7-6-6s2.7-6,6-6s6,2.7,6,6
	S26.3,29,23,29z"/>
<path fill="#4FC3F7" d="M23,10c-7.2,0-13,5.8-13,13s5.8,13,13,13s13-5.8,13-13S30.2,10,23,10z M23,34c-6.1,0-11-4.9-11-11
	s4.9-11,11-11s11,4.9,11,11S29.1,34,23,34z"/>
<path fill="#B3E5FC" d="M23,5C13.1,5,5,13.1,5,23s8.1,18,18,18s18-8.1,18-18S32.9,5,23,5z M23,39c-8.8,0-16-7.2-16-16S14.2,7,23,7
	s16,7.2,16,16S31.8,39,23,39z"/>
<g>
	<circle fill="#03A9F4" cx="23" cy="23" r="3"/>
</g>
<path fill="#009688" d="M40,24H29l-5,5v11c0,1.1,0.9,2,2,2h14c1.1,0,2-0.9,2-2V26C42,24.9,41.1,24,40,24z"/>
<path fill="#A5D6A7" d="M36,37h-6c-0.6,0-1-0.4-1-1v-6c0-0.6,0.4-1,1-1h6c0.6,0,1,0.4,1,1v6C37,36.6,36.6,37,36,37z"/>
</svg>
