<?xml version="1.0" encoding="utf-8"?>
<!-- Generator: Adobe Illustrator 15.0.0, SVG Export Plug-In . SVG Version: 6.00 Build 0)  -->
<!DOCTYPE svg PUBLIC "-//W3C//DTD SVG 1.1//EN" "http://www.w3.org/Graphics/SVG/1.1/DTD/svg11.dtd">
<svg version="1.1"  xmlns="http://www.w3.org/2000/svg" xmlns:xlink="http://www.w3.org/1999/xlink" x="0px" y="0px"
	 width="48px" height="48px" viewBox="0 0 48 48" enable-background="new 0 0 48 48" xml:space="preserve">
<path fill="#F44336" d="M23.022,33.435c1.227-1.339,4.331-2.258,5.122-3.076c0.792-0.82,1.649-2.14,0.813-3.006
	c-0.834-0.863-2.621,2.231-4.59,0.193c-1.271-1.319,0.028-3.419,1.104-4.741l-1.566-1.624c-0.851,0.656-1.677,0.969-2.234,0.391
	c-0.934-0.966-0.477-2.245,0.214-3.255c0.654-0.956,1.538-1.653,0.955-2.258c-0.627-0.649-2.307-0.741-4.135,1.152
	s-2.495,5.48-3.85,6.886c-2.027,2.1-5.498,1.365-8.245,4.212c-3.955,4.098,0.402,8.604,2.158,10.423s6.147,6.764,10.052,2.72
	C21.771,38.394,21.794,34.774,23.022,33.435z"/>
<path fill="#FFEBEE" d="M21.592,22.655c-0.132-0.032-0.209-0.046-0.169-0.02c-0.001-0.002-0.002-0.002-0.004-0.002
	c-1.526-0.183-6.835,2.244-7.871,8.155c-1.035,5.913,2.71,4.718,2.768,4.659s2.877-0.141,3.723,0.309
	c0.006-0.001,0.012-0.006,0.018-0.006c0.014,0.01,0.032,0.024,0.034,0.025c0.483,0.21,0.82-0.079,0.966-0.505
	c0.146-0.425,0.637-1.857,1.257-2.535c0.823-0.898,2.207-1.563,3.428-2.148c0.665-0.32,1.491-0.718,1.713-0.946
	c0.445-0.461,0.762-0.955,0.843-1.275c-0.086,0.047-0.174,0.097-0.246,0.14c-0.93,0.536-2.658,1.531-4.373-0.243
	c-0.299-0.311-0.611-0.773-0.744-1.407c0.021-0.104,0.053-0.193,0.078-0.291l-0.611,0.633l-2.356-2.439l1.935-2.004
	c-0.138-0.035-0.272-0.072-0.378-0.097"/>
<g>
	<path fill="#263238" d="M15.797,35.986c-0.382,0.396-1.001,0.396-1.383,0l-2.766-2.867c-0.384-0.396-0.384-1.036,0-1.433
		l0.691-0.716c0.382-0.396,1.001-0.396,1.383,0l2.766,2.865c0.382,0.396,0.382,1.037,0,1.433L15.797,35.986z"/>
	<path fill="#263238" d="M19.255,32.403c-0.383,0.396-1.001,0.396-1.384,0l-2.766-2.865c-0.382-0.396-0.382-1.037,0-1.434l0,0
		c0.382-0.396,1.001-0.396,1.383,0l2.767,2.866C19.638,31.366,19.638,32.008,19.255,32.403L19.255,32.403z"/>
</g>
<g>
	<polygon fill="#5D4037" points="21.329,28.821 18.563,25.955 36,9.659 37.383,11.092 	"/>
	<path fill="#5D4037" d="M37.375,8.234L36,9.659l1.221,1.615l2.842-0.092c0,0,1.708-3.043,2.396-3.379s1.147-0.294,1.147-0.294
		s0.691-0.716,0-1.434c-0.691-0.716-1.613-0.178-1.613-0.178"/>
	<path fill="#5D4037" d="M42.04,7.941c-0.241,0.135-0.615-0.009-0.75-0.25l-1.063-1.947c-0.135-0.241-0.049-0.546,0.192-0.681l0,0
		c0.241-0.135,0.546-0.049,0.681,0.192l1.063,1.948C42.298,7.445,42.281,7.808,42.04,7.941L42.04,7.941z"/>
	<path fill="#5D4037" d="M40.625,9.53c-0.241,0.135-0.546,0.049-0.681-0.192l-1.463-2.619c-0.135-0.24-0.049-0.545,0.192-0.68l0,0
		c0.241-0.135,0.546-0.049,0.681,0.192l1.463,2.619C40.952,9.092,40.866,9.396,40.625,9.53L40.625,9.53z"/>
	<path fill="#5D4037" d="M38.879,10.506c-0.241,0.135-0.546,0.049-0.681-0.192l-1.463-2.619c-0.135-0.241-0.048-0.546,0.193-0.681
		l0,0c0.241-0.134,0.545-0.048,0.68,0.193l1.463,2.618C39.206,10.066,39.12,10.371,38.879,10.506L38.879,10.506z"/>
</g>
</svg>
