<?xml version="1.0" encoding="utf-8"?>
<!-- Generator: Adobe Illustrator 15.0.0, SVG Export Plug-In . SVG Version: 6.00 Build 0)  -->
<!DOCTYPE svg PUBLIC "-//W3C//DTD SVG 1.1//EN" "http://www.w3.org/Graphics/SVG/1.1/DTD/svg11.dtd">
<svg version="1.1"  xmlns="http://www.w3.org/2000/svg" xmlns:xlink="http://www.w3.org/1999/xlink" x="0px" y="0px"
	 width="48px" height="48px" viewBox="0 0 48 48" enable-background="new 0 0 48 48" xml:space="preserve">
<path fill="#BBDEFB" d="M24,6L4,17.89V42h40V17.89L24,6z"/>
<g>
	<path fill="#455A64" d="M40,27c0,0.553-0.447,1-1,1H9c-0.552,0-1-0.447-1-1v-6c0-0.553,0.448-1,1-1h30c0.553,0,1,0.447,1,1V27z"/>
	<path fill="#455A64" d="M40,37c0,0.553-0.447,1-1,1H9c-0.552,0-1-0.447-1-1v-6c0-0.553,0.448-1,1-1h30c0.553,0,1,0.447,1,1V37z"/>
</g>
<g>
	<circle fill="#64DD17" cx="35" cy="24" r="2"/>
	<circle fill="#64DD17" cx="35" cy="34" r="2"/>
</g>
</svg>
