<?xml version="1.0" encoding="utf-8"?>
<!-- Generator: Adobe Illustrator 15.0.0, SVG Export Plug-In . SVG Version: 6.00 Build 0)  -->
<!DOCTYPE svg PUBLIC "-//W3C//DTD SVG 1.1//EN" "http://www.w3.org/Graphics/SVG/1.1/DTD/svg11.dtd">
<svg version="1.1"  xmlns="http://www.w3.org/2000/svg" xmlns:xlink="http://www.w3.org/1999/xlink" x="0px" y="0px"
	 width="48px" height="48px" viewBox="0 0 48 48" enable-background="new 0 0 48 48" xml:space="preserve">
<g>
	<rect x="15" y="4" fill="#C68632" width="5" height="7"/>
	<rect x="28" y="4" fill="#C68632" width="5" height="7"/>
	<path fill="#C68632" d="M40,38.001c0,5-5,4.999-5,4.999s-5,0.999-11,1s-11-1-11-1s-5,0.001-5-4.999S11,15,12,13s2-2,2-2h20
		c0,0,1,0,2,2S40,33.001,40,38.001z"/>
</g>
<g>
	<path fill="#995F1A" d="M35,19c0,1.104-0.896,2-2,2H15c-1.104,0-2-0.896-2-2v-9h22V19z"/>
	<path fill="#995F1A" d="M24,44c3.349,0,6.694-0.312,9-0.587V31c0-1.104-0.896-2-2-2H17c-1.104,0-2,0.896-2,2v12.331
		C17.003,43.623,20.31,44,24,44z"/>
	<path fill="#995F1A" d="M41,40c0,2-3,3-6,3V31c0-1.104,0.896-2,2-2l2,0.001C40.104,29.001,41,38,41,40z"/>
	<path fill="#995F1A" d="M7,40c0,2,3,3,6,3V31c0-1.104-0.896-2-2-2l-2,0.001C7.896,29.001,7,38,7,40z"/>
</g>
<g>
	<path fill="#FFC107" d="M24.223,34h-0.445C22.796,34,22,34.896,22,36v1c0,1.104,0.796,2,1.777,2h0.445C25.204,39,26,38.104,26,37
		v-1C26,34.896,25.204,34,24.223,34L24.223,34z"/>
	<path fill="#FFC107" d="M18.223,18h-0.445C16.796,18,16,18.896,16,20v1c0,1.104,0.796,2,1.777,2h0.445C19.204,23,20,22.104,20,21
		v-1C20,18.896,19.204,18,18.223,18L18.223,18z"/>
	<path fill="#FFC107" d="M30.223,18h-0.445C28.796,18,28,18.896,28,20v1c0,1.104,0.796,2,1.777,2h0.445C31.204,23,32,22.104,32,21
		v-1C32,18.896,31.204,18,30.223,18L30.223,18z"/>
</g>
<g>
	<path fill="#56300D" d="M23.777,34h0.445c0.28,0,0.542,0.079,0.777,0.209V29h-2v5.209C23.236,34.079,23.497,34,23.777,34z"/>
	<rect x="23" y="36" fill="#56300D" width="2" height="5"/>
	<path fill="#56300D" d="M17.777,18h0.445c0.28,0,0.542,0.08,0.777,0.209V10h-2v8.209C17.236,18.08,17.497,18,17.777,18z"/>
	<path fill="#56300D" d="M29.777,18h0.445c0.28,0,0.542,0.08,0.777,0.209V10h-2v8.209C29.235,18.08,29.497,18,29.777,18z"/>
	<rect x="17" y="20" fill="#56300D" width="2" height="5"/>
	<rect x="29" y="20" fill="#56300D" width="2" height="5"/>
	<path fill="#56300D" d="M21,10V9.691C21,8.892,22.232,8,24,8s3,0.892,3,1.691V10h2V9.691C29,7.621,26.804,6,24,6s-5,1.621-5,3.691
		V10H21z"/>
</g>
</svg>
