<?xml version="1.0" encoding="utf-8"?>
<!-- Generator: Adobe Illustrator 19.1.1, SVG Export Plug-In . SVG Version: 6.00 Build 0)  -->
<svg version="1.1"  xmlns="http://www.w3.org/2000/svg" xmlns:xlink="http://www.w3.org/1999/xlink" x="0px" y="0px"
	 viewBox="0 0 48 48" enable-background="new 0 0 48 48" xml:space="preserve">
<path fill="#42A5F5" d="M26,33c0,2.1-2,2-2,2H5c-1.7,0-3-1.3-3-3V12.9C2,10.2,4.2,8,6.9,8h29.6c1,0,1.9,0.5,2.5,1.3l2.7,3.6
	c0.9,1.4-0.1,3.1-1.7,3.1H28c-1.1,0-2,0.9-2,2V33z"/>
<path fill="#1E88E5" d="M2,32c0,1.7,1.3,3,3,3h19c0,0,2,0.1,2-2c0-0.5,0-3.6,0-7H2V32z"/>
<g>
	<path fill="#263238" d="M21,20c0,0.6-0.4,1-1,1H8c-0.6,0-1-0.4-1-1v-6c0-0.6,0.4-1,1-1h12c0.6,0,1,0.4,1,1V20z M36,13v-2
		c0-0.6-0.4-1-1-1h-6c-0.6,0-1,0.4-1,1l0,2c0,0.6,0.4,1,1,1h6C35.6,14,36,13.6,36,13z"/>
</g>
<path fill="#90CAF9" d="M41,24h-0.3c-1.9-2.9-5.6-8-7.7-8l-5,0c-1.1,0-2,0.9-2,2v6v4v5c0,1.1,0.9,2,2,2h9h4h3.3c1,0,1.7-0.8,1.7-1.7
	V27C46,25.9,46,24,41,24z"/>
<path fill="#37474F" d="M32.9,18H28v6h10.5C36.2,20.6,33.9,18.4,32.9,18z"/>
<path fill="#FFA000" d="M46,26.2c-0.2-1-0.8-2-4-2.2v3c0,0.6,0.4,1,1,1h3V26.2z"/>
<path fill="#37474F" d="M41,35c0,2.8-2.2,5-5,5c-2.8,0-5-2.2-5-5c0-2.8,2.2-5,5-5C38.8,30,41,32.2,41,35 M12,40c2.8,0,5-2.2,5-5
	c0-2.8-2.2-5-5-5c-2.8,0-5,2.2-5,5C7,37.8,9.2,40,12,40z"/>
<path fill="#78909C" d="M38,35c0,1.1-0.9,2-2,2c-1.1,0-2-0.9-2-2c0-1.1,0.9-2,2-2C37.1,33,38,33.9,38,35 M12,37c1.1,0,2-0.9,2-2
	c0-1.1-0.9-2-2-2s-2,0.9-2,2C10,36.1,10.9,37,12,37z"/>
</svg>
