<?xml version="1.0" encoding="utf-8"?>
<!-- Generator: Adobe Illustrator 15.0.0, SVG Export Plug-In . SVG Version: 6.00 Build 0)  -->
<!DOCTYPE svg PUBLIC "-//W3C//DTD SVG 1.1//EN" "http://www.w3.org/Graphics/SVG/1.1/DTD/svg11.dtd">
<svg version="1.1"  xmlns="http://www.w3.org/2000/svg" xmlns:xlink="http://www.w3.org/1999/xlink" x="0px" y="0px"
	 width="48px" height="48px" viewBox="0 0 48 48" enable-background="new 0 0 48 48" xml:space="preserve">
<path fill="#546E7A" d="M15.766,30.822c0.39-0.39,1.021-0.389,1.411,0l0,0c0.39,0.391,0.391,1.021,0,1.412l-1.411,1.411
	c-0.39,0.391-1.022,0.39-1.413,0.001l0,0c-0.389-0.39-0.389-1.022,0-1.412L15.766,30.822z"/>
<g>
	
		<rect x="17.364" y="22.648" transform="matrix(-0.7071 -0.7071 0.7071 -0.7071 24.8528 57.5893)" fill="#78909C" width="13.979" height="1.998"/>
	<path fill="#78909C" d="M19.817,36.287c0.386-2.172-0.256-4.49-1.935-6.17c-1.677-1.68-3.997-2.32-6.169-1.934L19.817,36.287z"/>
</g>
<g>
	
		<rect x="27.48" y="22.989" transform="matrix(-0.707 -0.7072 0.7072 -0.707 32.4658 78.3947)" fill="#673AB7" width="9.984" height="18.966"/>
	
		<rect x="10.537" y="6.044" transform="matrix(-0.7072 -0.707 0.707 -0.7072 15.533 37.4884)" fill="#673AB7" width="9.984" height="18.967"/>
</g>
<path fill="#B0BEC5" d="M27.176,13.762c0.391-0.389,1.022-0.389,1.412,0l5.649,5.65c0.389,0.389,0.39,1.021-0.001,1.412
	L22.134,32.927c-0.389,0.392-1.022,0.392-1.411,0.001l-5.649-5.65c-0.391-0.389-0.391-1.021,0-1.411L27.176,13.762z"/>
<g>
	
		<rect x="29.356" y="35.914" transform="matrix(-0.7071 -0.7071 0.7071 -0.7071 25.364 85.3303)" fill="#B39DDB" width="1.997" height="2.996"/>
	
		<rect x="26.534" y="33.092" transform="matrix(-0.7074 -0.7069 0.7069 -0.7074 22.5568 78.5165)" fill="#B39DDB" width="1.995" height="2.994"/>
	
		<rect x="32.886" y="32.385" transform="matrix(-0.7071 -0.7071 0.7071 -0.7071 33.8857 81.8006)" fill="#B39DDB" width="1.996" height="2.994"/>
	
		<rect x="30.063" y="29.562" transform="matrix(-0.7066 -0.7076 0.7076 -0.7066 31.0313 74.9863)" fill="#B39DDB" width="1.996" height="2.996"/>
	
		<rect x="36.415" y="28.857" transform="matrix(-0.7071 -0.7071 0.7071 -0.7071 42.4043 78.2734)" fill="#B39DDB" width="1.997" height="2.994"/>
	
		<rect x="33.59" y="26.033" transform="matrix(-0.7074 -0.7069 0.7069 -0.7074 39.5957 71.4546)" fill="#B39DDB" width="1.998" height="2.996"/>
	
		<rect x="12.413" y="18.972" transform="matrix(-0.7074 -0.7069 0.7069 -0.7074 8.4286 44.428)" fill="#B39DDB" width="1.996" height="2.994"/>
	
		<rect x="9.589" y="16.147" transform="matrix(-0.7074 -0.7069 0.7069 -0.7074 5.6042 37.6103)" fill="#B39DDB" width="1.996" height="2.996"/>
	
		<rect x="15.943" y="15.442" transform="matrix(-0.707 -0.7072 0.7072 -0.707 16.9386 40.8958)" fill="#B39DDB" width="1.997" height="2.994"/>
	
		<rect x="13.119" y="12.619" transform="matrix(-0.7074 -0.7069 0.7069 -0.7074 14.1255 34.0786)" fill="#B39DDB" width="1.996" height="2.993"/>
	
		<rect x="19.472" y="11.913" transform="matrix(-0.7071 -0.7071 0.7071 -0.7071 25.462 37.367)" fill="#B39DDB" width="1.996" height="2.995"/>
	
		<rect x="16.648" y="9.09" transform="matrix(-0.707 -0.7072 0.7072 -0.707 22.6353 30.552)" fill="#B39DDB" width="1.997" height="2.994"/>
</g>
</svg>
