<?xml version="1.0" encoding="iso-8859-1"?>
<!-- Generator: Adobe Illustrator 19.1.1, SVG Export Plug-In . SVG Version: 6.00 Build 0)  -->
<svg version="1.1" id="Layer_1" xmlns="http://www.w3.org/2000/svg" xmlns:xlink="http://www.w3.org/1999/xlink" x="0px" y="0px"
	 viewBox="0 0 40 40" style="enable-background:new 0 0 40 40;" xml:space="preserve">
<path style="fill:#C2E8FF;" d="M20,39c0-10.493-8.507-19-19-19v19H20z"/>
<path style="fill:#BAE0BD;" d="M20,39c0-5.597-2.373-10.575-6.161-14.037c-0.459-0.151-0.93-0.165-1.396,0.042
	c-0.648,0.217-1.079,1.081-1.511,1.512c-0.432,0.648-0.864,1.295-1.295,1.943c-0.217,0.216-0.432,0.648-0.217,0.864
	c0,0.216,0.217,0.216,0.432,0.216c0.432,0.217,0.649,0.217,1.081,0.432c0.216,0,0.432,0.217,0.216,0.432c0,0,0,0.217-0.216,0.217
	c-1.081,1.08-2.159,1.943-3.239,3.022c-0.216,0.216-0.432,0.648-0.432,0.864c0,0.216,0.216,0.216,0.216,0.432
	c0,0.217-0.216,0.217-0.432,0.432c-0.432,0.217-0.864,0.432-1.08,0.649c-0.216,0.432,0,1.08-0.216,1.511
	C5.645,38.054,5.436,38.528,5.201,39H20z"/>
<path style="fill:#5E9C76;" d="M6.707,37.837c0.151-0.38,0.151-0.755,0.151-1.063c0-0.053,0-0.118,0-0.176
	c0.181-0.107,0.444-0.239,0.636-0.335l0.138-0.067l0.113-0.113c0.02-0.016,0.041-0.027,0.059-0.038
	c0.166-0.103,0.672-0.415,0.672-1.107c0-0.215-0.051-0.392-0.118-0.534c0.015-0.023,0.029-0.042,0.041-0.054
	c0.521-0.521,1.036-0.984,1.581-1.474c0.481-0.433,0.977-0.88,1.475-1.367c0.297-0.138,0.508-0.39,0.614-0.675
	c0.191-0.328,0.223-0.715,0.077-1.07c-0.159-0.384-0.51-0.667-0.921-0.759c-0.206-0.093-0.375-0.149-0.515-0.196
	c-0.03-0.01-0.058-0.019-0.086-0.029l0.491-0.737l0.599-0.898c0.154-0.166,0.295-0.351,0.431-0.53
	c0.163-0.214,0.465-0.612,0.615-0.663l0.045-0.015l0.043-0.019c0.104-0.046,0.209-0.069,0.321-0.069
	c0.054,0,0.112,0.005,0.172,0.016c3.409,3.197,5.385,7.467,5.632,12.134l0.013,1H20c0-5.597-2.373-10.575-6.161-14.037
	c-0.221-0.072-0.444-0.113-0.669-0.113c-0.242,0-0.485,0.048-0.727,0.155c-0.648,0.217-1.08,1.081-1.511,1.512
	c-0.432,0.648-0.864,1.295-1.295,1.943c-0.217,0.216-0.432,0.648-0.217,0.864c0,0.216,0.217,0.216,0.432,0.216
	c0.432,0.217,0.649,0.217,1.081,0.432c0.216,0,0.432,0.217,0.216,0.432c0,0,0,0.217-0.216,0.217
	c-1.081,1.08-2.159,1.943-3.239,3.022c-0.216,0.216-0.432,0.648-0.432,0.864c0,0.216,0.216,0.216,0.216,0.432
	c0,0.217-0.216,0.217-0.432,0.432c-0.432,0.217-0.864,0.432-1.08,0.649c-0.216,0.432,0,1.08-0.216,1.511
	C5.645,38.054,5.436,38.528,5.201,39h1.07l0.396-1C6.681,37.946,6.694,37.892,6.707,37.837z"/>
<path style="fill:#BAE0BD;" d="M7.786,21.357c-0.017-0.034-0.039-0.094-0.06-0.147C5.638,20.432,3.375,20,1,20v9.107h0.216
	c0.216,0,0.432-0.216,0.864-0.432c0.648-0.432,1.296-1.079,1.943-1.511c0.649-0.432,1.296-1.079,1.728-1.511
	c0.648-0.432,1.079-1.295,1.295-1.944C7.262,23.277,8.003,22.005,7.786,21.357z"/>
<path style="fill:#5E9C76;" d="M7.786,21.357c-0.017-0.034-0.039-0.094-0.06-0.147C5.638,20.432,3.375,20,1,20v1.02l1,0.007
	c1.627,0.088,3.224,0.391,4.766,0.905c-0.072,0.225-0.222,0.577-0.509,1.126l-0.105,0.203L6.12,23.325l-0.022,0.068
	c-0.215,0.646-0.569,1.206-0.901,1.428l-0.082,0.055l-0.07,0.07c-0.402,0.402-1.009,1.009-1.576,1.387
	c-0.367,0.245-0.716,0.536-1.054,0.817C2.272,27.267,2.134,27.382,2,27.49l-1,0.63v0.987h0.216c0.216,0,0.432-0.216,0.864-0.432
	c0.648-0.432,1.296-1.079,1.943-1.511c0.649-0.432,1.296-1.079,1.728-1.511c0.648-0.432,1.079-1.295,1.295-1.944
	C7.262,23.277,8.003,22.005,7.786,21.357z"/>
<line style="fill:#B0C1D4;stroke:#66798F;stroke-miterlimit:10;" x1="16" y1="8" x2="32" y2="24"/>
<g>
	
		<rect x="10.636" y="4.757" transform="matrix(-0.7071 0.7071 -0.7071 -0.7071 34.1777 2.8431)" style="fill:#DCD5F2;" width="11.728" height="7.485"/>
	<path style="fill:#8B75A1;" d="M18,2.414L22.586,7L15,14.586L10.414,10L18,2.414 M18,1l-9,9l6,6l9-9L18,1L18,1z"/>
</g>
<g>
	
		<rect x="25.636" y="19.757" transform="matrix(-0.7071 0.7071 -0.7071 -0.7071 70.3909 17.8431)" style="fill:#DCD5F2;" width="11.728" height="7.485"/>
	<path style="fill:#8B75A1;" d="M33,17.414L37.586,22L30,29.586L25.414,25L33,17.414 M33,16l-9,9l6,6l9-9L33,16L33,16z"/>
</g>
<line style="fill:#B0C1D4;stroke:#66798F;stroke-miterlimit:10;" x1="16.478" y1="23.522" x2="23.714" y2="16.286"/>
<g>
	<path style="fill:#A3B7CC;" d="M24.224,21.5c-0.229,0-0.444-0.089-0.606-0.251l-4.867-4.866c-0.334-0.334-0.334-0.879,0-1.213
		l6.419-6.419C25.333,8.589,25.547,8.5,25.776,8.5s0.444,0.089,0.606,0.251l4.867,4.866c0.334,0.334,0.334,0.879,0,1.213
		l-6.419,6.419C24.667,21.411,24.453,21.5,24.224,21.5z"/>
	<path style="fill:#66798F;" d="M25.776,9c0.055,0,0.162,0.014,0.253,0.105l4.866,4.866C30.986,14.062,31,14.168,31,14.224
		s-0.014,0.161-0.105,0.253l-6.419,6.419C24.385,20.986,24.279,21,24.224,21c-0.055,0-0.162-0.014-0.253-0.105l-4.866-4.866
		C19.014,15.938,19,15.832,19,15.776s0.014-0.161,0.105-0.253l6.419-6.419C25.615,9.014,25.721,9,25.776,9 M25.776,8
		c-0.347,0-0.695,0.132-0.96,0.397l-6.419,6.419c-0.53,0.53-0.53,1.389,0,1.919l4.866,4.866C23.529,21.868,23.876,22,24.224,22
		s0.695-0.132,0.96-0.397l6.419-6.419c0.53-0.53,0.53-1.389,0-1.919l-4.866-4.866C26.471,8.132,26.124,8,25.776,8L25.776,8z"/>
</g>
<g>
	<path style="fill:#E1EBF2;" d="M13.825,18.117c0.708-0.349,2.017-0.876,3.474-0.876c1.482,0,2.776,0.543,3.847,1.613
		c2.63,2.63,1.382,6.01,0.737,7.32L13.825,18.117z"/>
	<path style="fill:#66798F;" d="M17.298,17.742c1.345,0,2.52,0.493,3.493,1.467c2.075,2.075,1.519,4.648,0.936,6.105l-7.034-7.034
		C15.379,18.009,16.306,17.742,17.298,17.742 M17.298,16.742C14.946,16.742,13,18,13,18l9,9c0,0,3.141-4.857-0.501-8.499
		C20.163,17.165,18.662,16.742,17.298,16.742L17.298,16.742z"/>
</g>
<path style="fill:#7496C4;" d="M19,39h1c0-10.493-8.507-19-19-19v1C10.925,21,19,29.075,19,39z"/>
<line style="fill:#DCD5F2;stroke:#8B75A1;stroke-width:2;stroke-miterlimit:10;" x1="14" y1="11" x2="16" y2="9"/>
<line style="fill:#DCD5F2;stroke:#8B75A1;stroke-width:2;stroke-miterlimit:10;" x1="17" y1="8" x2="19" y2="6"/>
<line style="fill:#DCD5F2;stroke:#8B75A1;stroke-width:2;stroke-miterlimit:10;" x1="29" y1="26" x2="31" y2="24"/>
<line style="fill:#DCD5F2;stroke:#8B75A1;stroke-width:2;stroke-miterlimit:10;" x1="32" y1="23" x2="34" y2="21"/>
</svg>
