<?xml version="1.0" encoding="utf-8"?>
<!-- Generator: Adobe Illustrator 15.0.0, SVG Export Plug-In . SVG Version: 6.00 Build 0)  -->
<!DOCTYPE svg PUBLIC "-//W3C//DTD SVG 1.1//EN" "http://www.w3.org/Graphics/SVG/1.1/DTD/svg11.dtd">
<svg version="1.1"  xmlns="http://www.w3.org/2000/svg" xmlns:xlink="http://www.w3.org/1999/xlink" x="0px" y="0px"
	 width="48px" height="48px" viewBox="0 0 48 48" enable-background="new 0 0 48 48" xml:space="preserve">
<path fill="#546E7A" d="M20.787,25.799c0.391-0.391,1.023-0.391,1.414,0l0,0c0.391,0.391,0.392,1.022,0,1.414l-1.414,1.415
	c-0.391,0.391-1.024,0.39-1.414,0l0,0c-0.391-0.39-0.391-1.023,0-1.415L20.787,25.799z"/>
<g>
	
		<rect x="29.223" y="23.335" transform="matrix(-0.7071 -0.7072 0.7072 -0.7071 37.6757 74.2772)" fill="#673AB7" width="10" height="11.999"/>
	
		<rect x="13.666" y="7.778" transform="matrix(-0.7071 -0.7072 0.7072 -0.7071 22.1201 36.72)" fill="#673AB7" width="10" height="12"/>
</g>
<g>
	
		<rect x="32.87" y="31.017" transform="matrix(-0.7071 -0.7071 0.7071 -0.7071 34.8252 79.4592)" fill="#B39DDB" width="1.998" height="3"/>
	
		<rect x="30.04" y="28.188" transform="matrix(-0.7069 -0.7074 0.7074 -0.7069 31.9812 72.6295)" fill="#B39DDB" width="1.999" height="3"/>
	
		<rect x="36.405" y="27.481" transform="matrix(-0.7069 -0.7074 0.7074 -0.7069 43.3443 75.9245)" fill="#B39DDB" width="1.999" height="3"/>
	
		<rect x="33.577" y="24.653" transform="matrix(-0.7069 -0.7074 0.7074 -0.7069 40.5179 69.0959)" fill="#B39DDB" width="1.999" height="2.999"/>
	
		<rect x="17.313" y="15.461" transform="matrix(-0.7072 -0.707 0.707 -0.7072 19.2717 41.9025)" fill="#B39DDB" width="1.999" height="3"/>
	
		<rect x="14.484" y="12.632" transform="matrix(-0.7072 -0.707 0.707 -0.7072 16.4428 35.0738)" fill="#B39DDB" width="1.999" height="3.001"/>
	
		<rect x="20.848" y="11.925" transform="matrix(-0.7072 -0.707 0.707 -0.7072 27.8075 38.366)" fill="#B39DDB" width="1.999" height="3.001"/>
	
		<rect x="18.02" y="9.096" transform="matrix(-0.7069 -0.7074 0.7074 -0.7069 24.9681 31.5396)" fill="#B39DDB" width="1.999" height="3"/>
</g>
<g>
	
		<rect x="20.444" y="20.557" transform="matrix(-0.7071 -0.7071 0.7071 -0.7071 29.8996 55.4981)" fill="#78909C" width="11.999" height="1.999"/>
	<path fill="#78909C" d="M24.877,31.303c0.385-2.172-0.212-4.533-1.891-6.213c-1.678-1.68-4.041-2.275-6.213-1.891L24.877,31.303z"
		/>
</g>
<path fill="#B0BEC5" d="M28.565,13.778c0.39-0.39,1.022-0.39,1.411,0l4.235,4.235c0.39,0.389,0.391,1.021,0.001,1.412l-7.771,7.789
	c-0.39,0.391-1.022,0.391-1.411,0l-4.235-4.234c-0.39-0.391-0.392-1.021,0-1.412L28.565,13.778z"/>
<path fill="#2196F3" d="M24.262,42C22.907,33,15.354,26.178,6,25.959V42H24.262z"/>
<g>
	<path fill="#CDDC39" d="M11.416,29.721c-0.188-0.375-1.134-0.562-1.511-0.75c-1.36-0.338-2.577-0.516-3.905-0.55v7.647
		c0.127-0.071,0.278-0.172,0.489-0.277c0.57-0.377,1.141-0.939,1.705-1.33c0.57-0.375,1.141-0.94,1.517-1.316
		c0.571-0.389,0.947-1.14,1.142-1.718C11.04,31.051,11.611,30.299,11.416,29.721z"/>
	<path fill="#CDDC39" d="M10.853,41.67c-0.224,0.11-0.439,0.221-0.622,0.33h11.75c-0.119-0.762-0.277-1.511-0.515-2.222
		c-0.376-0.579-0.571-1.142-0.758-1.706c-0.377-0.952-0.947-1.906-1.706-2.658c-0.759-0.953-1.705-3.598-3.41-2.848
		c-0.571,0.189-0.947,0.954-1.33,1.332c-0.375,0.563-0.759,1.141-1.135,1.705c-0.194,0.188-0.382,0.563-0.194,0.764
		c0,0.188,0.194,0.188,0.382,0.188c0.376,0.189,0.571,0.189,0.947,0.377c0.188,0,0.383,0.188,0.188,0.376c0,0,0,0.188-0.188,0.188
		c-0.947,0.953-1.893,1.703-2.846,2.658c-0.188,0.188-0.376,0.564-0.376,0.752c0,0.199,0.188,0.199,0.188,0.388
		C11.228,41.484,11.04,41.484,10.853,41.67z"/>
</g>
</svg>
