<?xml version="1.0" encoding="iso-8859-1"?>
<!-- Generator: Adobe Illustrator 19.1.1, SVG Export Plug-In . SVG Version: 6.00 Build 0)  -->
<svg version="1.1" id="Layer_1" xmlns="http://www.w3.org/2000/svg" xmlns:xlink="http://www.w3.org/1999/xlink" x="0px" y="0px"
	 viewBox="0 0 40 40" style="enable-background:new 0 0 40 40;" xml:space="preserve">
<line style="fill:#B0C1D4;stroke:#66798F;stroke-miterlimit:10;" x1="16" y1="8" x2="32" y2="24"/>
<g>
	
		<rect x="10.636" y="4.757" transform="matrix(-0.7071 0.7071 -0.7071 -0.7071 34.1777 2.8431)" style="fill:#DCD5F2;" width="11.728" height="7.485"/>
	<path style="fill:#8B75A1;" d="M18,2.414L22.586,7L15,14.586L10.414,10L18,2.414 M18,1l-9,9l6,6l9-9L18,1L18,1z"/>
</g>
<g>
	
		<rect x="25.636" y="19.757" transform="matrix(-0.7071 0.7071 -0.7071 -0.7071 70.3909 17.8431)" style="fill:#DCD5F2;" width="11.728" height="7.485"/>
	<path style="fill:#8B75A1;" d="M33,17.414L37.586,22L30,29.586L25.414,25L33,17.414 M33,16l-9,9l6,6l9-9L33,16L33,16z"/>
</g>
<line style="fill:#B0C1D4;stroke:#66798F;stroke-miterlimit:10;" x1="16.478" y1="23.522" x2="23.714" y2="16.286"/>
<g>
	<path style="fill:#A3B7CC;" d="M24.224,21.5c-0.229,0-0.444-0.089-0.606-0.251l-4.867-4.866c-0.334-0.334-0.334-0.879,0-1.213
		l6.419-6.419C25.333,8.589,25.547,8.5,25.776,8.5s0.444,0.089,0.606,0.251l4.867,4.866c0.334,0.334,0.334,0.879,0,1.213
		l-6.419,6.419C24.667,21.411,24.453,21.5,24.224,21.5z"/>
	<path style="fill:#66798F;" d="M25.776,9c0.055,0,0.162,0.014,0.253,0.105l4.866,4.866C30.986,14.062,31,14.168,31,14.224
		c0,0.055-0.014,0.162-0.105,0.253l-6.419,6.419C24.385,20.986,24.279,21,24.224,21s-0.162-0.014-0.253-0.105l-4.866-4.866
		C19.014,15.938,19,15.832,19,15.776c0-0.055,0.014-0.162,0.105-0.253l6.419-6.419C25.615,9.014,25.721,9,25.776,9 M25.776,8
		c-0.347,0-0.695,0.132-0.96,0.397l-6.419,6.419c-0.53,0.53-0.53,1.389,0,1.919l4.866,4.866C23.529,21.868,23.876,22,24.224,22
		c0.347,0,0.695-0.132,0.96-0.397l6.419-6.419c0.53-0.53,0.53-1.389,0-1.919l-4.866-4.866C26.471,8.132,26.124,8,25.776,8L25.776,8z
		"/>
</g>
<g>
	<path style="fill:#E1EBF2;" d="M13.825,18.117c0.708-0.349,2.017-0.876,3.474-0.876c1.482,0,2.776,0.543,3.847,1.613
		c2.63,2.63,1.382,6.01,0.737,7.32L13.825,18.117z"/>
	<path style="fill:#66798F;" d="M17.298,17.742c1.345,0,2.52,0.493,3.493,1.467c2.075,2.075,1.519,4.648,0.936,6.105l-7.034-7.034
		C15.379,18.009,16.306,17.742,17.298,17.742 M17.298,16.742C14.946,16.742,13,18,13,18l9,9c0,0,3.141-4.857-0.501-8.499
		C20.163,17.165,18.662,16.742,17.298,16.742L17.298,16.742z"/>
</g>
<line style="fill:#DCD5F2;stroke:#8B75A1;stroke-width:2;stroke-miterlimit:10;" x1="14" y1="11" x2="16" y2="9"/>
<line style="fill:#DCD5F2;stroke:#8B75A1;stroke-width:2;stroke-miterlimit:10;" x1="17" y1="8" x2="19" y2="6"/>
<line style="fill:#DCD5F2;stroke:#8B75A1;stroke-width:2;stroke-miterlimit:10;" x1="29" y1="26" x2="31" y2="24"/>
<line style="fill:#DCD5F2;stroke:#8B75A1;stroke-width:2;stroke-miterlimit:10;" x1="32" y1="23" x2="34" y2="21"/>
<path style="fill:#8BB7F0;" d="M17,37C9.28,37,3,30.72,3,23H1c0,8.837,7.163,16,16,16V37z"/>
<path style="fill:#8BB7F0;" d="M17,32c-4.963,0-9-4.037-9-9H6c0,6.075,4.925,11,11,11V32z"/>
<path style="fill:#8BB7F0;" d="M17,27c-2.206,0-4-1.794-4-4h-2c0,3.314,2.686,6,6,6V27z"/>
</svg>
