<?xml version="1.0" encoding="utf-8"?>
<!-- Generator: Adobe Illustrator 15.0.0, SVG Export Plug-In . SVG Version: 6.00 Build 0)  -->
<!DOCTYPE svg PUBLIC "-//W3C//DTD SVG 1.1//EN" "http://www.w3.org/Graphics/SVG/1.1/DTD/svg11.dtd">
<svg version="1.1"  xmlns="http://www.w3.org/2000/svg" xmlns:xlink="http://www.w3.org/1999/xlink" x="0px" y="0px"
	 width="48px" height="48px" viewBox="0 0 48 48" enable-background="new 0 0 48 48" xml:space="preserve">
<path fill="none" stroke="#8D6E63" stroke-width="4" stroke-linejoin="round" stroke-miterlimit="10" d="M6.438,41.283
	c18.385-18.385,13.123-25.85,18.779-31.508c3.535-3.535,8.485-1.414,11.313,1.415c2.829,2.828,4.951,7.776,1.415,11.313
	c-4.243,4.242-14.062,1.333-14.062,1.333s-10.688-2.04-14.224,1.495c-3.537,3.537-1.414,8.486,1.414,11.314
	c2.829,2.828,7.778,4.949,11.314,1.414c4.949-4.95,0.789-13.519,19.175-31.902"/>
<g>
	<path fill="#6D4C41" d="M16.438,25.273c-2.074,3.893-5.447,8.628-11.415,14.596l2.828,2.828
		c7.206-7.205,10.888-12.78,13.012-17.271C19.421,25.279,17.881,25.214,16.438,25.273z"/>
	<path fill="#6D4C41" d="M41.579,16.156c-0.485-2.23-1.81-4.556-3.635-6.38c-1.823-1.824-4.149-3.149-6.381-3.635
		c-2.932-0.636-5.691,0.151-7.761,2.22c-2.389,2.391-3.12,5.006-3.967,8.035c-0.404,1.446-0.859,3.052-1.557,4.863
		c1.604,0.037,3.063,0.181,4.155,0.326c0.522-1.497,0.904-2.858,1.254-4.112c0.78-2.792,1.296-4.637,2.942-6.284
		c1.12-1.12,2.455-1.494,4.083-1.139c1.479,0.321,3.125,1.276,4.402,2.554s2.232,2.923,2.555,4.402
		c0.354,1.626-0.02,2.962-1.14,4.083c-1.244,1.243-3.313,1.678-5.436,1.719c-0.76,1.418-1.371,2.739-1.865,3.965
		c3.402,0.219,7.484-0.21,10.129-2.855C41.43,21.848,42.218,19.091,41.579,16.156z"/>
	<path fill="#6D4C41" d="M24.766,22.005c-0.637,1.337-1.147,2.581-1.576,3.74c0.074,0.013,0.154,0.025,0.229,0.039
		c0.299,0.086,0.911,0.252,1.734,0.427c0.439-1.164,0.971-2.418,1.629-3.766C25.992,22.307,25.303,22.15,24.766,22.005z"/>
</g>
</svg>
