<?xml version="1.0" encoding="iso-8859-1"?>
<!-- Generator: Adobe Illustrator 19.1.1, SVG Export Plug-In . SVG Version: 6.00 Build 0)  -->
<svg version="1.1" id="Layer_1" xmlns="http://www.w3.org/2000/svg" xmlns:xlink="http://www.w3.org/1999/xlink" x="0px" y="0px"
	 viewBox="0 0 48 48" style="enable-background:new 0 0 48 48;" xml:space="preserve">
<path style="fill:#FFB74D;" d="M9,21c2.209,0,4,1.791,4,4c0,2.208-1.791,4-4,4s-4-1.792-4-4C5,22.791,6.791,21,9,21"/>
<line style="fill:none;stroke:#2196F3;stroke-width:4;stroke-linecap:round;stroke-linejoin:round;" x1="5" y1="40" x2="17" y2="28"/>
<path style="fill:#2196F3;" d="M11,35.125c-1.539,0,3.048-2.647,2.623-4.204c-0.509-1.865,3.002-4.89,3.002-4.89l10.454-2.408
	c1.867-0.511,3.789,0.591,4.298,2.456s-0.591,3.789-2.456,4.297L12,34C11.691,34.084,11.305,35.125,11,35.125z"/>
<path style="fill:none;stroke:#2196F3;stroke-width:5;stroke-linecap:round;stroke-linejoin:round;" d="M39.66,11.137L37,18
	c0,0-5.598,7.982-8.125,9.667"/>
<path style="fill:#1976D2;" d="M14.247,33.519L17,31l10.104-0.234L14.247,33.519z M37.313,10.27L42,12l3-8
	C39.469,4.938,37.313,10.27,37.313,10.27z"/>
<path style="fill:#CDDC39;" d="M27.317,19.456l0.669,2.925c0.123,0.536-0.216,1.075-0.752,1.198l-10.143,2.346
	c-0.536,0.123-1.075-0.216-1.198-0.752l-0.669-2.925c-0.123-0.536,0.216-1.075,0.752-1.198l10.143-2.346
	C26.656,18.581,27.195,18.92,27.317,19.456z"/>
<circle style="fill:#CDDC39;" cx="16.5" cy="23.5" r="2.5"/>
</svg>
