<?xml version="1.0" encoding="utf-8"?>
<!-- Generator: Adobe Illustrator 15.0.0, SVG Export Plug-In . SVG Version: 6.00 Build 0)  -->
<!DOCTYPE svg PUBLIC "-//W3C//DTD SVG 1.1//EN" "http://www.w3.org/Graphics/SVG/1.1/DTD/svg11.dtd">
<svg version="1.1"  xmlns="http://www.w3.org/2000/svg" xmlns:xlink="http://www.w3.org/1999/xlink" x="0px" y="0px"
	 width="48px" height="48px" viewBox="0 0 48 48" enable-background="new 0 0 48 48" xml:space="preserve">
<rect x="28" y="32" fill="#9FA8DA" width="6" height="4"/>
<g>
	<rect x="5" y="14" fill="#37474F" width="6" height="6"/>
	<rect x="35" y="14" fill="#37474F" width="6" height="6"/>
</g>
<g>
	<path fill="#64B5F6" d="M14.6,9.6c0,0-1.6,3.325-1.6,7.4c0,3.596,0.93,5.395,2.8,8.2C9.8,22.8,8,20,8,20v-7C8,13,11,9.6,14.6,9.6z"
		/>
	<path fill="#64B5F6" d="M31.4,9.6c0,0,1.6,3.325,1.6,7.4c0,3.596-0.93,5.395-2.8,8.2c6-2.4,7.8-5.2,7.8-5.2v-7
		C38,13,35,9.6,31.4,9.6z"/>
</g>
<g>
	<path fill="#90CAF9" d="M31.4,25.2c-1.2,3.6-0.875,4.8-3.525,4.8L23,29l-4.8,1c-2.651,0-2.4-1.2-3.601-4.8V24
		c4.801,3.6,6-4.8,8.4-4.8s3.6,8.399,8.4,4.8V25.2z"/>
	<path fill="#90CAF9" d="M12,10c0,0,3.64-4,11.2-4S34,10,34,10H12z"/>
</g>
<path fill="none" stroke="#3F51B5" stroke-width="2" d="M38,19.2c0,2.65-6.582,5.8-9,5.8c-2.416,0-3.584-6-6-6s-3.584,6-6,6
	c-2.418,0-9-3.149-9-5.8v-4.8c0-2.651,2.916-4.4,6.541-4.4s7.25,1,8.459,1s4.834-1,8.459-1S38,11.749,38,14.4V19.2z"/>
<g>
	<path fill="none" stroke="#455A64" stroke-width="4" d="M34,34c0,0,7,0,7,7"/>
	<circle fill="#455A64" cx="23" cy="34" r="7"/>
</g>
<circle fill="#607D8B" cx="23" cy="34" r="3"/>
</svg>
