<?xml version="1.0" encoding="utf-8"?>
<!-- Generator: Adobe Illustrator 15.0.0, SVG Export Plug-In . SVG Version: 6.00 Build 0)  -->
<!DOCTYPE svg PUBLIC "-//W3C//DTD SVG 1.1//EN" "http://www.w3.org/Graphics/SVG/1.1/DTD/svg11.dtd">
<svg version="1.1"  xmlns="http://www.w3.org/2000/svg" xmlns:xlink="http://www.w3.org/1999/xlink" x="0px" y="0px"
	 width="48px" height="48px" viewBox="0 0 48 48" enable-background="new 0 0 48 48" xml:space="preserve">
<g>
	
		<rect x="6.144" y="37.398" transform="matrix(0.7072 0.707 -0.707 0.7072 30.558 5.9009)" fill="#37474F" width="4.021" height="4.897"/>
	<path fill="#37474F" d="M12.819,39.445c0,0-1.421,1.422-2.843,0c-1.421-1.421-1.421-1.421-1.421-1.421
		c-1.423-1.422,0-2.843,0-2.843l2.842-4.265l5.687,5.686L12.819,39.445z"/>
</g>
<path fill="#546E7A" d="M41.754,13.021L34.98,6.247c-1.662-1.663-4.358-1.663-6.021,0L13.53,21.676
	c-3.533,3.533-3.533,9.261,0,12.795c3.533,3.533,9.262,3.533,12.795,0l15.429-15.429C43.416,17.38,43.416,14.683,41.754,13.021z"/>
<path fill="#37474F" d="M32.012,6.881c-0.512,0-1.023,0.195-1.414,0.586l-9.951,9.951c-0.781,0.781-0.781,2.047,0,2.828l7.108,7.108
	c0.391,0.391,0.902,0.586,1.414,0.586s1.023-0.195,1.414-0.586l9.951-9.951c0.781-0.781,0.781-2.047,0-2.828l-7.108-7.108
	C33.035,7.076,32.523,6.881,32.012,6.881L32.012,6.881z"/>
<rect x="25.564" y="10.374" transform="matrix(0.7071 0.7071 -0.7071 0.7071 21.2709 -16.5312)" fill="#00E5FF" width="10.053" height="14.073"/>
<g>
	
		<rect x="30.417" y="13.563" transform="matrix(0.7072 0.707 -0.707 0.7072 20.0898 -19.3723)" fill="#00ACC1" width="6.032" height="2.011"/>
	
		<rect x="28.015" y="15.34" transform="matrix(0.7069 0.7073 -0.7073 0.7069 20.2123 -16.0906)" fill="#00ACC1" width="3.016" height="2.01"/>
</g>
<g>
	<circle cx="22.001" cy="26" r="2"/>
	<circle cx="16.001" cy="32" r="2"/>
	<circle cx="16.001" cy="26" r="2"/>
	<circle cx="21.991" cy="32.01" r="2"/>
</g>
</svg>
