<?xml version="1.0" encoding="utf-8"?>
<!-- Generator: Adobe Illustrator 15.0.0, SVG Export Plug-In . SVG Version: 6.00 Build 0)  -->
<!DOCTYPE svg PUBLIC "-//W3C//DTD SVG 1.1//EN" "http://www.w3.org/Graphics/SVG/1.1/DTD/svg11.dtd">
<svg version="1.1"  xmlns="http://www.w3.org/2000/svg" xmlns:xlink="http://www.w3.org/1999/xlink" x="0px" y="0px"
	 width="48px" height="48px" viewBox="0 0 48 48" enable-background="new 0 0 48 48" xml:space="preserve">
<polygon fill="#81D4FA" points="6,36 42,36 43,33.998 43,10 42,12 6,12 5,10 5,33.998 "/>
<g>
	<path fill="#03A9F4" d="M43,34h-2c0,1.104-0.897,2-2,2c-1.104,0-2-0.896-2-2h-2c0,1.104-0.897,2-2,2c-1.104,0-2-0.896-2-2h-2
		c0,1.104-0.897,2-2,2c-1.104,0-2-0.896-2-2h-2c0,1.104-0.897,2-2,2c-1.104,0-2-0.896-2-2h-2c0,1.104-0.897,2-2,2
		c-1.104,0-2-0.896-2-2h-2c0,1.104-0.897,2-2,2c-1.104,0-2-0.896-2-2H5c0,0,0,4,4,4c1.2,0,2.266-0.542,3-1.382
		C12.734,37.458,13.8,38,15,38s2.266-0.542,3-1.382C18.734,37.458,19.8,38,21,38s2.266-0.542,3-1.382C24.734,37.458,25.8,38,27,38
		s2.266-0.542,3-1.382C30.734,37.458,31.8,38,33,38s2.266-0.542,3-1.382C36.734,37.458,37.8,38,39,38C43,38,43,34,43,34z"/>
	<path fill="#03A9F4" d="M43,26h-2c0,1.104-0.897,2-2,2c-1.104,0-2-0.896-2-2h-2c0,1.104-0.897,2-2,2c-1.104,0-2-0.896-2-2h-2
		c0,1.104-0.897,2-2,2c-1.104,0-2-0.896-2-2h-2c0,1.104-0.897,2-2,2c-1.104,0-2-0.896-2-2h-2c0,1.104-0.897,2-2,2
		c-1.104,0-2-0.896-2-2h-2c0,1.104-0.897,2-2,2c-1.104,0-2-0.896-2-2H5c0,0,0,4,4,4c1.2,0,2.266-0.542,3-1.382
		C12.734,29.458,13.8,30,15,30s2.266-0.542,3-1.382C18.734,29.458,19.8,30,21,30s2.266-0.542,3-1.382C24.734,29.458,25.8,30,27,30
		s2.266-0.542,3-1.382C30.734,29.458,31.8,30,33,30s2.266-0.542,3-1.382C36.734,29.458,37.8,30,39,30C43,30,43,26,43,26z"/>
	<path fill="#03A9F4" d="M43,18h-2c0,1.104-0.897,2-2,2c-1.104,0-2-0.896-2-2h-2c0,1.104-0.897,2-2,2c-1.104,0-2-0.896-2-2h-2
		c0,1.104-0.897,2-2,2c-1.104,0-2-0.896-2-2h-2c0,1.104-0.897,2-2,2c-1.104,0-2-0.896-2-2h-2c0,1.104-0.897,2-2,2
		c-1.104,0-2-0.896-2-2h-2c0,1.104-0.897,2-2,2c-1.104,0-2-0.896-2-2H5c0,0,0,4,4,4c1.2,0,2.266-0.542,3-1.382
		C12.734,21.458,13.8,22,15,22s2.266-0.542,3-1.382C18.734,21.458,19.8,22,21,22s2.266-0.542,3-1.382C24.734,21.458,25.8,22,27,22
		s2.266-0.542,3-1.382C30.734,21.458,31.8,22,33,22s2.266-0.542,3-1.382C36.734,21.458,37.8,22,39,22C43,22,43,18,43,18z"/>
	<path fill="#03A9F4" d="M43,10h-2c0,1.104-0.897,2-2,2c-1.104,0-2-0.896-2-2h-2c0,1.104-0.897,2-2,2c-1.104,0-2-0.896-2-2h-2
		c0,1.104-0.897,2-2,2c-1.104,0-2-0.896-2-2h-2c0,1.104-0.897,2-2,2c-1.104,0-2-0.896-2-2h-2c0,1.104-0.897,2-2,2
		c-1.104,0-2-0.896-2-2h-2c0,1.104-0.897,2-2,2c-1.104,0-2-0.896-2-2H5c0,0,0,4,4,4c1.2,0,2.266-0.542,3-1.382
		C12.734,13.458,13.8,14,15,14s2.266-0.542,3-1.382C18.734,13.458,19.8,14,21,14s2.266-0.542,3-1.382C24.734,13.458,25.8,14,27,14
		s2.266-0.542,3-1.382C30.734,13.458,31.8,14,33,14s2.266-0.542,3-1.382C36.734,13.458,37.8,14,39,14C43,14,43,10,43,10z"/>
</g>
</svg>
