<?xml version="1.0" encoding="iso-8859-1"?>
<!-- Generator: Adobe Illustrator 19.2.0, SVG Export Plug-In . SVG Version: 6.00 Build 0)  -->
<svg version="1.1"  xmlns="http://www.w3.org/2000/svg" xmlns:xlink="http://www.w3.org/1999/xlink" x="0px" y="0px"
	 viewBox="0 0 48 48" enable-background="new 0 0 48 48" xml:space="preserve">
<path fill="#00BCD4" d="M6,10v28c0,2.2,1.8,4,4,4h28c2.2,0,4-1.8,4-4V10c0-2.2-1.8-4-4-4H10C7.8,6,6,7.8,6,10z"/>
<path fill="#B2EBF2" d="M24,17c-3.9,0-7,3.1-7,7s3.1,7,7,7s7-3.1,7-7S27.9,17,24,17z M24,29.2c-2.9,0-5.2-2.4-5.2-5.2
	s2.4-5.2,5.2-5.2s5.2,2.4,5.2,5.2S26.9,29.2,24,29.2z"/>
<path fill="#80DEEA" d="M24,12c-6.6,0-12,5.4-12,12s5.4,12,12,12s12-5.4,12-12S30.6,12,24,12z M24,34.2c-5.6,0-10.2-4.6-10.2-10.2
	S18.4,13.8,24,13.8S34.2,18.4,34.2,24S29.6,34.2,24,34.2z"/>
<path fill="#4DD0E1" d="M24,7C14.6,7,7,14.6,7,24s7.6,17,17,17s17-7.6,17-17S33.4,7,24,7z M24,39.1c-8.3,0-15.1-6.8-15.1-15.1
	S15.7,8.9,24,8.9S39.1,15.7,39.1,24S32.3,39.1,24,39.1z"/>
<g>
	<circle fill="#E0F7FA" cx="24" cy="24" r="2"/>
</g>
</svg>
