<?xml version="1.0" encoding="utf-8"?>
<!-- Generator: Adobe Illustrator 15.0.0, SVG Export Plug-In . SVG Version: 6.00 Build 0)  -->
<!DOCTYPE svg PUBLIC "-//W3C//DTD SVG 1.1//EN" "http://www.w3.org/Graphics/SVG/1.1/DTD/svg11.dtd">
<svg version="1.1"  xmlns="http://www.w3.org/2000/svg" xmlns:xlink="http://www.w3.org/1999/xlink" x="0px" y="0px"
	 width="48px" height="48px" viewBox="0 0 48 48" enable-background="new 0 0 48 48" xml:space="preserve">
<g>
	<path fill="#5D4037" d="M34,18c0-6-4-14-6-15c0,0-2-1-4-1s-4,1-4,1c-1.517,0.758-4.18,5.542-5.38,10.425l18.683,11.157
		C33.303,24.582,34,21.516,34,18z"/>
</g>
<path fill="#64B5F6" d="M30,26.455c0,3.314-12,3.314-12,0V21c0-3.314,2.687-6,6-6l0,0c3.313,0,6,2.686,6,6V26.455z"/>
<path fill="#8BC34A" d="M14.617,13.424C14.185,14.892,14,16.445,14,18c0,6,4,24,4,24c1,3,1.791,4,4,4h4c2.209,0,3-1,4-4
	c0,0,2.157-10.17,3.303-17.418L14.617,13.424z"/>
<circle fill="#FFD54F" cx="24" cy="10" r="4"/>
<path fill="#558B2F" d="M21.029,27.516c2.036-0.486,12.273-2.934,12.273-2.934L14.617,13.424l3.814,12.648
	C18.432,26.072,18.993,28.002,21.029,27.516z"/>
</svg>
