<?xml version="1.0" encoding="utf-8"?>
<!-- Generator: Adobe Illustrator 19.1.1, SVG Export Plug-In . SVG Version: 6.00 Build 0)  -->
<svg version="1.1"  xmlns="http://www.w3.org/2000/svg" xmlns:xlink="http://www.w3.org/1999/xlink" x="0px" y="0px"
	 viewBox="0 0 48 48" enable-background="new 0 0 48 48" xml:space="preserve">
<path fill="#90A4AE" d="M41,4c0,0,0,0.3-0.2,0.7c-0.1,0.2-0.1,0.5-0.2,0.8c0,0.1-0.1,0.3-0.1,0.5c-0.1,0.2-0.2,0.2-0.3,0.3
	c-0.9,0.9-2.2,2.2-3.4,3.4s-2.5,2.5-3.4,3.4c-0.1,0.1-0.2,0.3-0.3,0.3c-0.2,0.1-0.3,0.1-0.5,0.1c-0.3,0.1-0.5,0.2-0.8,0.2
	C31.3,14,31,14,31,14s0-0.3,0.2-0.7c0.1-0.2,0.1-0.5,0.2-0.8c0-0.1,0.1-0.3,0.1-0.5c0-0.2,0.2-0.2,0.3-0.3c0.9-0.9,2.2-2.2,3.4-3.4
	s2.5-2.5,3.4-3.4c0.1-0.1,0.2-0.3,0.3-0.3c0.2-0.1,0.3-0.1,0.5-0.1c0.3-0.1,0.5-0.2,0.8-0.2C40.7,4,41,4,41,4z"/>
<rect x="25.9" y="4.8" transform="matrix(0.7071 0.7071 -0.7071 0.7071 20.0709 -15.1846)" fill="#B0BEC5" width="5" height="23.7"/>
<path fill="#546E7A" d="M24,27l-6-6l1.7-1.7c0.3-0.3,0.9-0.3,1.2,0l4.8,4.8c0.3,0.3,0.3,0.9,0,1.2L24,27z M15.3,40.4
	c1.3-1.2,2.7-2.4,3.7-2.4c1,0,1.4,0.5,2.1,1.4c0.9,1.1,2,2.6,4.9,2.6c4.3,0,11.6-9.9,13-11.8L37.4,29c-3,4.1-8.8,11-11.4,11
	c-1.9,0-2.5-0.8-3.3-1.8C22,37.2,21,36,19,36c-1.8,0-3.4,1.4-5.1,3c-1.6,1.5-3.3,3-5.1,3C8.7,42,7,42,7,41c0-1.3,0.8-2.7,2.7-4.2
	l-1.3-1.5C6.1,37.2,5,39,5,41c0,1.8,1.6,3,3.9,3C11.4,44,13.5,42.1,15.3,40.4z"/>
<path fill="#FF6D00" d="M24.7,26.7l-6.4-6.4c-0.4-0.4-1-0.3-1.3,0c-0.4,0.4-0.9,3.7-2,4.7l-7.1,7.1c-1.3,1.3-1.3,3.3,0,4.5l0.4,0.4
	c1.3,1.3,3.3,1.3,4.5,0l7-7c0,0,0.1,0,0.1,0c1.1-1.1,4.3-1.6,4.7-2S25.1,27.1,24.7,26.7z"/>
</svg>
