<?xml version="1.0" encoding="utf-8"?>
<!-- Generator: Adobe Illustrator 19.1.1, SVG Export Plug-In . SVG Version: 6.00 Build 0)  -->
<svg version="1.1"  xmlns="http://www.w3.org/2000/svg" xmlns:xlink="http://www.w3.org/1999/xlink" x="0px" y="0px"
	 viewBox="0 0 48 48" enable-background="new 0 0 48 48" xml:space="preserve">
<path fill="#9FA8DA" d="M36,19l-13-1c0,0-5.8-5-8.6-8.1c-1-1.1-2.3-1.9-3.8-1.9H7v14v4v14h3.5c1.5,0,2.8-0.8,3.8-1.9
	C17.3,35,23,30,23,30l13-1V19z"/>
<path fill="#7986CB" d="M7,32.8v-2c4.2-0.7,6-1.8,6-1.8s20.3,0,23,0l-13,1c0,0-0.4,0.4-1.1,1h-8.3C12.6,31.6,10.6,32.4,7,32.8z
	 M7,15.2v2c4.3,0.6,6,1.8,6,1.8s20.3,0,23,0l-13-1c0,0-0.4-0.4-1.1-1h-8.3C12.6,16.4,10.6,15.6,7,15.2z"/>
<path fill="#C5CAE9" d="M36,19c-2.5,0-23,0-23,0s-3-2-10-2v14c6.8,0,10-2,10-2s20.3,0,23,0s11-2.8,11-5S38.5,19,36,19z"/>
<path fill="#455A64" d="M10.5,8H7V6h3.5c1.5,0,2.7,0.9,3.8,1.9C18.3,11.5,24,17,24,17c5.5,1.3,12,2,12,2c-1.2,0-6.8,0-12.2,0
	c-0.1,0-0.2,0-0.2,0L23,18.8l-0.4-0.4c-0.1-0.1-5.8-5.5-9.6-9.1C12,8.4,11.3,8,10.5,8z M23.6,29L23,29.2l-0.4,0.4
	c-0.1,0.1-5.8,5.5-9.6,9.1c-1,1-1.8,1.4-2.5,1.4H7v2h3.5c1.5,0,2.7-0.9,3.8-1.9C18.3,36.5,24,31,24,31c5.5-1.3,12-2,12-2
	c-1.3,0-6.9,0-12.2,0C23.7,29,23.6,29,23.6,29z"/>
<path fill="#546E7A" d="M1,22v-4h2v4H1z M3,30v-4H1v4H3z"/>
<path fill="#455A64" d="M47,24c0,0.9-1.3,1.8-3,2.7v-5.3C45.7,22.2,47,23.1,47,24z M41,24c0-2.2-1.2-3.6-1.3-3.7l-1.5,1.3
	c0,0,0.8,0.9,0.8,2.3s-0.7,2.3-0.7,2.3l1.5,1.3C39.8,27.6,41,26.2,41,24z"/>
<polygon fill="#9FA8DA" points="13,19 13,23 3,23 3,25 13,25 13,29 15,29 15,19 "/>
</svg>
