<?xml version="1.0" encoding="utf-8"?>
<!-- Generator: Adobe Illustrator 19.1.1, SVG Export Plug-In . SVG Version: 6.00 Build 0)  -->
<svg version="1.1"  xmlns="http://www.w3.org/2000/svg" xmlns:xlink="http://www.w3.org/1999/xlink" x="0px" y="0px"
	 viewBox="0 0 48 48" enable-background="new 0 0 48 48" xml:space="preserve">
<path fill="none" stroke="#9FA8DA" stroke-width="4" stroke-linecap="round" stroke-miterlimit="10" d="M19.9,40.3
	c1.2-2.6,4.4-6.4,8.7-10C35,25,41.3,22,42.7,23.7c1.4,1.7-2.3,7-8.6,12.4 M36,17.2c-1.7-1.4-7.3,2.9-12.4,9.4s-7.8,12.9-6,14.3
	s7.3-2.9,12.4-9.4S37.7,18.6,36,17.2z M27.6,12.1c-2-0.9-6.5,4.4-10,11.9s-4.7,14.4-2.7,15.3s6.5-4.4,10-11.9S29.6,13,27.6,12.1z
	 M9,8c-2.2,0-4,6.7-4,15s1.8,15,4,15s4-6.7,4-15S11.2,8,9,8z M18.5,9c-2.2-0.5-5.4,5.7-7.2,13.8s-1.5,15,0.7,15.5s5.4-5.7,7.2-13.8
	S20.7,9.5,18.5,9z"/>
<path fill="#5C6BC0" d="M31.7,25.4c-0.9,1.5-2,3.1-3.3,4.9c-3.1,4-5.9,6.5-7.7,7.8c2.1-2.5,4-5.7,5.1-7.9c0.5-0.5,1.1-0.9,1.6-1.4
	C28.8,27.5,30.3,26.4,31.7,25.4z M15.8,23.2c-0.3,0.6-0.6,1.3-0.8,1.9c-0.1,2.4-0.4,6-1.2,9c1.1-2,2.4-5.4,3.5-10v0
	c0.5-2,0.7-3.9,0.9-5.5C17,20.6,16.2,22.4,15.8,23.2z M22,25.4c-0.5,0.7-1,1.3-1.5,2c-0.6,2.2-1.6,5.4-2.9,8
	c1.5-1.8,3.5-4.7,5.4-8.9c0.8-1.7,1.4-3.2,1.9-4.6C23.6,23.5,22.5,24.8,22,25.4z M8.2,33.5c0.3,0.9,0.5,1.6,0.8,2.1
	c0.8-1.5,2-5.9,2-12.6c0-2-0.1-3.8-0.3-5.4c-0.5,1.5-0.9,3.1-1.3,4.8C9.1,24,8,29.1,8.2,33.5z"/>
<path fill="#7986CB" d="M15.3,41.4c-0.4,0-0.9-0.1-1.3-0.3c-0.4-0.2-0.8-0.5-1.1-0.8c1.8-0.4,3.4-2.4,4.6-4.8c1.4-1.6,3.2-4.3,5-8
	C21.3,32.5,19,39,15.3,41.4z M37.8,22c-0.7,2.1-2,4.3-3.2,6.2c1.3-0.9,2.5-1.5,3.5-2c0.1-0.2,0.3-0.5,0.4-0.7
	c0.8-1.5,1.3-2.9,1.6-4.2C39.4,21.5,38.7,21.7,37.8,22z M32.5,15.7c0,0.7-0.1,1.5-0.3,2.3c-0.2,1-0.4,2.1-0.8,3.2
	c-0.9,0.8-1.9,1.7-3,2.9c0.9-2.3,1.5-4.5,1.8-6.5c0-0.2,0.1-0.4,0.1-0.7C31.1,16.5,31.8,16,32.5,15.7z M17.4,43.1
	c-0.4-0.1-0.7-0.3-1-0.5c-0.4-0.3-0.7-0.7-0.9-1.1c1.7,0,3.5-1.4,5.2-3.3c1.6-1.1,3.9-3.2,6.5-6.3C24.8,36.3,21.3,41.6,17.4,43.1z
	 M24.1,11.2c0.1,0.8,0.2,1.6,0.3,2.6c0,0.9,0,1.8,0,2.8c-0.7,0.9-1.5,2-2.3,3.3c0.3-2.2,0.4-4.3,0.3-6.1c0-0.4,0-0.7-0.1-1
	C22.9,12.2,23.5,11.6,24.1,11.2z M16.3,14.2c-0.5,1-1,2.3-1.5,3.8c-0.2-2.3-0.6-4.9-1.3-7.1c0.5-0.8,0.9-1.5,1.4-2
	C15.6,10.6,16,12.4,16.3,14.2z M12.9,40.3c-0.2,0-0.4,0.1-0.6,0.1c-0.2,0-0.5,0-0.7-0.1c-0.5-0.1-0.9-0.3-1.3-0.6
	c1.7-0.8,2.7-3,3.4-5.6c1-1.8,2.2-4.8,3.2-8.7C16.8,30.1,16,37.1,12.9,40.3z"/>
</svg>
