<?xml version="1.0" encoding="utf-8"?>
<!-- Generator: Adobe Illustrator 15.0.0, SVG Export Plug-In . SVG Version: 6.00 Build 0)  -->
<!DOCTYPE svg PUBLIC "-//W3C//DTD SVG 1.1//EN" "http://www.w3.org/Graphics/SVG/1.1/DTD/svg11.dtd">
<svg version="1.1"  xmlns="http://www.w3.org/2000/svg" xmlns:xlink="http://www.w3.org/1999/xlink" x="0px" y="0px"
	 width="48px" height="48px" viewBox="0 0 48 48" enable-background="new 0 0 48 48" xml:space="preserve">
<path  fill="#004D40" d="M10,36v2c0,1.1,0.9,2,2,2h24c1.1,0,2-0.9,2-2v-2H10z"/>
<path  fill="#009688" d="M44,24v10c0,1.2-0.8,2-2,2H6c-1.2,0-2-0.8-2-2V24H44z"/>
<path  fill="#80CBC4" d="M8,12c-0.8,0-1.8,0.6-2,1.6l-2,10C3.8,24.8,4.8,26,6,26h36c1.2,0,2.2-1.2,2-2.4l-2-10
	c-0.2-1-1.2-1.6-2-1.6H8z"/>
<g >
	<ellipse  fill="#FFCC80" cx="24" cy="8.5" rx="3" ry="1.5"/>
	<path  fill="#FFCC80" d="M27,11.3c0,2.1,0,4.1,0,4.2c0,0.8-1.3,1.5-3,1.5s-3-0.7-3-1.5c0-0.2,0-2.1,0-4.2
		c-3.5,0.6-6,2.3-6,4.2c0,2.5,4,4.5,9,4.5s9-2,9-4.5C33,13.5,30.5,11.9,27,11.3z"/>
</g>
<g >
	<path  fill="#FF9800" d="M24,20c-5,0-9-2-9-4.5c0,0.3,0,2.7,0,3c0,2.5,4,4.5,9,4.5s9-2,9-4.5c0-0.3,0-2.7,0-3
		C33,18,29,20,24,20z"/>
	<path  fill="#FF9800" d="M24,10c-1.7,0-3-0.7-3-1.5c0,0.4,0,6.6,0,7c0,0.8,1.3,1.5,3,1.5s3-0.7,3-1.5
		c0-0.4,0-6.6,0-7C27,9.3,25.7,10,24,10z"/>
</g>
</svg>
