<?xml version="1.0" encoding="utf-8"?>
<!-- Generator: Adobe Illustrator 19.1.1, SVG Export Plug-In . SVG Version: 6.00 Build 0)  -->
<svg version="1.1"  xmlns="http://www.w3.org/2000/svg" xmlns:xlink="http://www.w3.org/1999/xlink" x="0px" y="0px"
	 viewBox="0 0 48 48" enable-background="new 0 0 48 48" xml:space="preserve">
<path fill="none" stroke="#03A9F4" stroke-width="4" stroke-linejoin="round" stroke-miterlimit="10" d="M6.6,20.7
	c0,0,2.2-2.7,2.8-2.7s4.1,2,4.6,2s3.6-2,4-2s2.2,1,3,1s5.1-6,6-6c1.2,0,4.3,4,6,4c0.8,0,2.2-3,3-3s2.4,2,3,2s2-9.7,2-9.7"/>
<rect x="5" y="40" fill="#CFD8DC" width="38" height="2"/>
<path fill="#607D8B" d="M14,8c0-0.6,0.4-1,1-1s1,0.4,1,1c0,0.6-0.4,1-1,1S14,8.6,14,8 M14,11c0,0.6,0.4,1,1,1s1-0.4,1-1
	c0-0.6-0.4-1-1-1S14,10.4,14,11 M14,14c0,0.6,0.4,1,1,1s1-0.4,1-1c0-0.6-0.4-1-1-1S14,13.4,14,14 M14,26c0,0.6,0.4,1,1,1s1-0.4,1-1
	c0-0.6-0.4-1-1-1S14,25.4,14,26 M14,29c0,0.6,0.4,1,1,1s1-0.4,1-1c0-0.6-0.4-1-1-1S14,28.4,14,29 M14,32c0,0.6,0.4,1,1,1s1-0.4,1-1
	c0-0.6-0.4-1-1-1S14,31.4,14,32 M14,35c0,0.6,0.4,1,1,1s1-0.4,1-1c0-0.6-0.4-1-1-1S14,34.4,14,35 M14,38c0,0.6,0.4,1,1,1s1-0.4,1-1
	c0-0.6-0.4-1-1-1S14,37.4,14,38 M14,17c0,0.6,0.4,1,1,1s1-0.4,1-1c0-0.6-0.4-1-1-1S14,16.4,14,17 M14,20c0,0.6,0.4,1,1,1s1-0.4,1-1
	c0-0.6-0.4-1-1-1S14,19.4,14,20 M14,23c0,0.6,0.4,1,1,1s1-0.4,1-1c0-0.6-0.4-1-1-1S14,22.4,14,23 M32,8c0,0.6,0.4,1,1,1s1-0.4,1-1
	c0-0.6-0.4-1-1-1S32,7.4,32,8 M32,11c0,0.6,0.4,1,1,1s1-0.4,1-1c0-0.6-0.4-1-1-1S32,10.4,32,11 M32,14c0,0.6,0.4,1,1,1s1-0.4,1-1
	c0-0.6-0.4-1-1-1S32,13.4,32,14 M32,26c0,0.6,0.4,1,1,1s1-0.4,1-1c0-0.6-0.4-1-1-1S32,25.4,32,26 M32,29c0,0.6,0.4,1,1,1s1-0.4,1-1
	c0-0.6-0.4-1-1-1S32,28.4,32,29 M32,32c0,0.6,0.4,1,1,1s1-0.4,1-1c0-0.6-0.4-1-1-1S32,31.4,32,32 M32,35c0,0.6,0.4,1,1,1s1-0.4,1-1
	c0-0.6-0.4-1-1-1S32,34.4,32,35 M32,38c0,0.6,0.4,1,1,1s1-0.4,1-1c0-0.6-0.4-1-1-1S32,37.4,32,38 M32,17c0,0.6,0.4,1,1,1s1-0.4,1-1
	c0-0.6-0.4-1-1-1S32,16.4,32,17 M32,20c0,0.6,0.4,1,1,1s1-0.4,1-1c0-0.6-0.4-1-1-1S32,19.4,32,20 M32,23c0,0.6,0.4,1,1,1s1-0.4,1-1
	c0-0.6-0.4-1-1-1S32,22.4,32,23"/>
</svg>
