<?xml version="1.0" encoding="utf-8"?>
<!-- Generator: Adobe Illustrator 15.0.0, SVG Export Plug-In . SVG Version: 6.00 Build 0)  -->
<!DOCTYPE svg PUBLIC "-//W3C//DTD SVG 1.1//EN" "http://www.w3.org/Graphics/SVG/1.1/DTD/svg11.dtd">
<svg version="1.1"  xmlns="http://www.w3.org/2000/svg" xmlns:xlink="http://www.w3.org/1999/xlink" x="0px" y="0px"
	 width="48px" height="48px" viewBox="0 0 48 48" enable-background="new 0 0 48 48" xml:space="preserve">
<g>
	<path fill="#56300D" d="M42.001,19c-0.367,0-0.72-0.202-0.896-0.553l-2-4c-0.247-0.494-0.047-1.095,0.447-1.342
		c0.495-0.248,1.094-0.046,1.342,0.447l2,4c0.247,0.494,0.047,1.095-0.447,1.342C42.304,18.966,42.151,19,42.001,19z"/>
	<path fill="#56300D" d="M43.001,32c-0.323,0-0.641-0.156-0.833-0.445C40.024,28.34,40,24.176,40,24c0-0.552,0.447-0.999,0.999-1H41
		c0.551,0,0.998,0.447,1,0.998c0,0.037,0.031,3.745,1.832,6.447c0.307,0.46,0.183,1.08-0.277,1.387
		C43.384,31.945,43.191,32,43.001,32z"/>
	<path fill="#56300D" d="M18,14c0,0.553-0.447,1-1,1l0,0c-0.553,0-1-0.447-1-1v-4c0-0.553,0.447-1,1-1l0,0c0.553,0,1,0.447,1,1V14z"
		/>
	<path fill="#56300D" d="M28,14c0,0.553-0.447,1-1,1l0,0c-0.553,0-1-0.447-1-1v-4c0-0.553,0.447-1,1-1l0,0c0.553,0,1,0.447,1,1V14z"
		/>
</g>
<g>
	<path fill="#C68632" d="M27.5,8h-11C15.672,8,15,8.672,15,9.5c0,0.652,0.419,1.201,1,1.408V10c0-0.553,0.447-1,1-1s1,0.447,1,1v1h8
		v-1c0-0.553,0.447-1,1-1s1,0.447,1,1v0.908c0.581-0.207,1-0.756,1-1.408C29,8.672,28.328,8,27.5,8z"/>
	<path fill="#C68632" d="M40,39c0,0.553-0.447,1-1,1H5c-0.553,0-1-0.447-1-1V14c0-0.553,0.447-1,1-1l36,0.003c0.553,0,1,0.447,1,1
		v1.004l-2,0.992V39z"/>
	<path fill="#C68632" d="M41,24.5c0,0.828,0.672,1.5,1.5,1.5l0,0c0.828,0,1.5-0.672,1.5-1.5v-6c0-0.828-0.672-1.5-1.5-1.5l0,0
		c-0.828,0-1.5,0.672-1.5,1.5V24.5z"/>
</g>
<path fill="#995F1A" d="M40,23L4,17v-3c0-0.553,0.447-1,1-1l36,0.003c0.553,0,1,0.447,1,1V15l-2,1.003V23z"/>
<g>
	<g>
		<rect x="8" y="24" fill="#FFD54F" width="2" height="2"/>
		<rect x="12" y="24" fill="#FFD54F" width="10" height="2"/>
	</g>
	<g>
		<rect x="8" y="28" fill="#FFD54F" width="8" height="2"/>
		<rect x="18" y="28" fill="#FFD54F" width="12" height="2"/>
	</g>
	<rect x="8" y="32" fill="#FFD54F" width="5" height="2"/>
	<g>
		<rect x="27" y="32" fill="#FFD54F" width="3" height="2"/>
		<rect x="15" y="32" fill="#FFD54F" width="10" height="2"/>
	</g>
</g>
</svg>
