<?xml version="1.0" encoding="iso-8859-1"?>
<!-- Generator: Adobe Illustrator 19.1.1, SVG Export Plug-In . SVG Version: 6.00 Build 0)  -->
<svg version="1.1" id="Layer_1" xmlns="http://www.w3.org/2000/svg" xmlns:xlink="http://www.w3.org/1999/xlink" x="0px" y="0px"
	 viewBox="0 0 48 48" style="enable-background:new 0 0 48 48;" xml:space="preserve">
<rect x="21" y="13" style="fill:#CFD8DC;" width="2" height="30"/>
<rect x="21" y="13" style="fill:#B0BEC5;" width="2" height="11"/>
<path style="fill:#5D4037;" d="M38.051,38.316l-2-6l1.897-0.633l2,6L38.051,38.316z M8,38v5h3v-5H8z M37,38v5h3v-5H37z"/>
<path style="fill:#FFE0B2;" d="M42.882,28l-1.901-2.258c-0.695-0.859-1.954-0.991-2.813-0.296L27.25,34H7c-1.105,0-2,0.895-2,2v2h24
	l2.182-1L42.882,28z"/>
<polygon style="fill:#00BCD4;" points="5,17 22,5.25 39,17 29,20 15,20 "/>
<polygon style="fill:#80DEEA;" points="15,20 22,5.25 29,20 "/>
<path style="fill:#00838F;" d="M23,6h-2V5c0-0.552,0.448-1,1-1h0c0.552,0,1,0.448,1,1V6z"/>
<polygon style="fill:#8D6E63;" points="31.457,37 42.984,28.114 41.706,26.576 28.18,37 5,37 5,39 43,39 43,37 "/>
</svg>
