<?xml version="1.0" encoding="utf-8"?>
<!-- Generator: Adobe Illustrator 15.0.0, SVG Export Plug-In . SVG Version: 6.00 Build 0)  -->
<!DOCTYPE svg PUBLIC "-//W3C//DTD SVG 1.1//EN" "http://www.w3.org/Graphics/SVG/1.1/DTD/svg11.dtd">
<svg version="1.1"  xmlns="http://www.w3.org/2000/svg" xmlns:xlink="http://www.w3.org/1999/xlink" x="0px" y="0px"
	 width="48px" height="48px" viewBox="0 0 48 48" enable-background="new 0 0 48 48" xml:space="preserve">
<g>
	<g>
		<path fill="#9FA8DA" d="M39,21L28,8.167v9.269c2.07,2.34,4.827,5.392,7,7.564c3.535,3.535,8,3,8,3L39,21z"/>
	</g>
	<path fill="#9FA8DA" d="M18,33.906c-1.318-0.203-3.629-0.85-5-2.906c-1-2-1-4-1-4s0-3-3-3c0,0,2,4,0,4c-1,0-2-1-2-6c0,0-2,1-2,4
		c0,2.896,3.745,8.583,13,12.572V33.906z"/>
	<g>
		<path fill="#9FA8DA" d="M18,16.222c-0.08-0.076-0.155-0.147-0.237-0.226H16v-2h-2v-2h-2v-1.989
			c-0.003-0.003-0.006-0.007-0.01-0.011H10V8.065C6,8,4,5,4,5s0,6,2,8c1,1,12,12,12,12V16.222z"/>
	</g>
</g>
<path fill="#FF3D00" d="M29,37c0,3.314-2.687,6-6,6l0,0c-3.313,0-6-2.686-6-6V11c0-3.314,2.687-6,6-6l0,0c3.313,0,6,2.686,6,6V37z"
	/>
<g>
	<rect x="22" y="33" fill="#FFFFFF" width="2" height="6"/>
	<rect x="20" y="35" fill="#FFFFFF" width="6" height="2"/>
</g>
<circle fill="#DD2C00" cx="23" cy="12" r="2"/>
<g>
	<path fill="#7986CB" d="M28.604,8.872C28.856,9.534,29,10.25,29,11v4.547c0.604,0.686,1.281,1.448,2,2.249v-6.13L28.604,8.872z"/>
	<g>
		<path fill="#7986CB" d="M15,22c0.786,0.786,1.479,1.479,2,2v-6.172l-2-1.998V22z"/>
	</g>
	<path fill="#7986CB" d="M17,37v-3.307c-0.623-0.168-1.32-0.429-2-0.831V37c0,0.043,0.006,0.086,0.007,0.129
		c0.67,0.362,1.366,0.719,2.112,1.063C17.041,37.806,17,37.408,17,37z"/>
</g>
<g>
	<g>
		<path fill="#C5CAE9" d="M41.865,26.014c-1.248-0.078-3.528-0.505-5.451-2.428c-1.641-1.641-3.641-3.815-5.414-5.79v3.022
			c1.362,1.49,2.77,2.979,4,4.182c3.709,3.625,7.914,3.008,7.945,3.006c0.002,0,0.003-0.001,0.004-0.001C42.982,28.002,43,28,43,28
			L41.865,26.014z"/>
	</g>
	<path fill="#C5CAE9" d="M15,13.996h-1v-1.992c-0.003-0.002-0.006-0.005-0.008-0.008H12v-1.989c-0.003-0.003-0.006-0.007-0.01-0.011
		H10V8.065C6,8,4,5,4,5s0.002,1.379,0.223,3.033c1.13,0.878,2.762,1.77,4.917,1.984l1.437,1.393L15,15.83V13.996z"/>
</g>
</svg>
