<?xml version="1.0"?>
<svg xmlns="http://www.w3.org/2000/svg" width="26" height="26" viewBox="0 0 26 26">
    <path d="M 13 0.09375 C 10.791 0.09375 9 1.88475 9 4.09375 L 9 13.5 C 7.2953692 14.738109 6.1875 16.731478 6.1875 19 C 6.1875 22.764 9.236 25.8125 13 25.8125 C 16.764 25.8125 19.8125 22.764 19.8125 19 C 19.8125 16.733279 18.702038 14.738095 17 13.5 L 17 10 L 20 10 L 20 8 L 17 8 L 17 5 L 20 5 L 20 3 L 16.8125 3 C 16.335199 1.3248833 14.828168 0.09375 13 0.09375 z M 13 2.09375 C 14.103 2.09375 15 2.99075 15 4.09375 L 15 6 L 12 6 L 12 12.28125 L 12 13.125 L 12 14.09375 C 12 15.02875 11.59725 15.26075 11.40625 15.34375 C 9.99325 15.95975 9 17.362 9 19 C 9 19.276 8.776 19.5 8.5 19.5 C 8.224 19.5 8 19.276 8 19 C 8 17.194 8.96625 15.626 10.40625 14.75 C 10.562525 14.655413 10.867522 14.439 10.96875 14 L 11 14 L 11 13.6875 L 11 12.5 L 11 4.09375 C 11 2.99075 11.897 2.09375 13 2.09375 z"/>
</svg>
