<?xml version="1.0" encoding="iso-8859-1"?>
<!-- Generator: Adobe Illustrator 19.2.1, SVG Export Plug-In . SVG Version: 6.00 Build 0)  -->
<svg version="1.1" id="Layer_1" xmlns="http://www.w3.org/2000/svg" xmlns:xlink="http://www.w3.org/1999/xlink" x="0px" y="0px"
	 viewBox="0 0 48 48" style="enable-background:new 0 0 48 48;" xml:space="preserve">
<rect x="16" y="4" style="fill:#C5CAE9;" width="16" height="40"/>
<rect x="24" y="4" style="fill:#9FA8DA;" width="8" height="40"/>
<polygon style="fill:#7986CB;" points="32,10 16,6 16,4 32,8 "/>
<polygon style="fill:#7986CB;" points="32,14 16,10 16,8 32,12 "/>
<polygon style="fill:#7986CB;" points="32,18 16,14 16,12 32,16 "/>
<polygon style="fill:#7986CB;" points="32,22 16,18 16,16 32,20 "/>
<polygon style="fill:#7986CB;" points="24,4 32,6 32,4 "/>
<path style="fill:#F44336;" d="M34,29H14v6c0,1.105,0.895,2,2,2h16c1.105,0,2-0.895,2-2V29z"/>
<rect x="10" y="19" style="fill:#F44336;" width="28" height="10"/>
<rect x="14" y="29" style="fill:#D32F2F;" width="20" height="2"/>
</svg>
