<?xml version="1.0" encoding="utf-8"?>
<!-- Generator: Adobe Illustrator 15.0.0, SVG Export Plug-In . SVG Version: 6.00 Build 0)  -->
<!DOCTYPE svg PUBLIC "-//W3C//DTD SVG 1.1//EN" "http://www.w3.org/Graphics/SVG/1.1/DTD/svg11.dtd">
<svg version="1.1"  xmlns="http://www.w3.org/2000/svg" xmlns:xlink="http://www.w3.org/1999/xlink" x="0px" y="0px"
	 width="48px" height="48px" viewBox="0 0 48 48" enable-background="new 0 0 48 48" xml:space="preserve">
<path  fill="#607D8B" d="M12,12v14c0,1.1,0.9,2,2,2h20c1.1,0,2-0.9,2-2V12H12z"/>
<g >
	<path  fill="#37474F" d="M36,17c-1.7,0-3,1.3-3,3s1.3,3,3,3V17z"/>
	<path  fill="#37474F" d="M12,23c1.7,0,3-1.3,3-3s-1.3-3-3-3V23z"/>
</g>
<g >
	<rect  x="22" y="28" fill="#FF9800" width="4" height="16"/>
	<rect  x="30" y="28" fill="#FF9800" width="4" height="16"/>
	<rect  x="14" y="28" fill="#FF9800" width="4" height="16"/>
	<path  fill="#FF9800" d="M16,4l-4,4v4h24V8l-4-4H16z M24,10c-1.1,0-2-0.9-2-2s0.9-2,2-2c1.1,0,2,0.9,2,2
		S25.1,10,24,10z"/>
</g>
</svg>
