<?xml version="1.0" encoding="utf-8"?>
<!-- Generator: Adobe Illustrator 15.0.0, SVG Export Plug-In . SVG Version: 6.00 Build 0)  -->
<!DOCTYPE svg PUBLIC "-//W3C//DTD SVG 1.1//EN" "http://www.w3.org/Graphics/SVG/1.1/DTD/svg11.dtd">
<svg version="1.1"  xmlns="http://www.w3.org/2000/svg" xmlns:xlink="http://www.w3.org/1999/xlink" x="0px" y="0px"
	 width="48px" height="48px" viewBox="0 0 48 48" enable-background="new 0 0 48 48" xml:space="preserve">
<polygon fill="#263238" points="35,37 23.958,41 13,37 13,25 35,25 "/>
<path fill="#C5CAE9" d="M42,13c0,7,0,17-18,17S6,20,6,13"/>
<g>
	<ellipse fill="#7986CB" cx="24" cy="13" rx="18" ry="7"/>
	<path fill="#7986CB" d="M30,36c-2,0-3-6-6-6s-4,6-6,6s-3-8-5-8c0,0,0,6.238,0,9s4.925,5,11,5s11-2.238,11-5c0-2.682,0-9,0-9
		C33,28,32,36,30,36z M25,39h-2v-3h2V39z"/>
</g>
<path fill="#5C6BC0" d="M11.414,18C14.659,19.236,19.1,20,24,20s9.341-0.764,12.586-2C33.341,16.764,28.9,16,24,16
	S14.659,16.764,11.414,18z"/>
</svg>
