<?xml version="1.0" encoding="iso-8859-1"?>
<!-- Generator: Adobe Illustrator 19.1.1, SVG Export Plug-In . SVG Version: 6.00 Build 0)  -->
<svg version="1.1"  xmlns="http://www.w3.org/2000/svg" xmlns:xlink="http://www.w3.org/1999/xlink" x="0px" y="0px"
	 viewBox="0 0 48 48" style="enable-background:new 0 0 48 48;" xml:space="preserve">
<path style="fill:#F9A825;" d="M14.998,44c-0.3,0-0.605-0.066-0.893-0.211c-0.988-0.494-1.389-1.695-0.895-2.684l3.841-7.68
	l0.479-8.863c0.121-1.098,1.593-1.672,2.689-1.551c1.098,0.121,2.339,1.109,2.217,2.207l-1.45,9.002
	c-0.025,0.234-0.093,0.463-0.198,0.674l-4,8C16.438,43.596,15.732,44,14.998,44z"/>
<path style="fill:#2D4C5C;" d="M21.184,33l1.254-7.781c0.122-1.098-1.119-2.086-2.217-2.207c-1.097-0.121-2.568,0.453-2.689,1.551
	L17.075,33H21.184z"/>
<rect x="35" y="13" style="fill:#795548;" width="2" height="31"/>
<path style="fill:#FFB74D;" d="M26,4c2.209,0,4,1.791,4,4c0,2.208-1.791,4-4,4s-4-1.792-4-4C22,5.791,23.791,4,26,4"/>
<path style="fill:#FFB74D;" d="M26.002,44c-0.144,0-0.29-0.016-0.436-0.047c-1.078-0.24-1.759-1.309-1.518-2.387l1.742-7.844
	l-7.103-6.129c-0.831-0.726-0.92-2.078-0.192-2.91C19.222,23.852,21.166,22.271,22,23l7.317,8.496
	c0.55,0.481,0.794,1.223,0.635,1.938l-2,9C27.745,43.367,26.919,44,26.002,44z"/>
<path style="fill:#FFB74D;" d="M30.832,20c-0.291,0-0.581-0.086-0.832-0.252L23.668,16c-0.689-0.461-0.876-1.391-0.416-2.08
	c0.459-0.691,1.39-0.877,2.08-0.416l5.607,3.266l4.985-2.611c0.742-0.371,1.642-0.068,2.013,0.67c0.37,0.742,0.07,1.643-0.671,2.014
	l-5.764,3C31.291,19.947,31.061,20,30.832,20z"/>
<path style="fill:#5EC08F;" d="M10.094,20.083c-0.312,1.061,0.111,3.161,2.029,3.725l3.031,1.109
	c1.06,0.313,2.283-0.203,2.596-1.261l2.281-7.844c0.313-1.059,0.434-1.938-0.625-2.25l-1.687-0.516
	c-1.919-0.566-6.212,2.242-7.343,6.078C10.094,20.083,10.094,20.083,10.094,20.083z"/>
<path style="fill:#FF66A1;" d="M21.001,28.5c-0.367,0-0.74-0.059-1.107-0.18c-1.834-0.612-2.825-2.594-2.214-4.426l2.499-8.5
	c0.612-1.836,2.595-2.824,4.427-2.215c1.834,0.611,2.825,2.594,2.214,4.426l-2.499,8.5C23.831,27.574,22.466,28.5,21.001,28.5z"/>
<path style="fill:#41A571;" d="M15.521,24.99c0.959,0.111,1.948-0.392,2.226-1.33l0.052-0.176l2.231-7.672
	c0.284-0.965,0.563-2.094-1.084-2.375c-0.273,0.406-0.506,0.844-0.666,1.324l-0.011,0.033l-0.011,0.033l-2.49,8.471
	C15.589,23.854,15.523,24.422,15.521,24.99z"/>
<path style="fill:#FF66A1;" d="M31,16.738l-0.06,0.032l-5.608-3.266c-0.69-0.461-1.621-0.275-2.08,0.416
	C22.792,14.609,23.31,16.539,24,17l6,2.748C30.251,19.914,30.541,20,30.832,20c0.056,0,0.112-0.013,0.168-0.019V16.738z"/>
<path style="fill:#546E7A;" d="M17.769,23.59l-0.09,0.305c-0.491,1.471,0.063,3.026,1.244,3.903l6.866,5.925l3.527-2.227
	l-4.901-5.691L17.769,23.59z"/>
<polygon style="fill:#EC407A;" points="24.4,25.8 24.412,25.794 26.621,18.281 26.583,18.125 24.958,17.375 22.545,25.182 "/>
</svg>
