<?xml version="1.0" encoding="iso-8859-1"?>
<!-- Generator: Adobe Illustrator 19.2.0, SVG Export Plug-In . SVG Version: 6.00 Build 0)  -->
<svg version="1.1"  xmlns="http://www.w3.org/2000/svg" xmlns:xlink="http://www.w3.org/1999/xlink" x="0px" y="0px"
	 viewBox="0 0 48 48" style="enable-background:new 0 0 48 48;" xml:space="preserve">
<metadata><?xpacket begin="﻿" ?>
<x:xmpmeta xmlns:x="adobe:ns:meta/" x:xmptk="Adobe XMP Core 5.6-c111 79.158366, 2015/09/25-01:12:00        ">
   <rdf:RDF xmlns:rdf="http://www.w3.org/1999/02/22-rdf-syntax-ns#">
      <rdf:Description rdf:about=""/>
   </rdf:RDF>
</x:xmpmeta>
                                                                                                    
                                                                                                    
                                                                                                    
                                                                                                    
                                                                                                    
                                                                                                    
                                                                                                    
                                                                                                    
                                                                                                    
                                                                                                    
                                                                                                    
                                                                                                    
                                                                                                    
                                                                                                    
                                                                                                    
                                                                                                    
                                                                                                    
                                                                                                    
                                                                                                    
                                                                                                    
                           
<?xpacket end="w"?></metadata>
<path style="fill:#5D4037;" d="M14.6,4h-1.1C13.2,4,13,3.8,13,3.5l0,0C13,3.2,13.2,3,13.5,3h1.1V4z M14.5,5h-1C13.2,5,13,5.2,13,5.5
	l0,0C13,5.8,13.2,6,13.5,6h1V5z M14.5,7h-1C13.2,7,13,7.2,13,7.5l0,0C13,7.8,13.2,8,13.5,8h1V7z M19.5,4h1C20.8,4,21,3.8,21,3.5l0,0
	C21,3.2,20.8,3,20.5,3h-1V4z M19.5,6h1C20.8,6,21,5.8,21,5.5l0,0C21,5.2,20.8,5,20.5,5h-1V6z M19.5,8h1C20.8,8,21,7.8,21,7.5l0,0
	C21,7.2,20.8,7,20.5,7h-1V8z"/>
<path style="fill:#FF9800;" d="M25.2,28.1c0-1.9,1-4.7,0.6-6.3c-1-4.1-6.3-3.8-8.8-3.8c-2.6,0-7.8-0.4-8.8,3.8
	c-0.4,1.6,0.6,4.4,0.6,6.3c0,3.1-3.8,5.8-3.8,10.2c0,2.1,0.6,3.9,1.9,5.1c2.2,2.1,5.6,2.6,10.1,2.5c4.5,0.1,7.9-0.4,10.1-2.5
	c1.3-1.3,1.9-3.1,1.9-5.1C29,33.9,25.2,31.2,25.2,28.1z"/>
<path style="fill:#00838F;" d="M43,12c0,0-3.7-1.41-8-1.41S27,12,27,12l1.9,24.1c0,0,2.525,2.9,7.1,2.9s5.4-3.3,5.1-3.8L43,12z"/>
<g>
	<g>
		<path style="fill:#00BCD4;" d="M35,10c-4.234,0-8,2-8,2l0.227,2.9c0.9-0.4,4.073-1.86,7.773-1.86s6.862,1.46,7.763,1.86L43,12
			C43,12,39.234,10,35,10z M32,36c-1.2-1.3,1-6,1-6c-2.8-0.6-4.1-1.3-4.7-1.7l0.6,7.8L26,39l-5,2l-1.6-0.58
			c-0.8-0.3-2.01,0.023-2.197,1.386c0,0,0.997,1.494,1.797,2.194s4.3,0.934,7,0.934S33.9,42,36,42s5,0,5,0s1-1.5,1-3.233
			c0-2-0.6-3.067-0.9-3.567C41.1,35.2,34.4,38.7,32,36z M35,36c0.6,0,1-0.4,1-1s-0.4-1-1-1s-1,0.4-1,1S34.4,36,35,36z M39,34
			c0-0.6-0.4-1-1-1s-1,0.4-1,1s0.4,1,1,1S39,34.6,39,34z M35,33c0.6,0,1-0.4,1-1s-0.4-1-1-1s-1,0.4-1,1S34.4,33,35,33z"/>
	</g>
</g>
<path style="fill:#5D4037;" d="M21,34v2h-1c0,0.5-0.5,1-1,1h-4c-0.5,0-1-0.5-1-1h-1v-2H21z M19,10h-4v16h4V10z"/>
<circle style="fill:#3E2723;" cx="17" cy="28" r="3"/>
<path style="fill:#C16629;" d="M20,3c0-0.6-0.4-1-1-1h-4c-0.6,0-1,0.4-1,1v6c0,0.6,0.4,1,1,1h4c0.6,0,1-0.4,1-1V3z M16,8.5
	C16,8.8,15.8,9,15.5,9S15,8.8,15,8.5v-5C15,3.2,15.2,3,15.5,3S16,3.2,16,3.5V8.5z M19,8.5C19,8.8,18.7,9,18.5,9S18,8.8,18,8.5v-5
	C18,3.2,18.2,3,18.5,3S19,3.2,19,3.5V8.5z"/>
<rect x="34" y="8" style="fill:#006064;" width="3" height="7"/>
<path style="fill:#6D4C41;" d="M33.7,41c0,0-4.326,3-5.8,3c-1.388,0-4.1,0-4.9,0c-1.8-0.2-4.7-1.1-5.8-2.2l-0.812,1.612
	C18.918,45.447,21.947,46,23,46c0.424,0,4,0,5.3,0s4.3-2,5.7-2.8V46h6.479l1-5H33.7z"/>
</svg>
