<?xml version="1.0"?>
<svg xmlns="http://www.w3.org/2000/svg" viewBox="0 0 26 26" enable-background="new 0 0 26 26">
    <path style="text-indent:0;text-align:start;line-height:normal;text-transform:none;block-progression:tb;-inkscape-font-specification:Bitstream Vera Sans" d="M 3.5 0 C 1.47076 0 0 1.892779 0 4 C 0 6.107221 1.47076 8 3.5 8 C 4.7582377 8 5.7981513 7.2762646 6.40625 6.21875 C 6.4135358 6.2065511 6.4303289 6.1997933 6.4375 6.1875 C 6.5383199 6.0078015 6.6122463 5.7897457 6.6875 5.59375 C 6.7616095 5.4025116 6.827812 5.2051867 6.875 5 L 9 5 L 9.15625 5 C 9.6009217 6.7243091 11.136812 8 13 8 C 14.863188 8 16.399078 6.7243091 16.84375 5 L 17 5 L 19.125 5 C 19.506509 6.6671368 20.802083 8 22.5 8 C 22.742811 8 22.962244 7.9575748 23.1875 7.90625 C 23.316406 7.8756696 23.438787 7.8279018 23.5625 7.78125 C 23.653029 7.7482949 23.757081 7.7283304 23.84375 7.6875 C 23.864403 7.6774443 23.885791 7.6667472 23.90625 7.65625 C 24.09692 7.5614778 24.268087 7.4422469 24.4375 7.3125 C 24.454612 7.2992761 24.483097 7.2948072 24.5 7.28125 C 24.673682 7.1425506 24.821271 6.9831988 24.96875 6.8125 C 24.978192 6.8017617 24.990662 6.7921084 25 6.78125 C 25.146133 6.6080108 25.289661 6.4183995 25.40625 6.21875 C 25.413536 6.2065511 25.430329 6.1997933 25.4375 6.1875 C 25.548081 5.9934722 25.63855 5.7757959 25.71875 5.5625 C 25.726656 5.5414625 25.742404 5.5212171 25.75 5.5 C 25.919591 5.026224 26 4.5268052 26 4 C 26 3.6344997 25.958736 3.281339 25.875 2.9375 C 25.838896 2.7898348 25.800272 2.6404189 25.75 2.5 C 25.742159 2.478096 25.726921 2.459232 25.71875 2.4375 C 25.634054 2.2121361 25.555477 2.0147447 25.4375 1.8125 C 25.430281 1.7998334 25.413592 1.7938233 25.40625 1.78125 C 25.286635 1.5809723 25.14827 1.3911686 25 1.21875 C 24.990291 1.2072407 24.978582 1.1988799 24.96875 1.1875 C 24.823997 1.0228784 24.667341 0.85296584 24.5 0.71875 C 24.481657 0.70410188 24.456117 0.70175791 24.4375 0.6875 C 24.269444 0.55763072 24.092426 0.43927485 23.90625 0.34375 C 23.886169 0.33376878 23.864051 0.32206389 23.84375 0.3125 C 23.644096 0.21529018 23.434071 0.14705036 23.21875 0.09375 C 23.208728 0.091361448 23.19756 0.096042174 23.1875 0.09375 C 22.961914 0.040234375 22.7375 0 22.5 0 C 20.802083 0 19.506509 1.3328632 19.125 3 L 17 3 L 16.84375 3 C 16.399078 1.2756909 14.863188 0 13 0 C 11.136812 0 9.6009217 1.2756909 9.15625 3 L 9 3 L 6.875 3 C 6.827812 2.7948133 6.7616095 2.5974884 6.6875 2.40625 C 6.6515553 2.3126332 6.6043966 2.215131 6.5625 2.125 C 6.5124049 2.0200245 6.4953318 1.9116396 6.4375 1.8125 C 5.8325809 0.73430889 4.7734379 0 3.5 0 z M 3.5 2 C 3.6281322 2 3.7489913 2.0471868 3.875 2.09375 C 3.9443228 2.6687842 4 3.298044 4 4 C 4 4.701956 3.9443228 5.3312158 3.875 5.90625 C 3.7489913 5.9528132 3.6281322 6 3.5 6 C 2.7678162 6 2 5.2064874 2 4 C 2 2.7935126 2.7678162 2 3.5 2 z M 22.5 2 C 22.628132 2 22.748991 2.0471868 22.875 2.09375 C 22.944323 2.6687842 23 3.298044 23 4 C 23 4.701956 22.944323 5.3312158 22.875 5.90625 C 22.748991 5.9528132 22.628132 6 22.5 6 C 21.767816 6 21 5.2064875 21 4 C 21 2.7935125 21.767816 2 22.5 2 z M 12 9 L 12 14 L 6 14 C 4.9 14 4 14.9 4 16 L 4 24 C 4 25.1 4.9 26 6 26 L 20 26 C 21.1 26 22 25.1 22 24 L 22 16 C 22 14.9 21.1 14 20 14 L 14 14 L 14 9 L 12 9 z M 6 16 L 20 16 L 20 21 L 6 21 L 6 16 z"/>
</svg>
