<?xml version="1.0" encoding="utf-8"?>
<!-- Generator: Adobe Illustrator 15.0.0, SVG Export Plug-In . SVG Version: 6.00 Build 0)  -->
<!DOCTYPE svg PUBLIC "-//W3C//DTD SVG 1.1//EN" "http://www.w3.org/Graphics/SVG/1.1/DTD/svg11.dtd">
<svg version="1.1"  xmlns="http://www.w3.org/2000/svg" xmlns:xlink="http://www.w3.org/1999/xlink" x="0px" y="0px"
	 width="48px" height="48px" viewBox="0 0 48 48" enable-background="new 0 0 48 48" xml:space="preserve">
<path fill="#0288D1" d="M28,38c0-0.553-0.448-1-1-1h-6c-0.553,0-1,0.447-1,1v7h8V38z"/>
<rect x="15" y="3" fill="#CFD8DC" width="18" height="15"/>
<path fill="#03A9F4" d="M36,21c0-1.656-1.344-3-3-3H15c-1.657,0-3,1.344-3,3v11c0,4,3,7,7,7h10c3,0,7-3,7-7V21z"/>
<g>
	<rect x="17" y="9" fill="#546E7A" width="5" height="4"/>
	<rect x="26" y="9" fill="#546E7A" width="5" height="4"/>
</g>
</svg>
