<?xml version="1.0" encoding="utf-8"?>
<!-- Generator: Adobe Illustrator 15.0.0, SVG Export Plug-In . SVG Version: 6.00 Build 0)  -->
<!DOCTYPE svg PUBLIC "-//W3C//DTD SVG 1.1//EN" "http://www.w3.org/Graphics/SVG/1.1/DTD/svg11.dtd">
<svg version="1.1"  xmlns="http://www.w3.org/2000/svg" xmlns:xlink="http://www.w3.org/1999/xlink" x="0px" y="0px"
	 width="48px" height="48px" viewBox="0 0 48 48" enable-background="new 0 0 48 48" xml:space="preserve">
<polyline fill="none" stroke="#607D8B" stroke-width="4" stroke-linejoin="round" points="42,35 31,35 31,26 "/>
<g>
	<path fill="#455A64" d="M45,28h-1c-1.104,0-2,0.896-2,2v10c0,1.105,0.896,2,2,2h1V28z"/>
	<path fill="#455A64" d="M35,18c0,2,0,3.791,0,6s-1.791,4-4,4s-4-1.791-4-4s0-6,0-6H35z"/>
</g>
<path fill="#3F51B5" d="M5,19.191c0,0-0.313,3.813,3.625,4.875s3.313-7.688,3.313-7.688L5,19.191z"/>
<g>
	<polygon fill="#C5CAE9" points="39.857,19.795 15.947,30.759 9.25,17.313 33.714,6.273 	"/>
	<path fill="#C5CAE9" d="M41.049,11.107c1.664,3.732,1.088,7.617-1.281,8.672c-2.369,1.057-5.642-1.107-7.307-4.84
		c-1.663-3.734-1.092-7.615,1.282-8.672C36.112,5.211,39.385,7.375,41.049,11.107z"/>
</g>
<path fill="#42257A" d="M16.842,22.26c1.664,3.732,1.262,7.539-0.895,8.499c-2.156,0.962-5.255-1.28-6.92-5.014
	c-1.663-3.732-1.266-7.536,0.896-8.498C12.078,16.286,15.178,18.527,16.842,22.26z"/>
<ellipse transform="matrix(0.9133 -0.4074 0.4074 0.9133 -8.6613 7.3701)" fill="#B388FF" cx="12.977" cy="24.024" rx="2.131" ry="4.749"/>
<path fill="none" stroke="#CEB8FF" stroke-width="2" stroke-linecap="round" d="M11.991,21.814c0.389-0.172,1.146,0.675,1.689,1.895
	"/>
<path fill="#7986CB" d="M33.743,6.268c-0.009,0.004-0.017,0.01-0.025,0.014l-0.004-0.008L5,19.191c0,0,5.125-1.566,12.125,3.559
	c6.22-2.73,24.105-11.197,24.105-11.197c-0.059-0.148-0.115-0.297-0.182-0.445C39.385,7.375,36.112,5.211,33.743,6.268z"/>
</svg>
