<?xml version="1.0" encoding="utf-8"?>
<!-- Generator: Adobe Illustrator 15.0.0, SVG Export Plug-In . SVG Version: 6.00 Build 0)  -->
<!DOCTYPE svg PUBLIC "-//W3C//DTD SVG 1.1//EN" "http://www.w3.org/Graphics/SVG/1.1/DTD/svg11.dtd">
<svg version="1.1"  xmlns="http://www.w3.org/2000/svg" xmlns:xlink="http://www.w3.org/1999/xlink" x="0px" y="0px"
	 width="48px" height="48px" viewBox="0 0 48 48" enable-background="new 0 0 48 48" xml:space="preserve">
<path fill="#2196F3" d="M35,44c0,0.553-0.447,1-1,1H14c-0.553,0-1-0.447-1-1c0,0,0-13,0-19c0-5,6-8,6-8h10c0,0,6,3,6,8S35,44,35,44z
	"/>
<rect x="19" y="13" fill="#1565C0" width="10" height="4"/>
<rect x="18" y="10" fill="#37474F" width="12" height="4"/>
<path fill="#263238" d="M27,3h-6c0,0,0,4-3,7c2,0,3.034,0,6,0c-1.104,0-2-0.896-2-2s0.896-2,2-2s2,0.896,2,2s-0.896,2-2,2
	c3.096,0,5,0,6,0C27,7,27,3,27,3z"/>
<g>
	<path fill="#90CAF9" d="M31,35.356c-0.307,0.171-1.651,0.79-1.933,0.896c-0.45,0.17-0.912,0.338-1.36,0.497
		C27.053,36.981,26.42,37,25.66,37c-1.07,0-2.059-0.229-2.965-0.479c-0.302-0.082-0.605-0.174-0.912-0.266
		c-0.954-0.286-1.94-0.582-2.975-0.675c-0.533-0.045-1.125,0.016-1.809,0.162v2.092c0.102-0.041,0.204-0.082,0.303-0.122
		c0.539-0.127,0.974-0.175,1.326-0.14c0.834,0.074,1.682,0.329,2.58,0.599c0.32,0.096,0.641,0.191,0.957,0.279
		C23.209,38.736,24.354,39,25.66,39c0.888,0,1.764-0.028,2.718-0.366c0.46-0.165,0.935-0.337,1.394-0.51
		c0.179-0.067,0.711-0.303,1.229-0.543V35.356z"/>
	<path fill="#90CAF9" d="M29.067,32.252c-0.45,0.17-0.912,0.338-1.36,0.497C27.053,32.981,26.42,33,25.66,33
		c-1.07,0-2.059-0.229-2.965-0.479c-0.302-0.082-0.605-0.174-0.912-0.266c-0.954-0.286-1.94-0.582-2.975-0.675
		c-0.533-0.045-1.125,0.017-1.809,0.163v2.091c0.102-0.041,0.204-0.082,0.303-0.122c0.539-0.127,0.974-0.176,1.326-0.14
		c0.834,0.074,1.682,0.329,2.58,0.599c0.32,0.096,0.641,0.191,0.957,0.279C23.209,34.736,24.354,35,25.66,35
		c0.888,0,1.764-0.028,2.718-0.366c0.46-0.165,0.935-0.337,1.394-0.51c0.179-0.067,0.711-0.303,1.229-0.543v-2.225
		C30.693,31.527,29.349,32.146,29.067,32.252z"/>
	<path fill="#90CAF9" d="M29.067,28.252c-0.45,0.17-0.912,0.338-1.36,0.497C27.053,28.981,26.42,29,25.66,29
		c-1.07,0-2.059-0.229-2.965-0.479c-0.302-0.082-0.605-0.174-0.912-0.266c-0.954-0.286-1.94-0.582-2.975-0.675
		c-0.533-0.045-1.125,0.016-1.809,0.162v2.092c0.102-0.041,0.204-0.082,0.303-0.122c0.539-0.127,0.974-0.176,1.326-0.14
		c0.834,0.074,1.682,0.329,2.58,0.599c0.32,0.096,0.641,0.191,0.957,0.279C23.209,30.736,24.354,31,25.66,31
		c0.888,0,1.764-0.028,2.718-0.366c0.46-0.165,0.935-0.337,1.394-0.51c0.179-0.067,0.711-0.303,1.229-0.543v-2.225
		C30.693,27.527,29.349,28.146,29.067,28.252z"/>
</g>
</svg>
