<?xml version="1.0" encoding="utf-8"?>
<!-- Generator: Adobe Illustrator 15.0.0, SVG Export Plug-In . SVG Version: 6.00 Build 0)  -->
<!DOCTYPE svg PUBLIC "-//W3C//DTD SVG 1.1//EN" "http://www.w3.org/Graphics/SVG/1.1/DTD/svg11.dtd">
<svg version="1.1"  xmlns="http://www.w3.org/2000/svg" xmlns:xlink="http://www.w3.org/1999/xlink" x="0px" y="0px"
	 width="48px" height="48px" viewBox="0 0 48 48" enable-background="new 0 0 48 48" xml:space="preserve">
<path fill="#546E7A" d="M42,34H6V8c0,0,0-3,3-3s11,3,17,3s10-3,13-3s3,3,3,3V34z"/>
<g>
	<path fill="#37474F" d="M32.701,24.936C32.262,14.724,30.97,7.328,30.97,7.328c-0.003,0.037-0.762,8.713-0.191,19.264
		c0.001,0,0.002,0,0.003,0C42.167,28.708,42,33.755,42,34v-4.479C40.058,27.487,36.798,25.88,32.701,24.936z"/>
	<path fill="#37474F" d="M15.039,27.068C15.039,27.068,15.04,27.068,15.039,27.068c0.211-12.672,4.753-19.749,4.786-19.801
		C18,9,13.641,15.184,13.099,25.527C10.032,26.491,7.58,27.865,6,29.521V34c0-0.25-0.25-4.438,9.035-6.931
		C15.037,27.069,15.038,27.068,15.039,27.068z"/>
</g>
<g>
	<g>
		<path fill="#8BC34A" d="M12.55,28.036l0.071-0.813c0.008-0.239,0.038-0.467,0.032-0.722c0.01-0.502-0.015-1.005-0.067-1.508
			c-0.108-1.003-0.343-2.006-0.727-2.969c-0.376-0.967-0.9-1.892-1.546-2.747C9.664,18.429,8.902,17.635,8,17
			c1.026,0.417,1.979,1.035,2.854,1.759c0.873,0.729,1.665,1.584,2.325,2.552c0.668,0.963,1.202,2.037,1.598,3.168
			c0.195,0.566,0.36,1.146,0.486,1.735c0.072,0.288,0.113,0.61,0.169,0.918l0.118,0.832L12.55,28.036z"/>
	</g>
	<g>
		<path fill="#8BC34A" d="M30.45,27.964l0.118-0.832c0.056-0.308,0.097-0.63,0.169-0.918c0.126-0.589,0.291-1.169,0.486-1.735
			c0.396-1.131,0.93-2.205,1.598-3.168c0.66-0.968,1.452-1.824,2.325-2.552C36.021,18.035,36.974,17.417,38,17
			c-0.902,0.635-1.664,1.429-2.313,2.278c-0.646,0.854-1.17,1.78-1.546,2.747c-0.384,0.963-0.618,1.966-0.727,2.969
			c-0.053,0.503-0.077,1.006-0.067,1.508c-0.006,0.255,0.024,0.482,0.032,0.722l0.071,0.813L30.45,27.964z"/>
	</g>
	<g>
		<path fill="#8BC34A" d="M31.701,29.772c0.296-0.968,0.671-1.728,1.126-2.517c0.453-0.771,0.991-1.491,1.617-2.121
			c0.627-0.628,1.345-1.165,2.129-1.529C37.352,23.23,38.189,23.045,39,23c-1.549,0.563-2.692,1.71-3.354,3.032
			c-0.338,0.662-0.579,1.366-0.74,2.085c-0.157,0.7-0.261,1.49-0.24,2.11L31.701,29.772z"/>
	</g>
	<g>
		<path fill="#8BC34A" d="M10.492,29.442c0.116-0.559,0.175-1.248,0.197-1.887c0.018-0.651-0.003-1.309-0.092-1.957
			C10.419,24.313,10.015,22.994,9,22c1.311,0.567,2.321,1.81,3.019,3.12c0.357,0.662,0.645,1.358,0.891,2.071
			c0.242,0.726,0.444,1.416,0.583,2.241L10.492,29.442z"/>
	</g>
</g>
<g>
	<ellipse fill="#42A5F5" cx="24" cy="34" rx="18" ry="8"/>
	<path fill="#42A5F5" d="M31,7H20c0,0-5,7-5,22h15.928C30.052,16.491,31,7,31,7z"/>
</g>
<g>
	<g>
		<path fill="#42A5F5" d="M32,29c2.454,0.977,6,2.421,6,4c0,2.945-7.372,5-14,5s-14-2.055-14-5c0-1.579,3.545-3.023,6-4"/>
		<path fill="#90CAF9" d="M32,29c0.959,0.205,1.905,0.45,2.846,0.76c0.941,0.317,1.866,0.679,2.782,1.301
			c0.436,0.328,0.942,0.727,1.183,1.547c0.059,0.174,0.063,0.494,0.066,0.568c-0.009,0.223-0.028,0.397-0.07,0.571
			c-0.077,0.353-0.223,0.669-0.391,0.95c-0.701,1.114-1.673,1.691-2.588,2.225c-3.77,1.943-7.786,2.484-11.835,2.577
			c-2.01-0.008-4.029-0.195-6.008-0.593c-1.971-0.436-3.949-0.945-5.815-1.98c-0.916-0.533-1.886-1.111-2.59-2.227
			c-0.335-0.563-0.576-1.283-0.4-2.064c0.252-0.879,0.752-1.234,1.189-1.578c0.917-0.621,1.843-0.982,2.784-1.299
			C14.094,29.448,15.04,29.203,16,29c-0.837,0.512-1.685,0.992-2.494,1.506c-0.798,0.516-1.613,1.043-2.185,1.665
			c-0.283,0.278-0.493,0.67-0.45,0.751c-0.002,0.181,0.114,0.444,0.322,0.668c0.43,0.475,1.189,0.916,1.991,1.232
			c1.638,0.621,3.452,1.048,5.282,1.285c1.834,0.256,3.683,0.395,5.54,0.394c1.83,0.026,3.7-0.126,5.526-0.39
			c1.83-0.239,3.646-0.662,5.284-1.285c0.802-0.316,1.562-0.76,1.993-1.234c0.4-0.533,0.516-0.711-0.129-1.424
			c-0.572-0.621-1.389-1.148-2.187-1.664C33.686,29.99,32.837,29.511,32,29z"/>
	</g>
	<path fill="#90CAF9" d="M18,29.578C18,14.425,24,7,24,7s-3.5,6.578-3,22.578H18z"/>
	<path fill="#90CAF9" d="M24.003,29.578C24.003,20.578,27,10,27,10s-1,9.5,0,19.5L24.003,29.578z"/>
	<g>
		<path fill="#90CAF9" d="M15,31c-0.951,0.744,0.018,1.184,0.775,1.386c0.791,0.235,1.65,0.34,2.498,0.433
			c1.711,0.17,3.442,0.179,5.192,0.182c1.745-0.01,3.494-0.043,5.214-0.203c0.856-0.092,1.717-0.191,2.521-0.418
			c0.399-0.104,0.798-0.261,1.056-0.48c0.128-0.113,0.184-0.227,0.138-0.405C32.337,31.316,32.176,31.143,32,31
			c0.219,0.063,0.447,0.141,0.639,0.341c0.199,0.206,0.208,0.61,0.061,0.854c-0.273,0.513-0.708,0.782-1.111,1.049
			c-0.84,0.488-1.73,0.817-2.632,1.05c-1.804,0.484-3.643,0.664-5.474,0.699c-1.827,0.037-3.689-0.127-5.502-0.604
			c-0.904-0.247-1.801-0.566-2.637-1.088c-0.401-0.279-0.83-0.57-1.09-1.104c-0.138-0.259-0.104-0.662,0.096-0.865
			C14.548,31.135,14.782,31.057,15,31z"/>
	</g>
	<circle fill="#90CAF9" cx="19.5" cy="29.5" r="1.5"/>
	<circle fill="#90CAF9" cx="25.5" cy="29.5" r="1.5"/>
</g>
</svg>
