<?xml version="1.0" encoding="utf-8"?>
<!-- Generator: Adobe Illustrator 15.0.0, SVG Export Plug-In . SVG Version: 6.00 Build 0)  -->
<!DOCTYPE svg PUBLIC "-//W3C//DTD SVG 1.1//EN" "http://www.w3.org/Graphics/SVG/1.1/DTD/svg11.dtd">
<svg version="1.1"  xmlns="http://www.w3.org/2000/svg" xmlns:xlink="http://www.w3.org/1999/xlink" x="0px" y="0px"
	 width="48px" height="48px" viewBox="0 0 48 48" enable-background="new 0 0 48 48" xml:space="preserve">
<g>
	<path fill="#2196F3" d="M17,16c0,2.761-2.239,5-5,5s-5-2.239-5-5s5-10,5-10S17,13.239,17,16z"/>
	<path fill="#2196F3" d="M27,37c0,2.761-2.239,5-5,5s-5-2.239-5-5s5-10,5-10S27,34.239,27,37z"/>
	<path fill="#2196F3" d="M41,22c0,2.761-2.238,5-5,5s-5-2.239-5-5s5-10,5-10S41,19.239,41,22z"/>
</g>
</svg>
